M48
INCH
T1C0.0256
T2C0.0472
T3C0.0709
T4C0.1181
T5C0.1890
T6C0.2362
%
G90
G05
T1
X6.2618Y-1.7697
X6.4894Y-1.7697
T2
X2.7008Y-2.8748
X2.915Y-4.1087
X3.8413Y-2.8654
X4.065Y-4.1087
X4.9819Y-2.8701
X5.2008Y-4.1087
X6.0276Y-3.324
X6.2484Y-4.5461
X6.7142Y-5.8638
X7.4031Y-3.7732
X8.4504Y-3.3264
X9.5959Y-3.3217
T3
X2.6811Y-2.672
X2.8953Y-3.9059
X3.1142Y-2.672
X3.3283Y-3.9059
X3.8217Y-2.6626
X4.0453Y-3.9059
X4.2547Y-2.6626
X4.4783Y-3.9059
X4.9622Y-2.6673
X5.1811Y-3.9059
X5.3953Y-2.6673
X5.6142Y-3.9059
X6.0079Y-3.1213
X6.2287Y-4.3433
X6.4409Y-3.1213
X6.6618Y-4.3433
X6.6945Y-5.661
X7.1276Y-5.661
X7.3835Y-3.5705
X7.8165Y-3.5705
X8.4307Y-3.1236
X8.8638Y-3.1236
X9.5762Y-3.1189
X10.0093Y-3.1189
T4
X2.8976Y-2.4378
X3.0945Y-2.5244
X3.1118Y-3.6717
X3.3087Y-3.7583
X4.0382Y-2.4283
X4.235Y-2.515
X4.2618Y-3.6717
X4.4587Y-3.7583
X5.1787Y-2.4331
X5.3756Y-2.5197
X5.3976Y-3.6717
X5.5945Y-3.7583
X6.2244Y-2.887
X6.4213Y-2.9736
X6.4453Y-4.1091
X6.6421Y-4.1957
X6.911Y-5.4268
X7.1079Y-5.5134
X7.6Y-3.3362
X7.7969Y-3.4228
X8.6472Y-2.8894
X8.8441Y-2.976
X9.7927Y-2.8846
X9.9896Y-2.9713
T5
X2.8976Y-2.672
X3.1118Y-3.9059
X4.0382Y-2.6626
X4.2618Y-3.9059
X5.1787Y-2.6673
X5.3976Y-3.9059
X6.2244Y-3.1213
X6.4453Y-4.3433
X6.911Y-5.661
X7.6Y-3.5705
X8.6472Y-3.1236
X9.7927Y-3.1189
T6
X2.5138Y-6.1937
X2.5146Y-2.0205
X5.9165Y-2.0205
X6.1756Y-6.1933
X6.8256Y-3.6346
X10.2307Y-6.1941
X10.2315Y-2.0205
T0
M30
