M48
INCH
T1C0.0118
T2C0.0138
T3C0.0236
T4C0.0394
%
G90
G05
T1
X2.7953Y-2.7874
X2.9331Y-4.189
X3.0118Y-3.0236
X3.0118Y-4.0157
X3.1024Y-2.8307
X3.1024Y-3.0039
X3.1535Y-3.4921
X3.2992Y-4.1772
X3.3031Y-2.5236
X3.3031Y-2.9331
X3.5236Y-3.7598
X3.7953Y-2.3465
X3.811Y-2.9409
X3.9331Y-2.9488
X3.937Y-2.7795
X3.937Y-3.0276
X4.0236Y-4.185
X4.0709Y-3.4921
X4.1594Y-4.2106
X4.1614Y-4.0157
X4.1614Y-4.3031
X4.2205Y-3.4921
X4.2953Y-2.937
X4.2953Y-3.0591
X4.3543Y-2.937
X4.4449Y-2.5157
X4.4843Y-4.1929
X4.4843Y-4.3346
X4.5472Y-4.189
X4.5472Y-4.3504
X4.6693Y-3.7598
X4.9331Y-2.3465
X4.9331Y-2.9409
X4.9961Y-3.1299
X5.0709Y-2.9606
X5.0709Y-3.063
X5.0787Y-2.7835
X5.1024Y-3.3976
X5.1614Y-3.248
X5.1772Y-3.0787
X5.1811Y-4.1929
X5.1969Y-3.2992
X5.2008Y-3.2244
X5.2126Y-3.4724
X5.2835Y-3.1732
X5.2913Y-4.2815
X5.2953Y-4.1969
X5.2953Y-4.0197
X5.3386Y-3.4016
X5.374Y-2.8268
X5.374Y-2.9291
X5.437Y-3.3675
X5.4449Y-2.9409
X5.4449Y-3.0551
X5.4488Y-3.3346
X5.4528Y-2.8228
X5.4606Y-3.2795
X5.4724Y-1.9528
X5.4724Y-2.1929
X5.4724Y-2.3504
X5.5433Y-2.8858
X5.5669Y-3.4488
X5.5866Y-2.5197
X5.6024Y-1.9646
X5.6063Y-2.8976
X5.6142Y-4.3071
X5.622Y-4.0709
X5.6378Y-3.0984
X5.6378Y-3.2244
X5.6417Y-2.2362
X5.6988Y-3.0728
X5.7008Y-2.7953
X5.7047Y-2.5394
X5.7047Y-2.6142
X5.7244Y-3.6693
X5.7362Y-3.0
X5.7441Y-4.3425
X5.7677Y-2.6496
X5.7756Y-3.4291
X5.7835Y-3.2992
X5.7837Y-4.076
X5.8031Y-2.3504
X5.8031Y-2.6969
X5.8504Y-3.252
X5.8642Y-3.4783
X5.874Y-2.6969
X5.9055Y-2.7047
X5.9055Y-3.2992
X5.9409Y-2.4803
X5.9409Y-3.9016
X5.9452Y-2.6299
X5.9528Y-3.4724
X5.9606Y-2.6811
X5.9646Y-2.5394
X5.9646Y-3.9685
X5.9646Y-4.1969
X5.9685Y-2.7913
X5.9685Y-2.9961
X5.9724Y-3.3858
X5.9803Y-4.563
X6.0551Y-4.4449
X6.0551Y-4.7598
X6.0591Y-3.5866
X6.0591Y-3.8465
X6.0709Y-2.3504
X6.0945Y-3.5118
X6.1181Y-3.2362
X6.1181Y-3.4213
X6.1181Y-4.5669
X6.1378Y-4.1969
X6.1496Y-3.9606
X6.1693Y-2.185
X6.2205Y-3.5354
X6.2205Y-3.6969
X6.2362Y-2.315
X6.252Y-2.5354
X6.2638Y-3.8425
X6.2638Y-3.9606
X6.2795Y-1.8819
X6.3189Y-1.9843
X6.3228Y-2.1142
X6.3268Y-3.4173
X6.3268Y-3.4764
X6.3425Y-4.4567
X6.3583Y-1.9252
X6.3622Y-1.7717
X6.3661Y-2.4016
X6.3898Y-1.9252
X6.3937Y-2.2756
X6.4055Y-3.5354
X6.4134Y-1.7717
X6.4291Y-1.9803
X6.4409Y-3.8425
X6.4409Y-3.9606
X6.4488Y-2.8071
X6.4528Y-2.3898
X6.4685Y-2.5197
X6.4724Y-1.8858
X6.4764Y-2.1142
X6.4764Y-2.3622
X6.5315Y-2.4449
X6.5315Y-4.8228
X6.5354Y-2.5512
X6.5472Y-2.185
X6.5512Y-3.0512
X6.5512Y-3.252
X6.5512Y-3.3898
X6.563Y-3.9055
X6.5895Y-2.8396
X6.5906Y-1.9724
X6.6212Y-2.8379
X6.6339Y-2.185
X6.6339Y-2.2244
X6.6535Y-4.7244
X6.6575Y-4.5039
X6.6575Y-4.6063
X6.6614Y-2.4843
X6.6614Y-2.9134
X6.6654Y-3.3071
X6.6693Y-2.3386
X6.6697Y-3.4075
X6.6772Y-2.0787
X6.6772Y-2.6693
X6.6772Y-2.8465
X6.6811Y-2.626
X6.6992Y-2.2067
X6.7205Y-5.0039
X6.7244Y-4.4961
X6.7264Y-2.9272
X6.752Y-2.2953
X6.7559Y-2.3858
X6.7638Y-1.9449
X6.7638Y-3.2323
X6.7677Y-2.5079
X6.7677Y-2.5472
X6.7677Y-3.0827
X6.7756Y-4.563
X6.8071Y-2.6299
X6.811Y-5.7795
X6.8268Y-2.5039
X6.8386Y-3.0669
X6.8425Y-3.2835
X6.8543Y-4.1969
X6.8593Y-2.6132
X6.8622Y-2.0945
X6.8701Y-4.7244
X6.8976Y-3.0984
X6.9173Y-2.9961
X6.9173Y-3.2323
X6.937Y-2.8976
X6.937Y-3.0984
X6.9488Y-2.3976
X6.9488Y-2.5
X6.9697Y-2.6106
X6.9724Y-4.563
X6.9764Y-3.2795
X6.9803Y-2.1417
X6.9921Y-1.9646
X7.0157Y-3.4134
X7.0157Y-3.9055
X7.0276Y-1.8819
X7.0276Y-1.9606
X7.0394Y-2.5354
X7.0591Y-3.2913
X7.0709Y-2.1378
X7.0709Y-4.4921
X7.0709Y-4.6142
X7.0787Y-1.9606
X7.0945Y-3.0984
X7.122Y-3.8346
X7.122Y-3.9764
X7.1339Y-2.0787
X7.1339Y-3.1614
X7.1339Y-3.2795
X7.1339Y-3.4094
X7.1417Y-2.4921
X7.1575Y-2.9803
X7.1614Y-4.6102
X7.1732Y-2.2087
X7.1772Y-2.3937
X7.1969Y-3.2165
X7.1969Y-4.5591
X7.2283Y-2.7126
X7.2283Y-2.8543
X7.2756Y-2.0827
X7.2913Y-2.7126
X7.2913Y-4.1417
X7.2913Y-4.3346
X7.2953Y-4.5039
X7.3031Y-3.9764
X7.3031Y-4.6575
X7.3031Y-4.8661
X7.311Y-2.8583
X7.3268Y-5.5118
X7.3346Y-2.9843
X7.3386Y-2.2008
X7.3425Y-1.8504
X7.3425Y-4.6102
X7.3465Y-3.2323
X7.3701Y-4.563
X7.3976Y-1.811
X7.4055Y-2.6063
X7.4055Y-2.7126
X7.4055Y-2.8583
X7.4134Y-3.8425
X7.4173Y-5.5118
X7.4213Y-2.3976
X7.4252Y-3.9055
X7.4449Y-2.6063
X7.4488Y-4.0394
X7.4606Y-1.811
X7.4843Y-2.6063
X7.4882Y-2.1772
X7.4961Y-3.685
X7.5118Y-2.9646
X7.5472Y-2.7126
X7.5472Y-2.8543
X7.5827Y-2.0787
X7.6024Y-2.1772
X7.6969Y-2.5197
X7.6969Y-2.6024
X7.7323Y-2.8504
X7.7441Y-2.4331
X7.7913Y-2.3661
X7.815Y-3.789
X7.815Y-3.9646
X7.8504Y-2.4606
X7.8567Y-3.7299
X7.8567Y-3.9055
X7.8622Y-2.7559
X7.9213Y-2.3504
X7.937Y-3.7165
X7.9882Y-2.8504
X8.0118Y-3.4213
X8.1374Y-2.3661
X8.311Y-2.8386
X8.315Y-2.3504
X8.4488Y-3.4016
X8.4488Y-3.5984
X8.4921Y-2.4016
X8.5433Y-3.2402
X8.5591Y-3.4134
X8.5591Y-3.4961
X8.6339Y-2.5
X8.7087Y-2.3346
X8.8819Y-3.4173
X8.8819Y-3.5236
X8.9291Y-2.3819
X8.9685Y-2.811
X8.9724Y-3.3937
X9.0591Y-2.9764
X9.1024Y-2.3543
X9.3189Y-2.3937
X9.4961Y-2.3583
X9.5433Y-2.7992
X9.5984Y-3.3937
X9.6811Y-3.4252
X9.6811Y-3.5354
X9.689Y-3.2362
X9.7126Y-2.4055
X9.7638Y-3.5472
X9.8898Y-2.3504
X10.2047Y-2.9685
T2
X6.9113Y-2.7667
X6.9113Y-2.8169
X6.9113Y-2.8671
X6.9615Y-2.7667
X6.9615Y-2.8169
X6.9615Y-2.8671
X7.0117Y-2.7667
X7.0117Y-2.8169
X7.0117Y-2.8671
T4
X5.5315Y-1.7776
T3
G00X6.2055Y-1.6378
M15
G01X6.2055Y-1.6142
M16
G05
G00X6.2055Y-1.8122
M15
G01X6.2055Y-1.7689
M16
G05
G00X6.5457Y-1.6378
M15
G01X6.5457Y-1.6142
M16
G05
G00X6.5457Y-1.8122
M15
G01X6.5457Y-1.7689
M16
G05
T0
M30
