%TF.GenerationSoftware,KiCad,Pcbnew,7.0.9*%
%TF.CreationDate,2024-03-26T15:37:35+08:00*%
%TF.ProjectId,Flatbox-LED-Mirrored,466c6174-626f-4782-9d4c-45442d4d6972,rev?*%
%TF.SameCoordinates,Original*%
%TF.FileFunction,Soldermask,Top*%
%TF.FilePolarity,Negative*%
%FSLAX46Y46*%
G04 Gerber Fmt 4.6, Leading zero omitted, Abs format (unit mm)*
G04 Created by KiCad (PCBNEW 7.0.9) date 2024-03-26 15:37:35*
%MOMM*%
%LPD*%
G01*
G04 APERTURE LIST*
G04 Aperture macros list*
%AMRoundRect*
0 Rectangle with rounded corners*
0 $1 Rounding radius*
0 $2 $3 $4 $5 $6 $7 $8 $9 X,Y pos of 4 corners*
0 Add a 4 corners polygon primitive as box body*
4,1,4,$2,$3,$4,$5,$6,$7,$8,$9,$2,$3,0*
0 Add four circle primitives for the rounded corners*
1,1,$1+$1,$2,$3*
1,1,$1+$1,$4,$5*
1,1,$1+$1,$6,$7*
1,1,$1+$1,$8,$9*
0 Add four rect primitives between the rounded corners*
20,1,$1+$1,$2,$3,$4,$5,0*
20,1,$1+$1,$4,$5,$6,$7,0*
20,1,$1+$1,$6,$7,$8,$9,0*
20,1,$1+$1,$8,$9,$2,$3,0*%
G04 Aperture macros list end*
%ADD10R,1.300000X1.550000*%
%ADD11RoundRect,0.135000X-0.185000X0.135000X-0.185000X-0.135000X0.185000X-0.135000X0.185000X0.135000X0*%
%ADD12C,0.650000*%
%ADD13R,0.600000X1.450000*%
%ADD14R,0.300000X1.450000*%
%ADD15O,1.000000X2.100000*%
%ADD16O,1.000000X1.600000*%
%ADD17R,0.900000X2.100000*%
%ADD18C,1.300000*%
%ADD19C,1.800000*%
%ADD20C,1.200000*%
%ADD21C,3.000000*%
%ADD22C,4.800000*%
%ADD23C,6.000000*%
G04 APERTURE END LIST*
D10*
%TO.C,SW4*%
X216690000Y-57975000D03*
X216690000Y-50025000D03*
X221190000Y-57975000D03*
X221190000Y-50025000D03*
%TD*%
%TO.C,SW2*%
X236690000Y-57975000D03*
X236690000Y-50025000D03*
X241190000Y-57975000D03*
X241190000Y-50025000D03*
%TD*%
%TO.C,SW5*%
X206690000Y-57975000D03*
X206690000Y-50025000D03*
X211190000Y-57975000D03*
X211190000Y-50025000D03*
%TD*%
%TO.C,SW3*%
X226690000Y-57975000D03*
X226690000Y-50025000D03*
X231190000Y-57975000D03*
X231190000Y-50025000D03*
%TD*%
%TO.C,SW6*%
X196690000Y-57975000D03*
X196690000Y-50025000D03*
X201190000Y-57975000D03*
X201190000Y-50025000D03*
%TD*%
D11*
%TO.C,R7*%
X163300000Y-48490000D03*
X163300000Y-49510000D03*
%TD*%
D12*
%TO.C,USB1*%
X164830000Y-44950000D03*
X159050000Y-44950000D03*
D13*
X165190000Y-46395000D03*
X164390000Y-46395000D03*
D14*
X163690000Y-46395000D03*
X163190000Y-46395000D03*
X162690000Y-46395000D03*
X162190000Y-46395000D03*
X161690000Y-46395000D03*
X161190000Y-46395000D03*
X160690000Y-46395000D03*
X160190000Y-46395000D03*
D13*
X159490000Y-46395000D03*
X158690000Y-46395000D03*
D15*
X166260000Y-45480000D03*
D16*
X166260000Y-41300000D03*
D15*
X157620000Y-45480000D03*
D16*
X157620000Y-41300000D03*
%TD*%
D11*
%TO.C,R6*%
X160200000Y-48590000D03*
X160200000Y-49610000D03*
%TD*%
D17*
%TO.C,SW19*%
X139000000Y-47700000D03*
X142000000Y-47700000D03*
D18*
X140500000Y-45150000D03*
%TD*%
D19*
%TO.C,D15*%
X102750000Y-99210000D03*
D20*
X103250000Y-104360000D03*
D21*
X108250000Y-93260000D03*
D22*
X108250000Y-99210000D03*
D21*
X113250000Y-95460000D03*
D19*
X113750000Y-99210000D03*
%TD*%
%TO.C,D14*%
X131600000Y-99210000D03*
D20*
X132100000Y-104360000D03*
D21*
X137100000Y-93260000D03*
D22*
X137100000Y-99210000D03*
D21*
X142100000Y-95460000D03*
D19*
X142600000Y-99210000D03*
%TD*%
%TO.C,D16*%
X73540000Y-99210000D03*
D20*
X74040000Y-104360000D03*
D21*
X79040000Y-93260000D03*
D22*
X79040000Y-99210000D03*
D21*
X84040000Y-95460000D03*
D19*
X84540000Y-99210000D03*
%TD*%
%TO.C,D6*%
X126040000Y-67750000D03*
D20*
X126540000Y-72900000D03*
D21*
X131540000Y-61800000D03*
D22*
X131540000Y-67750000D03*
D21*
X136540000Y-64000000D03*
D19*
X137040000Y-67750000D03*
%TD*%
%TO.C,D5*%
X152600000Y-79280000D03*
D20*
X153100000Y-84430000D03*
D21*
X158100000Y-73330000D03*
D22*
X158100000Y-79280000D03*
D21*
X163100000Y-75530000D03*
D19*
X163600000Y-79280000D03*
%TD*%
%TO.C,D1*%
X170040000Y-143790000D03*
D20*
X170540000Y-148940000D03*
D21*
X175540000Y-137840000D03*
D22*
X175540000Y-143790000D03*
D21*
X180540000Y-140040000D03*
D19*
X181040000Y-143790000D03*
%TD*%
D10*
%TO.C,SW1*%
X246690000Y-57975000D03*
X246690000Y-50025000D03*
X251190000Y-57975000D03*
X251190000Y-50025000D03*
%TD*%
D19*
%TO.C,D4*%
X187540000Y-90690000D03*
D20*
X188040000Y-95840000D03*
D21*
X193040000Y-84740000D03*
D22*
X193040000Y-90690000D03*
D21*
X198040000Y-86940000D03*
D19*
X198540000Y-90690000D03*
%TD*%
%TO.C,D2*%
X243235000Y-79220000D03*
D20*
X243735000Y-84370000D03*
D21*
X248735000Y-73270000D03*
D22*
X248735000Y-79220000D03*
D21*
X253735000Y-75470000D03*
D19*
X254235000Y-79220000D03*
%TD*%
%TO.C,D13*%
X158210000Y-110320000D03*
D20*
X158710000Y-115470000D03*
D21*
X163710000Y-104370000D03*
D22*
X163710000Y-110320000D03*
D21*
X168710000Y-106570000D03*
D19*
X169210000Y-110320000D03*
%TD*%
%TO.C,D3*%
X214140000Y-79340000D03*
D20*
X214640000Y-84490000D03*
D21*
X219640000Y-73390000D03*
D22*
X219640000Y-79340000D03*
D21*
X224640000Y-75590000D03*
D19*
X225140000Y-79340000D03*
%TD*%
%TO.C,D7*%
X97070000Y-67630000D03*
D20*
X97570000Y-72780000D03*
D21*
X102570000Y-61680000D03*
D22*
X102570000Y-67630000D03*
D21*
X107570000Y-63880000D03*
D19*
X108070000Y-67630000D03*
%TD*%
%TO.C,D12*%
X68100000Y-67870000D03*
D20*
X68600000Y-73020000D03*
D21*
X73600000Y-61920000D03*
D22*
X73600000Y-67870000D03*
D21*
X78600000Y-64120000D03*
D19*
X79100000Y-67870000D03*
%TD*%
D23*
%TO.C,H1*%
X259880000Y-51320000D03*
%TD*%
%TO.C,H6*%
X156860000Y-157310000D03*
%TD*%
%TO.C,H7*%
X63850000Y-157320000D03*
%TD*%
%TO.C,H5*%
X63870000Y-51320000D03*
%TD*%
%TO.C,H2*%
X173370000Y-92320000D03*
%TD*%
%TO.C,H3*%
X259860000Y-157330000D03*
%TD*%
%TO.C,H4*%
X150280000Y-51320000D03*
%TD*%
M02*
