%TF.GenerationSoftware,KiCad,Pcbnew,7.0.9*%
%TF.CreationDate,2024-03-26T15:37:35+08:00*%
%TF.ProjectId,Flatbox-LED-Mirrored,466c6174-626f-4782-9d4c-45442d4d6972,rev?*%
%TF.SameCoordinates,Original*%
%TF.FileFunction,Legend,Bot*%
%TF.FilePolarity,Positive*%
%FSLAX46Y46*%
G04 Gerber Fmt 4.6, Leading zero omitted, Abs format (unit mm)*
G04 Created by KiCad (PCBNEW 7.0.9) date 2024-03-26 15:37:35*
%MOMM*%
%LPD*%
G01*
G04 APERTURE LIST*
G04 Aperture macros list*
%AMRoundRect*
0 Rectangle with rounded corners*
0 $1 Rounding radius*
0 $2 $3 $4 $5 $6 $7 $8 $9 X,Y pos of 4 corners*
0 Add a 4 corners polygon primitive as box body*
4,1,4,$2,$3,$4,$5,$6,$7,$8,$9,$2,$3,0*
0 Add four circle primitives for the rounded corners*
1,1,$1+$1,$2,$3*
1,1,$1+$1,$4,$5*
1,1,$1+$1,$6,$7*
1,1,$1+$1,$8,$9*
0 Add four rect primitives between the rounded corners*
20,1,$1+$1,$2,$3,$4,$5,0*
20,1,$1+$1,$4,$5,$6,$7,0*
20,1,$1+$1,$6,$7,$8,$9,0*
20,1,$1+$1,$8,$9,$2,$3,0*%
G04 Aperture macros list end*
%ADD10C,0.200000*%
%ADD11C,0.150000*%
%ADD12C,0.100000*%
%ADD13C,0.120000*%
%ADD14C,0.650000*%
%ADD15O,1.000000X2.100000*%
%ADD16O,1.000000X1.600000*%
%ADD17C,1.300000*%
%ADD18C,1.800000*%
%ADD19C,1.200000*%
%ADD20C,3.000000*%
%ADD21C,4.800000*%
%ADD22RoundRect,0.082000X0.718000X-0.328000X0.718000X0.328000X-0.718000X0.328000X-0.718000X-0.328000X0*%
%ADD23R,2.600000X2.600000*%
%ADD24RoundRect,0.140000X0.140000X0.170000X-0.140000X0.170000X-0.140000X-0.170000X0.140000X-0.170000X0*%
%ADD25RoundRect,0.140000X-0.170000X0.140000X-0.170000X-0.140000X0.170000X-0.140000X0.170000X0.140000X0*%
%ADD26RoundRect,0.140000X0.170000X-0.140000X0.170000X0.140000X-0.170000X0.140000X-0.170000X-0.140000X0*%
%ADD27RoundRect,0.135000X-0.135000X-0.185000X0.135000X-0.185000X0.135000X0.185000X-0.135000X0.185000X0*%
%ADD28RoundRect,0.135000X0.135000X0.185000X-0.135000X0.185000X-0.135000X-0.185000X0.135000X-0.185000X0*%
%ADD29RoundRect,0.135000X-0.185000X0.135000X-0.185000X-0.135000X0.185000X-0.135000X0.185000X0.135000X0*%
%ADD30RoundRect,0.150000X-0.512500X-0.150000X0.512500X-0.150000X0.512500X0.150000X-0.512500X0.150000X0*%
%ADD31RoundRect,0.150000X0.650000X0.150000X-0.650000X0.150000X-0.650000X-0.150000X0.650000X-0.150000X0*%
%ADD32RoundRect,0.050000X0.387500X0.050000X-0.387500X0.050000X-0.387500X-0.050000X0.387500X-0.050000X0*%
%ADD33RoundRect,0.050000X0.050000X0.387500X-0.050000X0.387500X-0.050000X-0.387500X0.050000X-0.387500X0*%
%ADD34RoundRect,0.144000X1.456000X1.456000X-1.456000X1.456000X-1.456000X-1.456000X1.456000X-1.456000X0*%
%ADD35R,1.400000X1.200000*%
%ADD36RoundRect,0.140000X-0.140000X-0.170000X0.140000X-0.170000X0.140000X0.170000X-0.140000X0.170000X0*%
%ADD37RoundRect,0.135000X0.185000X-0.135000X0.185000X0.135000X-0.185000X0.135000X-0.185000X-0.135000X0*%
%ADD38C,6.000000*%
%ADD39RoundRect,0.225000X0.250000X-0.225000X0.250000X0.225000X-0.250000X0.225000X-0.250000X-0.225000X0*%
%ADD40R,0.300000X1.100000*%
%ADD41R,2.300000X3.100000*%
%ADD42RoundRect,0.225000X-0.250000X0.225000X-0.250000X-0.225000X0.250000X-0.225000X0.250000X0.225000X0*%
G04 APERTURE END LIST*
D10*
X61604902Y-67869766D02*
X61604902Y-67869766D01*
X96253701Y-99207421D02*
X96253701Y-99207421D01*
X207650179Y-79340530D02*
X207650179Y-79340530D01*
X67044603Y-99207421D02*
X67044603Y-99207421D01*
X160539031Y-143789665D02*
X160539031Y-143789665D01*
X146102209Y-79284986D02*
X146102209Y-79284986D01*
X125107979Y-99207421D02*
X125107979Y-99207421D01*
X151715416Y-110323426D02*
X151715416Y-110323426D01*
X236740985Y-79222280D02*
X236740985Y-79222280D01*
X119549970Y-67751518D02*
X119549970Y-67751518D01*
X90577433Y-67633258D02*
X90577433Y-67633258D01*
D11*
X113909285Y-92044819D02*
X113909285Y-91044819D01*
X113909285Y-91044819D02*
X113671190Y-91044819D01*
X113671190Y-91044819D02*
X113528333Y-91092438D01*
X113528333Y-91092438D02*
X113433095Y-91187676D01*
X113433095Y-91187676D02*
X113385476Y-91282914D01*
X113385476Y-91282914D02*
X113337857Y-91473390D01*
X113337857Y-91473390D02*
X113337857Y-91616247D01*
X113337857Y-91616247D02*
X113385476Y-91806723D01*
X113385476Y-91806723D02*
X113433095Y-91901961D01*
X113433095Y-91901961D02*
X113528333Y-91997200D01*
X113528333Y-91997200D02*
X113671190Y-92044819D01*
X113671190Y-92044819D02*
X113909285Y-92044819D01*
X112385476Y-92044819D02*
X112956904Y-92044819D01*
X112671190Y-92044819D02*
X112671190Y-91044819D01*
X112671190Y-91044819D02*
X112766428Y-91187676D01*
X112766428Y-91187676D02*
X112861666Y-91282914D01*
X112861666Y-91282914D02*
X112956904Y-91330533D01*
X111480714Y-91044819D02*
X111956904Y-91044819D01*
X111956904Y-91044819D02*
X112004523Y-91521009D01*
X112004523Y-91521009D02*
X111956904Y-91473390D01*
X111956904Y-91473390D02*
X111861666Y-91425771D01*
X111861666Y-91425771D02*
X111623571Y-91425771D01*
X111623571Y-91425771D02*
X111528333Y-91473390D01*
X111528333Y-91473390D02*
X111480714Y-91521009D01*
X111480714Y-91521009D02*
X111433095Y-91616247D01*
X111433095Y-91616247D02*
X111433095Y-91854342D01*
X111433095Y-91854342D02*
X111480714Y-91949580D01*
X111480714Y-91949580D02*
X111528333Y-91997200D01*
X111528333Y-91997200D02*
X111623571Y-92044819D01*
X111623571Y-92044819D02*
X111861666Y-92044819D01*
X111861666Y-92044819D02*
X111956904Y-91997200D01*
X111956904Y-91997200D02*
X112004523Y-91949580D01*
X142759285Y-92044819D02*
X142759285Y-91044819D01*
X142759285Y-91044819D02*
X142521190Y-91044819D01*
X142521190Y-91044819D02*
X142378333Y-91092438D01*
X142378333Y-91092438D02*
X142283095Y-91187676D01*
X142283095Y-91187676D02*
X142235476Y-91282914D01*
X142235476Y-91282914D02*
X142187857Y-91473390D01*
X142187857Y-91473390D02*
X142187857Y-91616247D01*
X142187857Y-91616247D02*
X142235476Y-91806723D01*
X142235476Y-91806723D02*
X142283095Y-91901961D01*
X142283095Y-91901961D02*
X142378333Y-91997200D01*
X142378333Y-91997200D02*
X142521190Y-92044819D01*
X142521190Y-92044819D02*
X142759285Y-92044819D01*
X141235476Y-92044819D02*
X141806904Y-92044819D01*
X141521190Y-92044819D02*
X141521190Y-91044819D01*
X141521190Y-91044819D02*
X141616428Y-91187676D01*
X141616428Y-91187676D02*
X141711666Y-91282914D01*
X141711666Y-91282914D02*
X141806904Y-91330533D01*
X140378333Y-91378152D02*
X140378333Y-92044819D01*
X140616428Y-90997200D02*
X140854523Y-91711485D01*
X140854523Y-91711485D02*
X140235476Y-91711485D01*
X84699285Y-92044819D02*
X84699285Y-91044819D01*
X84699285Y-91044819D02*
X84461190Y-91044819D01*
X84461190Y-91044819D02*
X84318333Y-91092438D01*
X84318333Y-91092438D02*
X84223095Y-91187676D01*
X84223095Y-91187676D02*
X84175476Y-91282914D01*
X84175476Y-91282914D02*
X84127857Y-91473390D01*
X84127857Y-91473390D02*
X84127857Y-91616247D01*
X84127857Y-91616247D02*
X84175476Y-91806723D01*
X84175476Y-91806723D02*
X84223095Y-91901961D01*
X84223095Y-91901961D02*
X84318333Y-91997200D01*
X84318333Y-91997200D02*
X84461190Y-92044819D01*
X84461190Y-92044819D02*
X84699285Y-92044819D01*
X83175476Y-92044819D02*
X83746904Y-92044819D01*
X83461190Y-92044819D02*
X83461190Y-91044819D01*
X83461190Y-91044819D02*
X83556428Y-91187676D01*
X83556428Y-91187676D02*
X83651666Y-91282914D01*
X83651666Y-91282914D02*
X83746904Y-91330533D01*
X82318333Y-91044819D02*
X82508809Y-91044819D01*
X82508809Y-91044819D02*
X82604047Y-91092438D01*
X82604047Y-91092438D02*
X82651666Y-91140057D01*
X82651666Y-91140057D02*
X82746904Y-91282914D01*
X82746904Y-91282914D02*
X82794523Y-91473390D01*
X82794523Y-91473390D02*
X82794523Y-91854342D01*
X82794523Y-91854342D02*
X82746904Y-91949580D01*
X82746904Y-91949580D02*
X82699285Y-91997200D01*
X82699285Y-91997200D02*
X82604047Y-92044819D01*
X82604047Y-92044819D02*
X82413571Y-92044819D01*
X82413571Y-92044819D02*
X82318333Y-91997200D01*
X82318333Y-91997200D02*
X82270714Y-91949580D01*
X82270714Y-91949580D02*
X82223095Y-91854342D01*
X82223095Y-91854342D02*
X82223095Y-91616247D01*
X82223095Y-91616247D02*
X82270714Y-91521009D01*
X82270714Y-91521009D02*
X82318333Y-91473390D01*
X82318333Y-91473390D02*
X82413571Y-91425771D01*
X82413571Y-91425771D02*
X82604047Y-91425771D01*
X82604047Y-91425771D02*
X82699285Y-91473390D01*
X82699285Y-91473390D02*
X82746904Y-91521009D01*
X82746904Y-91521009D02*
X82794523Y-91616247D01*
X136723094Y-60584819D02*
X136723094Y-59584819D01*
X136723094Y-59584819D02*
X136484999Y-59584819D01*
X136484999Y-59584819D02*
X136342142Y-59632438D01*
X136342142Y-59632438D02*
X136246904Y-59727676D01*
X136246904Y-59727676D02*
X136199285Y-59822914D01*
X136199285Y-59822914D02*
X136151666Y-60013390D01*
X136151666Y-60013390D02*
X136151666Y-60156247D01*
X136151666Y-60156247D02*
X136199285Y-60346723D01*
X136199285Y-60346723D02*
X136246904Y-60441961D01*
X136246904Y-60441961D02*
X136342142Y-60537200D01*
X136342142Y-60537200D02*
X136484999Y-60584819D01*
X136484999Y-60584819D02*
X136723094Y-60584819D01*
X135294523Y-59584819D02*
X135484999Y-59584819D01*
X135484999Y-59584819D02*
X135580237Y-59632438D01*
X135580237Y-59632438D02*
X135627856Y-59680057D01*
X135627856Y-59680057D02*
X135723094Y-59822914D01*
X135723094Y-59822914D02*
X135770713Y-60013390D01*
X135770713Y-60013390D02*
X135770713Y-60394342D01*
X135770713Y-60394342D02*
X135723094Y-60489580D01*
X135723094Y-60489580D02*
X135675475Y-60537200D01*
X135675475Y-60537200D02*
X135580237Y-60584819D01*
X135580237Y-60584819D02*
X135389761Y-60584819D01*
X135389761Y-60584819D02*
X135294523Y-60537200D01*
X135294523Y-60537200D02*
X135246904Y-60489580D01*
X135246904Y-60489580D02*
X135199285Y-60394342D01*
X135199285Y-60394342D02*
X135199285Y-60156247D01*
X135199285Y-60156247D02*
X135246904Y-60061009D01*
X135246904Y-60061009D02*
X135294523Y-60013390D01*
X135294523Y-60013390D02*
X135389761Y-59965771D01*
X135389761Y-59965771D02*
X135580237Y-59965771D01*
X135580237Y-59965771D02*
X135675475Y-60013390D01*
X135675475Y-60013390D02*
X135723094Y-60061009D01*
X135723094Y-60061009D02*
X135770713Y-60156247D01*
X163283094Y-72114819D02*
X163283094Y-71114819D01*
X163283094Y-71114819D02*
X163044999Y-71114819D01*
X163044999Y-71114819D02*
X162902142Y-71162438D01*
X162902142Y-71162438D02*
X162806904Y-71257676D01*
X162806904Y-71257676D02*
X162759285Y-71352914D01*
X162759285Y-71352914D02*
X162711666Y-71543390D01*
X162711666Y-71543390D02*
X162711666Y-71686247D01*
X162711666Y-71686247D02*
X162759285Y-71876723D01*
X162759285Y-71876723D02*
X162806904Y-71971961D01*
X162806904Y-71971961D02*
X162902142Y-72067200D01*
X162902142Y-72067200D02*
X163044999Y-72114819D01*
X163044999Y-72114819D02*
X163283094Y-72114819D01*
X161806904Y-71114819D02*
X162283094Y-71114819D01*
X162283094Y-71114819D02*
X162330713Y-71591009D01*
X162330713Y-71591009D02*
X162283094Y-71543390D01*
X162283094Y-71543390D02*
X162187856Y-71495771D01*
X162187856Y-71495771D02*
X161949761Y-71495771D01*
X161949761Y-71495771D02*
X161854523Y-71543390D01*
X161854523Y-71543390D02*
X161806904Y-71591009D01*
X161806904Y-71591009D02*
X161759285Y-71686247D01*
X161759285Y-71686247D02*
X161759285Y-71924342D01*
X161759285Y-71924342D02*
X161806904Y-72019580D01*
X161806904Y-72019580D02*
X161854523Y-72067200D01*
X161854523Y-72067200D02*
X161949761Y-72114819D01*
X161949761Y-72114819D02*
X162187856Y-72114819D01*
X162187856Y-72114819D02*
X162283094Y-72067200D01*
X162283094Y-72067200D02*
X162330713Y-72019580D01*
X180723094Y-136624819D02*
X180723094Y-135624819D01*
X180723094Y-135624819D02*
X180484999Y-135624819D01*
X180484999Y-135624819D02*
X180342142Y-135672438D01*
X180342142Y-135672438D02*
X180246904Y-135767676D01*
X180246904Y-135767676D02*
X180199285Y-135862914D01*
X180199285Y-135862914D02*
X180151666Y-136053390D01*
X180151666Y-136053390D02*
X180151666Y-136196247D01*
X180151666Y-136196247D02*
X180199285Y-136386723D01*
X180199285Y-136386723D02*
X180246904Y-136481961D01*
X180246904Y-136481961D02*
X180342142Y-136577200D01*
X180342142Y-136577200D02*
X180484999Y-136624819D01*
X180484999Y-136624819D02*
X180723094Y-136624819D01*
X179199285Y-136624819D02*
X179770713Y-136624819D01*
X179484999Y-136624819D02*
X179484999Y-135624819D01*
X179484999Y-135624819D02*
X179580237Y-135767676D01*
X179580237Y-135767676D02*
X179675475Y-135862914D01*
X179675475Y-135862914D02*
X179770713Y-135910533D01*
X198223094Y-83524819D02*
X198223094Y-82524819D01*
X198223094Y-82524819D02*
X197984999Y-82524819D01*
X197984999Y-82524819D02*
X197842142Y-82572438D01*
X197842142Y-82572438D02*
X197746904Y-82667676D01*
X197746904Y-82667676D02*
X197699285Y-82762914D01*
X197699285Y-82762914D02*
X197651666Y-82953390D01*
X197651666Y-82953390D02*
X197651666Y-83096247D01*
X197651666Y-83096247D02*
X197699285Y-83286723D01*
X197699285Y-83286723D02*
X197746904Y-83381961D01*
X197746904Y-83381961D02*
X197842142Y-83477200D01*
X197842142Y-83477200D02*
X197984999Y-83524819D01*
X197984999Y-83524819D02*
X198223094Y-83524819D01*
X196794523Y-82858152D02*
X196794523Y-83524819D01*
X197032618Y-82477200D02*
X197270713Y-83191485D01*
X197270713Y-83191485D02*
X196651666Y-83191485D01*
X253918094Y-72054819D02*
X253918094Y-71054819D01*
X253918094Y-71054819D02*
X253679999Y-71054819D01*
X253679999Y-71054819D02*
X253537142Y-71102438D01*
X253537142Y-71102438D02*
X253441904Y-71197676D01*
X253441904Y-71197676D02*
X253394285Y-71292914D01*
X253394285Y-71292914D02*
X253346666Y-71483390D01*
X253346666Y-71483390D02*
X253346666Y-71626247D01*
X253346666Y-71626247D02*
X253394285Y-71816723D01*
X253394285Y-71816723D02*
X253441904Y-71911961D01*
X253441904Y-71911961D02*
X253537142Y-72007200D01*
X253537142Y-72007200D02*
X253679999Y-72054819D01*
X253679999Y-72054819D02*
X253918094Y-72054819D01*
X252965713Y-71150057D02*
X252918094Y-71102438D01*
X252918094Y-71102438D02*
X252822856Y-71054819D01*
X252822856Y-71054819D02*
X252584761Y-71054819D01*
X252584761Y-71054819D02*
X252489523Y-71102438D01*
X252489523Y-71102438D02*
X252441904Y-71150057D01*
X252441904Y-71150057D02*
X252394285Y-71245295D01*
X252394285Y-71245295D02*
X252394285Y-71340533D01*
X252394285Y-71340533D02*
X252441904Y-71483390D01*
X252441904Y-71483390D02*
X253013332Y-72054819D01*
X253013332Y-72054819D02*
X252394285Y-72054819D01*
X169369285Y-103154819D02*
X169369285Y-102154819D01*
X169369285Y-102154819D02*
X169131190Y-102154819D01*
X169131190Y-102154819D02*
X168988333Y-102202438D01*
X168988333Y-102202438D02*
X168893095Y-102297676D01*
X168893095Y-102297676D02*
X168845476Y-102392914D01*
X168845476Y-102392914D02*
X168797857Y-102583390D01*
X168797857Y-102583390D02*
X168797857Y-102726247D01*
X168797857Y-102726247D02*
X168845476Y-102916723D01*
X168845476Y-102916723D02*
X168893095Y-103011961D01*
X168893095Y-103011961D02*
X168988333Y-103107200D01*
X168988333Y-103107200D02*
X169131190Y-103154819D01*
X169131190Y-103154819D02*
X169369285Y-103154819D01*
X167845476Y-103154819D02*
X168416904Y-103154819D01*
X168131190Y-103154819D02*
X168131190Y-102154819D01*
X168131190Y-102154819D02*
X168226428Y-102297676D01*
X168226428Y-102297676D02*
X168321666Y-102392914D01*
X168321666Y-102392914D02*
X168416904Y-102440533D01*
X167512142Y-102154819D02*
X166893095Y-102154819D01*
X166893095Y-102154819D02*
X167226428Y-102535771D01*
X167226428Y-102535771D02*
X167083571Y-102535771D01*
X167083571Y-102535771D02*
X166988333Y-102583390D01*
X166988333Y-102583390D02*
X166940714Y-102631009D01*
X166940714Y-102631009D02*
X166893095Y-102726247D01*
X166893095Y-102726247D02*
X166893095Y-102964342D01*
X166893095Y-102964342D02*
X166940714Y-103059580D01*
X166940714Y-103059580D02*
X166988333Y-103107200D01*
X166988333Y-103107200D02*
X167083571Y-103154819D01*
X167083571Y-103154819D02*
X167369285Y-103154819D01*
X167369285Y-103154819D02*
X167464523Y-103107200D01*
X167464523Y-103107200D02*
X167512142Y-103059580D01*
X224823094Y-72174819D02*
X224823094Y-71174819D01*
X224823094Y-71174819D02*
X224584999Y-71174819D01*
X224584999Y-71174819D02*
X224442142Y-71222438D01*
X224442142Y-71222438D02*
X224346904Y-71317676D01*
X224346904Y-71317676D02*
X224299285Y-71412914D01*
X224299285Y-71412914D02*
X224251666Y-71603390D01*
X224251666Y-71603390D02*
X224251666Y-71746247D01*
X224251666Y-71746247D02*
X224299285Y-71936723D01*
X224299285Y-71936723D02*
X224346904Y-72031961D01*
X224346904Y-72031961D02*
X224442142Y-72127200D01*
X224442142Y-72127200D02*
X224584999Y-72174819D01*
X224584999Y-72174819D02*
X224823094Y-72174819D01*
X223918332Y-71174819D02*
X223299285Y-71174819D01*
X223299285Y-71174819D02*
X223632618Y-71555771D01*
X223632618Y-71555771D02*
X223489761Y-71555771D01*
X223489761Y-71555771D02*
X223394523Y-71603390D01*
X223394523Y-71603390D02*
X223346904Y-71651009D01*
X223346904Y-71651009D02*
X223299285Y-71746247D01*
X223299285Y-71746247D02*
X223299285Y-71984342D01*
X223299285Y-71984342D02*
X223346904Y-72079580D01*
X223346904Y-72079580D02*
X223394523Y-72127200D01*
X223394523Y-72127200D02*
X223489761Y-72174819D01*
X223489761Y-72174819D02*
X223775475Y-72174819D01*
X223775475Y-72174819D02*
X223870713Y-72127200D01*
X223870713Y-72127200D02*
X223918332Y-72079580D01*
X107753094Y-60464819D02*
X107753094Y-59464819D01*
X107753094Y-59464819D02*
X107514999Y-59464819D01*
X107514999Y-59464819D02*
X107372142Y-59512438D01*
X107372142Y-59512438D02*
X107276904Y-59607676D01*
X107276904Y-59607676D02*
X107229285Y-59702914D01*
X107229285Y-59702914D02*
X107181666Y-59893390D01*
X107181666Y-59893390D02*
X107181666Y-60036247D01*
X107181666Y-60036247D02*
X107229285Y-60226723D01*
X107229285Y-60226723D02*
X107276904Y-60321961D01*
X107276904Y-60321961D02*
X107372142Y-60417200D01*
X107372142Y-60417200D02*
X107514999Y-60464819D01*
X107514999Y-60464819D02*
X107753094Y-60464819D01*
X106848332Y-59464819D02*
X106181666Y-59464819D01*
X106181666Y-59464819D02*
X106610237Y-60464819D01*
X79259285Y-60704819D02*
X79259285Y-59704819D01*
X79259285Y-59704819D02*
X79021190Y-59704819D01*
X79021190Y-59704819D02*
X78878333Y-59752438D01*
X78878333Y-59752438D02*
X78783095Y-59847676D01*
X78783095Y-59847676D02*
X78735476Y-59942914D01*
X78735476Y-59942914D02*
X78687857Y-60133390D01*
X78687857Y-60133390D02*
X78687857Y-60276247D01*
X78687857Y-60276247D02*
X78735476Y-60466723D01*
X78735476Y-60466723D02*
X78783095Y-60561961D01*
X78783095Y-60561961D02*
X78878333Y-60657200D01*
X78878333Y-60657200D02*
X79021190Y-60704819D01*
X79021190Y-60704819D02*
X79259285Y-60704819D01*
X77735476Y-60704819D02*
X78306904Y-60704819D01*
X78021190Y-60704819D02*
X78021190Y-59704819D01*
X78021190Y-59704819D02*
X78116428Y-59847676D01*
X78116428Y-59847676D02*
X78211666Y-59942914D01*
X78211666Y-59942914D02*
X78306904Y-59990533D01*
X77354523Y-59800057D02*
X77306904Y-59752438D01*
X77306904Y-59752438D02*
X77211666Y-59704819D01*
X77211666Y-59704819D02*
X76973571Y-59704819D01*
X76973571Y-59704819D02*
X76878333Y-59752438D01*
X76878333Y-59752438D02*
X76830714Y-59800057D01*
X76830714Y-59800057D02*
X76783095Y-59895295D01*
X76783095Y-59895295D02*
X76783095Y-59990533D01*
X76783095Y-59990533D02*
X76830714Y-60133390D01*
X76830714Y-60133390D02*
X77402142Y-60704819D01*
X77402142Y-60704819D02*
X76783095Y-60704819D01*
X157833332Y-58886104D02*
X157871428Y-58924200D01*
X157871428Y-58924200D02*
X157985713Y-58962295D01*
X157985713Y-58962295D02*
X158061904Y-58962295D01*
X158061904Y-58962295D02*
X158176190Y-58924200D01*
X158176190Y-58924200D02*
X158252380Y-58848009D01*
X158252380Y-58848009D02*
X158290475Y-58771819D01*
X158290475Y-58771819D02*
X158328571Y-58619438D01*
X158328571Y-58619438D02*
X158328571Y-58505152D01*
X158328571Y-58505152D02*
X158290475Y-58352771D01*
X158290475Y-58352771D02*
X158252380Y-58276580D01*
X158252380Y-58276580D02*
X158176190Y-58200390D01*
X158176190Y-58200390D02*
X158061904Y-58162295D01*
X158061904Y-58162295D02*
X157985713Y-58162295D01*
X157985713Y-58162295D02*
X157871428Y-58200390D01*
X157871428Y-58200390D02*
X157833332Y-58238485D01*
X157071428Y-58962295D02*
X157528571Y-58962295D01*
X157299999Y-58962295D02*
X157299999Y-58162295D01*
X157299999Y-58162295D02*
X157376190Y-58276580D01*
X157376190Y-58276580D02*
X157452380Y-58352771D01*
X157452380Y-58352771D02*
X157528571Y-58390866D01*
X181233332Y-78986104D02*
X181271428Y-79024200D01*
X181271428Y-79024200D02*
X181385713Y-79062295D01*
X181385713Y-79062295D02*
X181461904Y-79062295D01*
X181461904Y-79062295D02*
X181576190Y-79024200D01*
X181576190Y-79024200D02*
X181652380Y-78948009D01*
X181652380Y-78948009D02*
X181690475Y-78871819D01*
X181690475Y-78871819D02*
X181728571Y-78719438D01*
X181728571Y-78719438D02*
X181728571Y-78605152D01*
X181728571Y-78605152D02*
X181690475Y-78452771D01*
X181690475Y-78452771D02*
X181652380Y-78376580D01*
X181652380Y-78376580D02*
X181576190Y-78300390D01*
X181576190Y-78300390D02*
X181461904Y-78262295D01*
X181461904Y-78262295D02*
X181385713Y-78262295D01*
X181385713Y-78262295D02*
X181271428Y-78300390D01*
X181271428Y-78300390D02*
X181233332Y-78338485D01*
X180928571Y-78338485D02*
X180890475Y-78300390D01*
X180890475Y-78300390D02*
X180814285Y-78262295D01*
X180814285Y-78262295D02*
X180623809Y-78262295D01*
X180623809Y-78262295D02*
X180547618Y-78300390D01*
X180547618Y-78300390D02*
X180509523Y-78338485D01*
X180509523Y-78338485D02*
X180471428Y-78414676D01*
X180471428Y-78414676D02*
X180471428Y-78490866D01*
X180471428Y-78490866D02*
X180509523Y-78605152D01*
X180509523Y-78605152D02*
X180966666Y-79062295D01*
X180966666Y-79062295D02*
X180471428Y-79062295D01*
X166036104Y-62636667D02*
X166074200Y-62598571D01*
X166074200Y-62598571D02*
X166112295Y-62484286D01*
X166112295Y-62484286D02*
X166112295Y-62408095D01*
X166112295Y-62408095D02*
X166074200Y-62293809D01*
X166074200Y-62293809D02*
X165998009Y-62217619D01*
X165998009Y-62217619D02*
X165921819Y-62179524D01*
X165921819Y-62179524D02*
X165769438Y-62141428D01*
X165769438Y-62141428D02*
X165655152Y-62141428D01*
X165655152Y-62141428D02*
X165502771Y-62179524D01*
X165502771Y-62179524D02*
X165426580Y-62217619D01*
X165426580Y-62217619D02*
X165350390Y-62293809D01*
X165350390Y-62293809D02*
X165312295Y-62408095D01*
X165312295Y-62408095D02*
X165312295Y-62484286D01*
X165312295Y-62484286D02*
X165350390Y-62598571D01*
X165350390Y-62598571D02*
X165388485Y-62636667D01*
X165578961Y-63322381D02*
X166112295Y-63322381D01*
X165274200Y-63131905D02*
X165845628Y-62941428D01*
X165845628Y-62941428D02*
X165845628Y-63436667D01*
X182486104Y-65266667D02*
X182524200Y-65228571D01*
X182524200Y-65228571D02*
X182562295Y-65114286D01*
X182562295Y-65114286D02*
X182562295Y-65038095D01*
X182562295Y-65038095D02*
X182524200Y-64923809D01*
X182524200Y-64923809D02*
X182448009Y-64847619D01*
X182448009Y-64847619D02*
X182371819Y-64809524D01*
X182371819Y-64809524D02*
X182219438Y-64771428D01*
X182219438Y-64771428D02*
X182105152Y-64771428D01*
X182105152Y-64771428D02*
X181952771Y-64809524D01*
X181952771Y-64809524D02*
X181876580Y-64847619D01*
X181876580Y-64847619D02*
X181800390Y-64923809D01*
X181800390Y-64923809D02*
X181762295Y-65038095D01*
X181762295Y-65038095D02*
X181762295Y-65114286D01*
X181762295Y-65114286D02*
X181800390Y-65228571D01*
X181800390Y-65228571D02*
X181838485Y-65266667D01*
X181762295Y-65990476D02*
X181762295Y-65609524D01*
X181762295Y-65609524D02*
X182143247Y-65571428D01*
X182143247Y-65571428D02*
X182105152Y-65609524D01*
X182105152Y-65609524D02*
X182067057Y-65685714D01*
X182067057Y-65685714D02*
X182067057Y-65876190D01*
X182067057Y-65876190D02*
X182105152Y-65952381D01*
X182105152Y-65952381D02*
X182143247Y-65990476D01*
X182143247Y-65990476D02*
X182219438Y-66028571D01*
X182219438Y-66028571D02*
X182409914Y-66028571D01*
X182409914Y-66028571D02*
X182486104Y-65990476D01*
X182486104Y-65990476D02*
X182524200Y-65952381D01*
X182524200Y-65952381D02*
X182562295Y-65876190D01*
X182562295Y-65876190D02*
X182562295Y-65685714D01*
X182562295Y-65685714D02*
X182524200Y-65609524D01*
X182524200Y-65609524D02*
X182486104Y-65571428D01*
X173686104Y-62766667D02*
X173724200Y-62728571D01*
X173724200Y-62728571D02*
X173762295Y-62614286D01*
X173762295Y-62614286D02*
X173762295Y-62538095D01*
X173762295Y-62538095D02*
X173724200Y-62423809D01*
X173724200Y-62423809D02*
X173648009Y-62347619D01*
X173648009Y-62347619D02*
X173571819Y-62309524D01*
X173571819Y-62309524D02*
X173419438Y-62271428D01*
X173419438Y-62271428D02*
X173305152Y-62271428D01*
X173305152Y-62271428D02*
X173152771Y-62309524D01*
X173152771Y-62309524D02*
X173076580Y-62347619D01*
X173076580Y-62347619D02*
X173000390Y-62423809D01*
X173000390Y-62423809D02*
X172962295Y-62538095D01*
X172962295Y-62538095D02*
X172962295Y-62614286D01*
X172962295Y-62614286D02*
X173000390Y-62728571D01*
X173000390Y-62728571D02*
X173038485Y-62766667D01*
X172962295Y-63452381D02*
X172962295Y-63300000D01*
X172962295Y-63300000D02*
X173000390Y-63223809D01*
X173000390Y-63223809D02*
X173038485Y-63185714D01*
X173038485Y-63185714D02*
X173152771Y-63109524D01*
X173152771Y-63109524D02*
X173305152Y-63071428D01*
X173305152Y-63071428D02*
X173609914Y-63071428D01*
X173609914Y-63071428D02*
X173686104Y-63109524D01*
X173686104Y-63109524D02*
X173724200Y-63147619D01*
X173724200Y-63147619D02*
X173762295Y-63223809D01*
X173762295Y-63223809D02*
X173762295Y-63376190D01*
X173762295Y-63376190D02*
X173724200Y-63452381D01*
X173724200Y-63452381D02*
X173686104Y-63490476D01*
X173686104Y-63490476D02*
X173609914Y-63528571D01*
X173609914Y-63528571D02*
X173419438Y-63528571D01*
X173419438Y-63528571D02*
X173343247Y-63490476D01*
X173343247Y-63490476D02*
X173305152Y-63452381D01*
X173305152Y-63452381D02*
X173267057Y-63376190D01*
X173267057Y-63376190D02*
X173267057Y-63223809D01*
X173267057Y-63223809D02*
X173305152Y-63147619D01*
X173305152Y-63147619D02*
X173343247Y-63109524D01*
X173343247Y-63109524D02*
X173419438Y-63071428D01*
X172957748Y-77416667D02*
X172995844Y-77378571D01*
X172995844Y-77378571D02*
X173033939Y-77264286D01*
X173033939Y-77264286D02*
X173033939Y-77188095D01*
X173033939Y-77188095D02*
X172995844Y-77073809D01*
X172995844Y-77073809D02*
X172919653Y-76997619D01*
X172919653Y-76997619D02*
X172843463Y-76959524D01*
X172843463Y-76959524D02*
X172691082Y-76921428D01*
X172691082Y-76921428D02*
X172576796Y-76921428D01*
X172576796Y-76921428D02*
X172424415Y-76959524D01*
X172424415Y-76959524D02*
X172348224Y-76997619D01*
X172348224Y-76997619D02*
X172272034Y-77073809D01*
X172272034Y-77073809D02*
X172233939Y-77188095D01*
X172233939Y-77188095D02*
X172233939Y-77264286D01*
X172233939Y-77264286D02*
X172272034Y-77378571D01*
X172272034Y-77378571D02*
X172310129Y-77416667D01*
X172233939Y-77683333D02*
X172233939Y-78216667D01*
X172233939Y-78216667D02*
X173033939Y-77873809D01*
X178236104Y-62816667D02*
X178274200Y-62778571D01*
X178274200Y-62778571D02*
X178312295Y-62664286D01*
X178312295Y-62664286D02*
X178312295Y-62588095D01*
X178312295Y-62588095D02*
X178274200Y-62473809D01*
X178274200Y-62473809D02*
X178198009Y-62397619D01*
X178198009Y-62397619D02*
X178121819Y-62359524D01*
X178121819Y-62359524D02*
X177969438Y-62321428D01*
X177969438Y-62321428D02*
X177855152Y-62321428D01*
X177855152Y-62321428D02*
X177702771Y-62359524D01*
X177702771Y-62359524D02*
X177626580Y-62397619D01*
X177626580Y-62397619D02*
X177550390Y-62473809D01*
X177550390Y-62473809D02*
X177512295Y-62588095D01*
X177512295Y-62588095D02*
X177512295Y-62664286D01*
X177512295Y-62664286D02*
X177550390Y-62778571D01*
X177550390Y-62778571D02*
X177588485Y-62816667D01*
X177855152Y-63273809D02*
X177817057Y-63197619D01*
X177817057Y-63197619D02*
X177778961Y-63159524D01*
X177778961Y-63159524D02*
X177702771Y-63121428D01*
X177702771Y-63121428D02*
X177664676Y-63121428D01*
X177664676Y-63121428D02*
X177588485Y-63159524D01*
X177588485Y-63159524D02*
X177550390Y-63197619D01*
X177550390Y-63197619D02*
X177512295Y-63273809D01*
X177512295Y-63273809D02*
X177512295Y-63426190D01*
X177512295Y-63426190D02*
X177550390Y-63502381D01*
X177550390Y-63502381D02*
X177588485Y-63540476D01*
X177588485Y-63540476D02*
X177664676Y-63578571D01*
X177664676Y-63578571D02*
X177702771Y-63578571D01*
X177702771Y-63578571D02*
X177778961Y-63540476D01*
X177778961Y-63540476D02*
X177817057Y-63502381D01*
X177817057Y-63502381D02*
X177855152Y-63426190D01*
X177855152Y-63426190D02*
X177855152Y-63273809D01*
X177855152Y-63273809D02*
X177893247Y-63197619D01*
X177893247Y-63197619D02*
X177931342Y-63159524D01*
X177931342Y-63159524D02*
X178007533Y-63121428D01*
X178007533Y-63121428D02*
X178159914Y-63121428D01*
X178159914Y-63121428D02*
X178236104Y-63159524D01*
X178236104Y-63159524D02*
X178274200Y-63197619D01*
X178274200Y-63197619D02*
X178312295Y-63273809D01*
X178312295Y-63273809D02*
X178312295Y-63426190D01*
X178312295Y-63426190D02*
X178274200Y-63502381D01*
X178274200Y-63502381D02*
X178236104Y-63540476D01*
X178236104Y-63540476D02*
X178159914Y-63578571D01*
X178159914Y-63578571D02*
X178007533Y-63578571D01*
X178007533Y-63578571D02*
X177931342Y-63540476D01*
X177931342Y-63540476D02*
X177893247Y-63502381D01*
X177893247Y-63502381D02*
X177855152Y-63426190D01*
X177086104Y-62716667D02*
X177124200Y-62678571D01*
X177124200Y-62678571D02*
X177162295Y-62564286D01*
X177162295Y-62564286D02*
X177162295Y-62488095D01*
X177162295Y-62488095D02*
X177124200Y-62373809D01*
X177124200Y-62373809D02*
X177048009Y-62297619D01*
X177048009Y-62297619D02*
X176971819Y-62259524D01*
X176971819Y-62259524D02*
X176819438Y-62221428D01*
X176819438Y-62221428D02*
X176705152Y-62221428D01*
X176705152Y-62221428D02*
X176552771Y-62259524D01*
X176552771Y-62259524D02*
X176476580Y-62297619D01*
X176476580Y-62297619D02*
X176400390Y-62373809D01*
X176400390Y-62373809D02*
X176362295Y-62488095D01*
X176362295Y-62488095D02*
X176362295Y-62564286D01*
X176362295Y-62564286D02*
X176400390Y-62678571D01*
X176400390Y-62678571D02*
X176438485Y-62716667D01*
X177162295Y-63097619D02*
X177162295Y-63250000D01*
X177162295Y-63250000D02*
X177124200Y-63326190D01*
X177124200Y-63326190D02*
X177086104Y-63364286D01*
X177086104Y-63364286D02*
X176971819Y-63440476D01*
X176971819Y-63440476D02*
X176819438Y-63478571D01*
X176819438Y-63478571D02*
X176514676Y-63478571D01*
X176514676Y-63478571D02*
X176438485Y-63440476D01*
X176438485Y-63440476D02*
X176400390Y-63402381D01*
X176400390Y-63402381D02*
X176362295Y-63326190D01*
X176362295Y-63326190D02*
X176362295Y-63173809D01*
X176362295Y-63173809D02*
X176400390Y-63097619D01*
X176400390Y-63097619D02*
X176438485Y-63059524D01*
X176438485Y-63059524D02*
X176514676Y-63021428D01*
X176514676Y-63021428D02*
X176705152Y-63021428D01*
X176705152Y-63021428D02*
X176781342Y-63059524D01*
X176781342Y-63059524D02*
X176819438Y-63097619D01*
X176819438Y-63097619D02*
X176857533Y-63173809D01*
X176857533Y-63173809D02*
X176857533Y-63326190D01*
X176857533Y-63326190D02*
X176819438Y-63402381D01*
X176819438Y-63402381D02*
X176781342Y-63440476D01*
X176781342Y-63440476D02*
X176705152Y-63478571D01*
X169014285Y-66786104D02*
X169052381Y-66824200D01*
X169052381Y-66824200D02*
X169166666Y-66862295D01*
X169166666Y-66862295D02*
X169242857Y-66862295D01*
X169242857Y-66862295D02*
X169357143Y-66824200D01*
X169357143Y-66824200D02*
X169433333Y-66748009D01*
X169433333Y-66748009D02*
X169471428Y-66671819D01*
X169471428Y-66671819D02*
X169509524Y-66519438D01*
X169509524Y-66519438D02*
X169509524Y-66405152D01*
X169509524Y-66405152D02*
X169471428Y-66252771D01*
X169471428Y-66252771D02*
X169433333Y-66176580D01*
X169433333Y-66176580D02*
X169357143Y-66100390D01*
X169357143Y-66100390D02*
X169242857Y-66062295D01*
X169242857Y-66062295D02*
X169166666Y-66062295D01*
X169166666Y-66062295D02*
X169052381Y-66100390D01*
X169052381Y-66100390D02*
X169014285Y-66138485D01*
X168252381Y-66862295D02*
X168709524Y-66862295D01*
X168480952Y-66862295D02*
X168480952Y-66062295D01*
X168480952Y-66062295D02*
X168557143Y-66176580D01*
X168557143Y-66176580D02*
X168633333Y-66252771D01*
X168633333Y-66252771D02*
X168709524Y-66290866D01*
X167757142Y-66062295D02*
X167680952Y-66062295D01*
X167680952Y-66062295D02*
X167604761Y-66100390D01*
X167604761Y-66100390D02*
X167566666Y-66138485D01*
X167566666Y-66138485D02*
X167528571Y-66214676D01*
X167528571Y-66214676D02*
X167490476Y-66367057D01*
X167490476Y-66367057D02*
X167490476Y-66557533D01*
X167490476Y-66557533D02*
X167528571Y-66709914D01*
X167528571Y-66709914D02*
X167566666Y-66786104D01*
X167566666Y-66786104D02*
X167604761Y-66824200D01*
X167604761Y-66824200D02*
X167680952Y-66862295D01*
X167680952Y-66862295D02*
X167757142Y-66862295D01*
X167757142Y-66862295D02*
X167833333Y-66824200D01*
X167833333Y-66824200D02*
X167871428Y-66786104D01*
X167871428Y-66786104D02*
X167909523Y-66709914D01*
X167909523Y-66709914D02*
X167947619Y-66557533D01*
X167947619Y-66557533D02*
X167947619Y-66367057D01*
X167947619Y-66367057D02*
X167909523Y-66214676D01*
X167909523Y-66214676D02*
X167871428Y-66138485D01*
X167871428Y-66138485D02*
X167833333Y-66100390D01*
X167833333Y-66100390D02*
X167757142Y-66062295D01*
X169014285Y-68936104D02*
X169052381Y-68974200D01*
X169052381Y-68974200D02*
X169166666Y-69012295D01*
X169166666Y-69012295D02*
X169242857Y-69012295D01*
X169242857Y-69012295D02*
X169357143Y-68974200D01*
X169357143Y-68974200D02*
X169433333Y-68898009D01*
X169433333Y-68898009D02*
X169471428Y-68821819D01*
X169471428Y-68821819D02*
X169509524Y-68669438D01*
X169509524Y-68669438D02*
X169509524Y-68555152D01*
X169509524Y-68555152D02*
X169471428Y-68402771D01*
X169471428Y-68402771D02*
X169433333Y-68326580D01*
X169433333Y-68326580D02*
X169357143Y-68250390D01*
X169357143Y-68250390D02*
X169242857Y-68212295D01*
X169242857Y-68212295D02*
X169166666Y-68212295D01*
X169166666Y-68212295D02*
X169052381Y-68250390D01*
X169052381Y-68250390D02*
X169014285Y-68288485D01*
X168252381Y-69012295D02*
X168709524Y-69012295D01*
X168480952Y-69012295D02*
X168480952Y-68212295D01*
X168480952Y-68212295D02*
X168557143Y-68326580D01*
X168557143Y-68326580D02*
X168633333Y-68402771D01*
X168633333Y-68402771D02*
X168709524Y-68440866D01*
X167528571Y-68212295D02*
X167909523Y-68212295D01*
X167909523Y-68212295D02*
X167947619Y-68593247D01*
X167947619Y-68593247D02*
X167909523Y-68555152D01*
X167909523Y-68555152D02*
X167833333Y-68517057D01*
X167833333Y-68517057D02*
X167642857Y-68517057D01*
X167642857Y-68517057D02*
X167566666Y-68555152D01*
X167566666Y-68555152D02*
X167528571Y-68593247D01*
X167528571Y-68593247D02*
X167490476Y-68669438D01*
X167490476Y-68669438D02*
X167490476Y-68859914D01*
X167490476Y-68859914D02*
X167528571Y-68936104D01*
X167528571Y-68936104D02*
X167566666Y-68974200D01*
X167566666Y-68974200D02*
X167642857Y-69012295D01*
X167642857Y-69012295D02*
X167833333Y-69012295D01*
X167833333Y-69012295D02*
X167909523Y-68974200D01*
X167909523Y-68974200D02*
X167947619Y-68936104D01*
X168964285Y-67836104D02*
X169002381Y-67874200D01*
X169002381Y-67874200D02*
X169116666Y-67912295D01*
X169116666Y-67912295D02*
X169192857Y-67912295D01*
X169192857Y-67912295D02*
X169307143Y-67874200D01*
X169307143Y-67874200D02*
X169383333Y-67798009D01*
X169383333Y-67798009D02*
X169421428Y-67721819D01*
X169421428Y-67721819D02*
X169459524Y-67569438D01*
X169459524Y-67569438D02*
X169459524Y-67455152D01*
X169459524Y-67455152D02*
X169421428Y-67302771D01*
X169421428Y-67302771D02*
X169383333Y-67226580D01*
X169383333Y-67226580D02*
X169307143Y-67150390D01*
X169307143Y-67150390D02*
X169192857Y-67112295D01*
X169192857Y-67112295D02*
X169116666Y-67112295D01*
X169116666Y-67112295D02*
X169002381Y-67150390D01*
X169002381Y-67150390D02*
X168964285Y-67188485D01*
X168202381Y-67912295D02*
X168659524Y-67912295D01*
X168430952Y-67912295D02*
X168430952Y-67112295D01*
X168430952Y-67112295D02*
X168507143Y-67226580D01*
X168507143Y-67226580D02*
X168583333Y-67302771D01*
X168583333Y-67302771D02*
X168659524Y-67340866D01*
X167516666Y-67112295D02*
X167669047Y-67112295D01*
X167669047Y-67112295D02*
X167745238Y-67150390D01*
X167745238Y-67150390D02*
X167783333Y-67188485D01*
X167783333Y-67188485D02*
X167859523Y-67302771D01*
X167859523Y-67302771D02*
X167897619Y-67455152D01*
X167897619Y-67455152D02*
X167897619Y-67759914D01*
X167897619Y-67759914D02*
X167859523Y-67836104D01*
X167859523Y-67836104D02*
X167821428Y-67874200D01*
X167821428Y-67874200D02*
X167745238Y-67912295D01*
X167745238Y-67912295D02*
X167592857Y-67912295D01*
X167592857Y-67912295D02*
X167516666Y-67874200D01*
X167516666Y-67874200D02*
X167478571Y-67836104D01*
X167478571Y-67836104D02*
X167440476Y-67759914D01*
X167440476Y-67759914D02*
X167440476Y-67569438D01*
X167440476Y-67569438D02*
X167478571Y-67493247D01*
X167478571Y-67493247D02*
X167516666Y-67455152D01*
X167516666Y-67455152D02*
X167592857Y-67417057D01*
X167592857Y-67417057D02*
X167745238Y-67417057D01*
X167745238Y-67417057D02*
X167821428Y-67455152D01*
X167821428Y-67455152D02*
X167859523Y-67493247D01*
X167859523Y-67493247D02*
X167897619Y-67569438D01*
X195983332Y-62862295D02*
X196249999Y-62481342D01*
X196440475Y-62862295D02*
X196440475Y-62062295D01*
X196440475Y-62062295D02*
X196135713Y-62062295D01*
X196135713Y-62062295D02*
X196059523Y-62100390D01*
X196059523Y-62100390D02*
X196021428Y-62138485D01*
X196021428Y-62138485D02*
X195983332Y-62214676D01*
X195983332Y-62214676D02*
X195983332Y-62328961D01*
X195983332Y-62328961D02*
X196021428Y-62405152D01*
X196021428Y-62405152D02*
X196059523Y-62443247D01*
X196059523Y-62443247D02*
X196135713Y-62481342D01*
X196135713Y-62481342D02*
X196440475Y-62481342D01*
X195221428Y-62862295D02*
X195678571Y-62862295D01*
X195449999Y-62862295D02*
X195449999Y-62062295D01*
X195449999Y-62062295D02*
X195526190Y-62176580D01*
X195526190Y-62176580D02*
X195602380Y-62252771D01*
X195602380Y-62252771D02*
X195678571Y-62290866D01*
X194283332Y-60262295D02*
X194549999Y-59881342D01*
X194740475Y-60262295D02*
X194740475Y-59462295D01*
X194740475Y-59462295D02*
X194435713Y-59462295D01*
X194435713Y-59462295D02*
X194359523Y-59500390D01*
X194359523Y-59500390D02*
X194321428Y-59538485D01*
X194321428Y-59538485D02*
X194283332Y-59614676D01*
X194283332Y-59614676D02*
X194283332Y-59728961D01*
X194283332Y-59728961D02*
X194321428Y-59805152D01*
X194321428Y-59805152D02*
X194359523Y-59843247D01*
X194359523Y-59843247D02*
X194435713Y-59881342D01*
X194435713Y-59881342D02*
X194740475Y-59881342D01*
X193978571Y-59538485D02*
X193940475Y-59500390D01*
X193940475Y-59500390D02*
X193864285Y-59462295D01*
X193864285Y-59462295D02*
X193673809Y-59462295D01*
X193673809Y-59462295D02*
X193597618Y-59500390D01*
X193597618Y-59500390D02*
X193559523Y-59538485D01*
X193559523Y-59538485D02*
X193521428Y-59614676D01*
X193521428Y-59614676D02*
X193521428Y-59690866D01*
X193521428Y-59690866D02*
X193559523Y-59805152D01*
X193559523Y-59805152D02*
X194016666Y-60262295D01*
X194016666Y-60262295D02*
X193521428Y-60262295D01*
X174962295Y-62766667D02*
X174581342Y-62500000D01*
X174962295Y-62309524D02*
X174162295Y-62309524D01*
X174162295Y-62309524D02*
X174162295Y-62614286D01*
X174162295Y-62614286D02*
X174200390Y-62690476D01*
X174200390Y-62690476D02*
X174238485Y-62728571D01*
X174238485Y-62728571D02*
X174314676Y-62766667D01*
X174314676Y-62766667D02*
X174428961Y-62766667D01*
X174428961Y-62766667D02*
X174505152Y-62728571D01*
X174505152Y-62728571D02*
X174543247Y-62690476D01*
X174543247Y-62690476D02*
X174581342Y-62614286D01*
X174581342Y-62614286D02*
X174581342Y-62309524D01*
X174428961Y-63452381D02*
X174962295Y-63452381D01*
X174124200Y-63261905D02*
X174695628Y-63071428D01*
X174695628Y-63071428D02*
X174695628Y-63566667D01*
X159161904Y-61404819D02*
X159161904Y-62214342D01*
X159161904Y-62214342D02*
X159114285Y-62309580D01*
X159114285Y-62309580D02*
X159066666Y-62357200D01*
X159066666Y-62357200D02*
X158971428Y-62404819D01*
X158971428Y-62404819D02*
X158780952Y-62404819D01*
X158780952Y-62404819D02*
X158685714Y-62357200D01*
X158685714Y-62357200D02*
X158638095Y-62309580D01*
X158638095Y-62309580D02*
X158590476Y-62214342D01*
X158590476Y-62214342D02*
X158590476Y-61404819D01*
X157590476Y-62404819D02*
X158161904Y-62404819D01*
X157876190Y-62404819D02*
X157876190Y-61404819D01*
X157876190Y-61404819D02*
X157971428Y-61547676D01*
X157971428Y-61547676D02*
X158066666Y-61642914D01*
X158066666Y-61642914D02*
X158161904Y-61690533D01*
X194861904Y-63204819D02*
X194861904Y-64014342D01*
X194861904Y-64014342D02*
X194814285Y-64109580D01*
X194814285Y-64109580D02*
X194766666Y-64157200D01*
X194766666Y-64157200D02*
X194671428Y-64204819D01*
X194671428Y-64204819D02*
X194480952Y-64204819D01*
X194480952Y-64204819D02*
X194385714Y-64157200D01*
X194385714Y-64157200D02*
X194338095Y-64109580D01*
X194338095Y-64109580D02*
X194290476Y-64014342D01*
X194290476Y-64014342D02*
X194290476Y-63204819D01*
X193861904Y-63300057D02*
X193814285Y-63252438D01*
X193814285Y-63252438D02*
X193719047Y-63204819D01*
X193719047Y-63204819D02*
X193480952Y-63204819D01*
X193480952Y-63204819D02*
X193385714Y-63252438D01*
X193385714Y-63252438D02*
X193338095Y-63300057D01*
X193338095Y-63300057D02*
X193290476Y-63395295D01*
X193290476Y-63395295D02*
X193290476Y-63490533D01*
X193290476Y-63490533D02*
X193338095Y-63633390D01*
X193338095Y-63633390D02*
X193909523Y-64204819D01*
X193909523Y-64204819D02*
X193290476Y-64204819D01*
X181438095Y-66754819D02*
X181438095Y-67564342D01*
X181438095Y-67564342D02*
X181485714Y-67659580D01*
X181485714Y-67659580D02*
X181533333Y-67707200D01*
X181533333Y-67707200D02*
X181628571Y-67754819D01*
X181628571Y-67754819D02*
X181819047Y-67754819D01*
X181819047Y-67754819D02*
X181914285Y-67707200D01*
X181914285Y-67707200D02*
X181961904Y-67659580D01*
X181961904Y-67659580D02*
X182009523Y-67564342D01*
X182009523Y-67564342D02*
X182009523Y-66754819D01*
X182390476Y-66754819D02*
X183009523Y-66754819D01*
X183009523Y-66754819D02*
X182676190Y-67135771D01*
X182676190Y-67135771D02*
X182819047Y-67135771D01*
X182819047Y-67135771D02*
X182914285Y-67183390D01*
X182914285Y-67183390D02*
X182961904Y-67231009D01*
X182961904Y-67231009D02*
X183009523Y-67326247D01*
X183009523Y-67326247D02*
X183009523Y-67564342D01*
X183009523Y-67564342D02*
X182961904Y-67659580D01*
X182961904Y-67659580D02*
X182914285Y-67707200D01*
X182914285Y-67707200D02*
X182819047Y-67754819D01*
X182819047Y-67754819D02*
X182533333Y-67754819D01*
X182533333Y-67754819D02*
X182438095Y-67707200D01*
X182438095Y-67707200D02*
X182390476Y-67659580D01*
X181400272Y-80423809D02*
X181876463Y-80423809D01*
X180876463Y-80090476D02*
X181400272Y-80423809D01*
X181400272Y-80423809D02*
X180876463Y-80757142D01*
X181876463Y-81614285D02*
X181876463Y-81042857D01*
X181876463Y-81328571D02*
X180876463Y-81328571D01*
X180876463Y-81328571D02*
X181019320Y-81233333D01*
X181019320Y-81233333D02*
X181114558Y-81138095D01*
X181114558Y-81138095D02*
X181162177Y-81042857D01*
X176062295Y-62716667D02*
X175681342Y-62450000D01*
X176062295Y-62259524D02*
X175262295Y-62259524D01*
X175262295Y-62259524D02*
X175262295Y-62564286D01*
X175262295Y-62564286D02*
X175300390Y-62640476D01*
X175300390Y-62640476D02*
X175338485Y-62678571D01*
X175338485Y-62678571D02*
X175414676Y-62716667D01*
X175414676Y-62716667D02*
X175528961Y-62716667D01*
X175528961Y-62716667D02*
X175605152Y-62678571D01*
X175605152Y-62678571D02*
X175643247Y-62640476D01*
X175643247Y-62640476D02*
X175681342Y-62564286D01*
X175681342Y-62564286D02*
X175681342Y-62259524D01*
X175262295Y-62983333D02*
X175262295Y-63478571D01*
X175262295Y-63478571D02*
X175567057Y-63211905D01*
X175567057Y-63211905D02*
X175567057Y-63326190D01*
X175567057Y-63326190D02*
X175605152Y-63402381D01*
X175605152Y-63402381D02*
X175643247Y-63440476D01*
X175643247Y-63440476D02*
X175719438Y-63478571D01*
X175719438Y-63478571D02*
X175909914Y-63478571D01*
X175909914Y-63478571D02*
X175986104Y-63440476D01*
X175986104Y-63440476D02*
X176024200Y-63402381D01*
X176024200Y-63402381D02*
X176062295Y-63326190D01*
X176062295Y-63326190D02*
X176062295Y-63097619D01*
X176062295Y-63097619D02*
X176024200Y-63021428D01*
X176024200Y-63021428D02*
X175986104Y-62983333D01*
X174407748Y-80716667D02*
X174445844Y-80678571D01*
X174445844Y-80678571D02*
X174483939Y-80564286D01*
X174483939Y-80564286D02*
X174483939Y-80488095D01*
X174483939Y-80488095D02*
X174445844Y-80373809D01*
X174445844Y-80373809D02*
X174369653Y-80297619D01*
X174369653Y-80297619D02*
X174293463Y-80259524D01*
X174293463Y-80259524D02*
X174141082Y-80221428D01*
X174141082Y-80221428D02*
X174026796Y-80221428D01*
X174026796Y-80221428D02*
X173874415Y-80259524D01*
X173874415Y-80259524D02*
X173798224Y-80297619D01*
X173798224Y-80297619D02*
X173722034Y-80373809D01*
X173722034Y-80373809D02*
X173683939Y-80488095D01*
X173683939Y-80488095D02*
X173683939Y-80564286D01*
X173683939Y-80564286D02*
X173722034Y-80678571D01*
X173722034Y-80678571D02*
X173760129Y-80716667D01*
X173683939Y-80983333D02*
X173683939Y-81478571D01*
X173683939Y-81478571D02*
X173988701Y-81211905D01*
X173988701Y-81211905D02*
X173988701Y-81326190D01*
X173988701Y-81326190D02*
X174026796Y-81402381D01*
X174026796Y-81402381D02*
X174064891Y-81440476D01*
X174064891Y-81440476D02*
X174141082Y-81478571D01*
X174141082Y-81478571D02*
X174331558Y-81478571D01*
X174331558Y-81478571D02*
X174407748Y-81440476D01*
X174407748Y-81440476D02*
X174445844Y-81402381D01*
X174445844Y-81402381D02*
X174483939Y-81326190D01*
X174483939Y-81326190D02*
X174483939Y-81097619D01*
X174483939Y-81097619D02*
X174445844Y-81021428D01*
X174445844Y-81021428D02*
X174407748Y-80983333D01*
X182785929Y-71736104D02*
X182824025Y-71774200D01*
X182824025Y-71774200D02*
X182938310Y-71812295D01*
X182938310Y-71812295D02*
X183014501Y-71812295D01*
X183014501Y-71812295D02*
X183128787Y-71774200D01*
X183128787Y-71774200D02*
X183204977Y-71698009D01*
X183204977Y-71698009D02*
X183243072Y-71621819D01*
X183243072Y-71621819D02*
X183281168Y-71469438D01*
X183281168Y-71469438D02*
X183281168Y-71355152D01*
X183281168Y-71355152D02*
X183243072Y-71202771D01*
X183243072Y-71202771D02*
X183204977Y-71126580D01*
X183204977Y-71126580D02*
X183128787Y-71050390D01*
X183128787Y-71050390D02*
X183014501Y-71012295D01*
X183014501Y-71012295D02*
X182938310Y-71012295D01*
X182938310Y-71012295D02*
X182824025Y-71050390D01*
X182824025Y-71050390D02*
X182785929Y-71088485D01*
X182024025Y-71812295D02*
X182481168Y-71812295D01*
X182252596Y-71812295D02*
X182252596Y-71012295D01*
X182252596Y-71012295D02*
X182328787Y-71126580D01*
X182328787Y-71126580D02*
X182404977Y-71202771D01*
X182404977Y-71202771D02*
X182481168Y-71240866D01*
X181757358Y-71012295D02*
X181262120Y-71012295D01*
X181262120Y-71012295D02*
X181528786Y-71317057D01*
X181528786Y-71317057D02*
X181414501Y-71317057D01*
X181414501Y-71317057D02*
X181338310Y-71355152D01*
X181338310Y-71355152D02*
X181300215Y-71393247D01*
X181300215Y-71393247D02*
X181262120Y-71469438D01*
X181262120Y-71469438D02*
X181262120Y-71659914D01*
X181262120Y-71659914D02*
X181300215Y-71736104D01*
X181300215Y-71736104D02*
X181338310Y-71774200D01*
X181338310Y-71774200D02*
X181414501Y-71812295D01*
X181414501Y-71812295D02*
X181643072Y-71812295D01*
X181643072Y-71812295D02*
X181719263Y-71774200D01*
X181719263Y-71774200D02*
X181757358Y-71736104D01*
X171364285Y-71536104D02*
X171402381Y-71574200D01*
X171402381Y-71574200D02*
X171516666Y-71612295D01*
X171516666Y-71612295D02*
X171592857Y-71612295D01*
X171592857Y-71612295D02*
X171707143Y-71574200D01*
X171707143Y-71574200D02*
X171783333Y-71498009D01*
X171783333Y-71498009D02*
X171821428Y-71421819D01*
X171821428Y-71421819D02*
X171859524Y-71269438D01*
X171859524Y-71269438D02*
X171859524Y-71155152D01*
X171859524Y-71155152D02*
X171821428Y-71002771D01*
X171821428Y-71002771D02*
X171783333Y-70926580D01*
X171783333Y-70926580D02*
X171707143Y-70850390D01*
X171707143Y-70850390D02*
X171592857Y-70812295D01*
X171592857Y-70812295D02*
X171516666Y-70812295D01*
X171516666Y-70812295D02*
X171402381Y-70850390D01*
X171402381Y-70850390D02*
X171364285Y-70888485D01*
X170602381Y-71612295D02*
X171059524Y-71612295D01*
X170830952Y-71612295D02*
X170830952Y-70812295D01*
X170830952Y-70812295D02*
X170907143Y-70926580D01*
X170907143Y-70926580D02*
X170983333Y-71002771D01*
X170983333Y-71002771D02*
X171059524Y-71040866D01*
X170297619Y-70888485D02*
X170259523Y-70850390D01*
X170259523Y-70850390D02*
X170183333Y-70812295D01*
X170183333Y-70812295D02*
X169992857Y-70812295D01*
X169992857Y-70812295D02*
X169916666Y-70850390D01*
X169916666Y-70850390D02*
X169878571Y-70888485D01*
X169878571Y-70888485D02*
X169840476Y-70964676D01*
X169840476Y-70964676D02*
X169840476Y-71040866D01*
X169840476Y-71040866D02*
X169878571Y-71155152D01*
X169878571Y-71155152D02*
X170335714Y-71612295D01*
X170335714Y-71612295D02*
X169840476Y-71612295D01*
X179054976Y-77862295D02*
X179321643Y-77481342D01*
X179512119Y-77862295D02*
X179512119Y-77062295D01*
X179512119Y-77062295D02*
X179207357Y-77062295D01*
X179207357Y-77062295D02*
X179131167Y-77100390D01*
X179131167Y-77100390D02*
X179093072Y-77138485D01*
X179093072Y-77138485D02*
X179054976Y-77214676D01*
X179054976Y-77214676D02*
X179054976Y-77328961D01*
X179054976Y-77328961D02*
X179093072Y-77405152D01*
X179093072Y-77405152D02*
X179131167Y-77443247D01*
X179131167Y-77443247D02*
X179207357Y-77481342D01*
X179207357Y-77481342D02*
X179512119Y-77481342D01*
X178331167Y-77062295D02*
X178712119Y-77062295D01*
X178712119Y-77062295D02*
X178750215Y-77443247D01*
X178750215Y-77443247D02*
X178712119Y-77405152D01*
X178712119Y-77405152D02*
X178635929Y-77367057D01*
X178635929Y-77367057D02*
X178445453Y-77367057D01*
X178445453Y-77367057D02*
X178369262Y-77405152D01*
X178369262Y-77405152D02*
X178331167Y-77443247D01*
X178331167Y-77443247D02*
X178293072Y-77519438D01*
X178293072Y-77519438D02*
X178293072Y-77709914D01*
X178293072Y-77709914D02*
X178331167Y-77786104D01*
X178331167Y-77786104D02*
X178369262Y-77824200D01*
X178369262Y-77824200D02*
X178445453Y-77862295D01*
X178445453Y-77862295D02*
X178635929Y-77862295D01*
X178635929Y-77862295D02*
X178712119Y-77824200D01*
X178712119Y-77824200D02*
X178750215Y-77786104D01*
X174307748Y-76985714D02*
X174345844Y-76947618D01*
X174345844Y-76947618D02*
X174383939Y-76833333D01*
X174383939Y-76833333D02*
X174383939Y-76757142D01*
X174383939Y-76757142D02*
X174345844Y-76642856D01*
X174345844Y-76642856D02*
X174269653Y-76566666D01*
X174269653Y-76566666D02*
X174193463Y-76528571D01*
X174193463Y-76528571D02*
X174041082Y-76490475D01*
X174041082Y-76490475D02*
X173926796Y-76490475D01*
X173926796Y-76490475D02*
X173774415Y-76528571D01*
X173774415Y-76528571D02*
X173698224Y-76566666D01*
X173698224Y-76566666D02*
X173622034Y-76642856D01*
X173622034Y-76642856D02*
X173583939Y-76757142D01*
X173583939Y-76757142D02*
X173583939Y-76833333D01*
X173583939Y-76833333D02*
X173622034Y-76947618D01*
X173622034Y-76947618D02*
X173660129Y-76985714D01*
X174383939Y-77747618D02*
X174383939Y-77290475D01*
X174383939Y-77519047D02*
X173583939Y-77519047D01*
X173583939Y-77519047D02*
X173698224Y-77442856D01*
X173698224Y-77442856D02*
X173774415Y-77366666D01*
X173774415Y-77366666D02*
X173812510Y-77290475D01*
X173850605Y-78433333D02*
X174383939Y-78433333D01*
X173545844Y-78242857D02*
X174117272Y-78052380D01*
X174117272Y-78052380D02*
X174117272Y-78547619D01*
X185585929Y-69136104D02*
X185624025Y-69174200D01*
X185624025Y-69174200D02*
X185738310Y-69212295D01*
X185738310Y-69212295D02*
X185814501Y-69212295D01*
X185814501Y-69212295D02*
X185928787Y-69174200D01*
X185928787Y-69174200D02*
X186004977Y-69098009D01*
X186004977Y-69098009D02*
X186043072Y-69021819D01*
X186043072Y-69021819D02*
X186081168Y-68869438D01*
X186081168Y-68869438D02*
X186081168Y-68755152D01*
X186081168Y-68755152D02*
X186043072Y-68602771D01*
X186043072Y-68602771D02*
X186004977Y-68526580D01*
X186004977Y-68526580D02*
X185928787Y-68450390D01*
X185928787Y-68450390D02*
X185814501Y-68412295D01*
X185814501Y-68412295D02*
X185738310Y-68412295D01*
X185738310Y-68412295D02*
X185624025Y-68450390D01*
X185624025Y-68450390D02*
X185585929Y-68488485D01*
X184824025Y-69212295D02*
X185281168Y-69212295D01*
X185052596Y-69212295D02*
X185052596Y-68412295D01*
X185052596Y-68412295D02*
X185128787Y-68526580D01*
X185128787Y-68526580D02*
X185204977Y-68602771D01*
X185204977Y-68602771D02*
X185281168Y-68640866D01*
X184062120Y-69212295D02*
X184519263Y-69212295D01*
X184290691Y-69212295D02*
X184290691Y-68412295D01*
X184290691Y-68412295D02*
X184366882Y-68526580D01*
X184366882Y-68526580D02*
X184443072Y-68602771D01*
X184443072Y-68602771D02*
X184519263Y-68640866D01*
X181954819Y-47567142D02*
X181478628Y-47233809D01*
X181954819Y-46995714D02*
X180954819Y-46995714D01*
X180954819Y-46995714D02*
X180954819Y-47376666D01*
X180954819Y-47376666D02*
X181002438Y-47471904D01*
X181002438Y-47471904D02*
X181050057Y-47519523D01*
X181050057Y-47519523D02*
X181145295Y-47567142D01*
X181145295Y-47567142D02*
X181288152Y-47567142D01*
X181288152Y-47567142D02*
X181383390Y-47519523D01*
X181383390Y-47519523D02*
X181431009Y-47471904D01*
X181431009Y-47471904D02*
X181478628Y-47376666D01*
X181478628Y-47376666D02*
X181478628Y-46995714D01*
X181954819Y-48519523D02*
X181954819Y-47948095D01*
X181954819Y-48233809D02*
X180954819Y-48233809D01*
X180954819Y-48233809D02*
X181097676Y-48138571D01*
X181097676Y-48138571D02*
X181192914Y-48043333D01*
X181192914Y-48043333D02*
X181240533Y-47948095D01*
X180954819Y-48852857D02*
X180954819Y-49519523D01*
X180954819Y-49519523D02*
X181954819Y-49090952D01*
X193059580Y-47007142D02*
X193107200Y-46959523D01*
X193107200Y-46959523D02*
X193154819Y-46816666D01*
X193154819Y-46816666D02*
X193154819Y-46721428D01*
X193154819Y-46721428D02*
X193107200Y-46578571D01*
X193107200Y-46578571D02*
X193011961Y-46483333D01*
X193011961Y-46483333D02*
X192916723Y-46435714D01*
X192916723Y-46435714D02*
X192726247Y-46388095D01*
X192726247Y-46388095D02*
X192583390Y-46388095D01*
X192583390Y-46388095D02*
X192392914Y-46435714D01*
X192392914Y-46435714D02*
X192297676Y-46483333D01*
X192297676Y-46483333D02*
X192202438Y-46578571D01*
X192202438Y-46578571D02*
X192154819Y-46721428D01*
X192154819Y-46721428D02*
X192154819Y-46816666D01*
X192154819Y-46816666D02*
X192202438Y-46959523D01*
X192202438Y-46959523D02*
X192250057Y-47007142D01*
X192250057Y-47388095D02*
X192202438Y-47435714D01*
X192202438Y-47435714D02*
X192154819Y-47530952D01*
X192154819Y-47530952D02*
X192154819Y-47769047D01*
X192154819Y-47769047D02*
X192202438Y-47864285D01*
X192202438Y-47864285D02*
X192250057Y-47911904D01*
X192250057Y-47911904D02*
X192345295Y-47959523D01*
X192345295Y-47959523D02*
X192440533Y-47959523D01*
X192440533Y-47959523D02*
X192583390Y-47911904D01*
X192583390Y-47911904D02*
X193154819Y-47340476D01*
X193154819Y-47340476D02*
X193154819Y-47959523D01*
X192154819Y-48578571D02*
X192154819Y-48673809D01*
X192154819Y-48673809D02*
X192202438Y-48769047D01*
X192202438Y-48769047D02*
X192250057Y-48816666D01*
X192250057Y-48816666D02*
X192345295Y-48864285D01*
X192345295Y-48864285D02*
X192535771Y-48911904D01*
X192535771Y-48911904D02*
X192773866Y-48911904D01*
X192773866Y-48911904D02*
X192964342Y-48864285D01*
X192964342Y-48864285D02*
X193059580Y-48816666D01*
X193059580Y-48816666D02*
X193107200Y-48769047D01*
X193107200Y-48769047D02*
X193154819Y-48673809D01*
X193154819Y-48673809D02*
X193154819Y-48578571D01*
X193154819Y-48578571D02*
X193107200Y-48483333D01*
X193107200Y-48483333D02*
X193059580Y-48435714D01*
X193059580Y-48435714D02*
X192964342Y-48388095D01*
X192964342Y-48388095D02*
X192773866Y-48340476D01*
X192773866Y-48340476D02*
X192535771Y-48340476D01*
X192535771Y-48340476D02*
X192345295Y-48388095D01*
X192345295Y-48388095D02*
X192250057Y-48435714D01*
X192250057Y-48435714D02*
X192202438Y-48483333D01*
X192202438Y-48483333D02*
X192154819Y-48578571D01*
X195254285Y-52954819D02*
X195254285Y-51954819D01*
X195254285Y-51954819D02*
X195016190Y-51954819D01*
X195016190Y-51954819D02*
X194873333Y-52002438D01*
X194873333Y-52002438D02*
X194778095Y-52097676D01*
X194778095Y-52097676D02*
X194730476Y-52192914D01*
X194730476Y-52192914D02*
X194682857Y-52383390D01*
X194682857Y-52383390D02*
X194682857Y-52526247D01*
X194682857Y-52526247D02*
X194730476Y-52716723D01*
X194730476Y-52716723D02*
X194778095Y-52811961D01*
X194778095Y-52811961D02*
X194873333Y-52907200D01*
X194873333Y-52907200D02*
X195016190Y-52954819D01*
X195016190Y-52954819D02*
X195254285Y-52954819D01*
X194301904Y-52907200D02*
X194159047Y-52954819D01*
X194159047Y-52954819D02*
X193920952Y-52954819D01*
X193920952Y-52954819D02*
X193825714Y-52907200D01*
X193825714Y-52907200D02*
X193778095Y-52859580D01*
X193778095Y-52859580D02*
X193730476Y-52764342D01*
X193730476Y-52764342D02*
X193730476Y-52669104D01*
X193730476Y-52669104D02*
X193778095Y-52573866D01*
X193778095Y-52573866D02*
X193825714Y-52526247D01*
X193825714Y-52526247D02*
X193920952Y-52478628D01*
X193920952Y-52478628D02*
X194111428Y-52431009D01*
X194111428Y-52431009D02*
X194206666Y-52383390D01*
X194206666Y-52383390D02*
X194254285Y-52335771D01*
X194254285Y-52335771D02*
X194301904Y-52240533D01*
X194301904Y-52240533D02*
X194301904Y-52145295D01*
X194301904Y-52145295D02*
X194254285Y-52050057D01*
X194254285Y-52050057D02*
X194206666Y-52002438D01*
X194206666Y-52002438D02*
X194111428Y-51954819D01*
X194111428Y-51954819D02*
X193873333Y-51954819D01*
X193873333Y-51954819D02*
X193730476Y-52002438D01*
X192778095Y-52954819D02*
X193349523Y-52954819D01*
X193063809Y-52954819D02*
X193063809Y-51954819D01*
X193063809Y-51954819D02*
X193159047Y-52097676D01*
X193159047Y-52097676D02*
X193254285Y-52192914D01*
X193254285Y-52192914D02*
X193349523Y-52240533D01*
X180704819Y-47557142D02*
X180228628Y-47223809D01*
X180704819Y-46985714D02*
X179704819Y-46985714D01*
X179704819Y-46985714D02*
X179704819Y-47366666D01*
X179704819Y-47366666D02*
X179752438Y-47461904D01*
X179752438Y-47461904D02*
X179800057Y-47509523D01*
X179800057Y-47509523D02*
X179895295Y-47557142D01*
X179895295Y-47557142D02*
X180038152Y-47557142D01*
X180038152Y-47557142D02*
X180133390Y-47509523D01*
X180133390Y-47509523D02*
X180181009Y-47461904D01*
X180181009Y-47461904D02*
X180228628Y-47366666D01*
X180228628Y-47366666D02*
X180228628Y-46985714D01*
X180704819Y-48509523D02*
X180704819Y-47938095D01*
X180704819Y-48223809D02*
X179704819Y-48223809D01*
X179704819Y-48223809D02*
X179847676Y-48128571D01*
X179847676Y-48128571D02*
X179942914Y-48033333D01*
X179942914Y-48033333D02*
X179990533Y-47938095D01*
X179704819Y-49366666D02*
X179704819Y-49176190D01*
X179704819Y-49176190D02*
X179752438Y-49080952D01*
X179752438Y-49080952D02*
X179800057Y-49033333D01*
X179800057Y-49033333D02*
X179942914Y-48938095D01*
X179942914Y-48938095D02*
X180133390Y-48890476D01*
X180133390Y-48890476D02*
X180514342Y-48890476D01*
X180514342Y-48890476D02*
X180609580Y-48938095D01*
X180609580Y-48938095D02*
X180657200Y-48985714D01*
X180657200Y-48985714D02*
X180704819Y-49080952D01*
X180704819Y-49080952D02*
X180704819Y-49271428D01*
X180704819Y-49271428D02*
X180657200Y-49366666D01*
X180657200Y-49366666D02*
X180609580Y-49414285D01*
X180609580Y-49414285D02*
X180514342Y-49461904D01*
X180514342Y-49461904D02*
X180276247Y-49461904D01*
X180276247Y-49461904D02*
X180181009Y-49414285D01*
X180181009Y-49414285D02*
X180133390Y-49366666D01*
X180133390Y-49366666D02*
X180085771Y-49271428D01*
X180085771Y-49271428D02*
X180085771Y-49080952D01*
X180085771Y-49080952D02*
X180133390Y-48985714D01*
X180133390Y-48985714D02*
X180181009Y-48938095D01*
X180181009Y-48938095D02*
X180276247Y-48890476D01*
X173942857Y-47259580D02*
X173990476Y-47307200D01*
X173990476Y-47307200D02*
X174133333Y-47354819D01*
X174133333Y-47354819D02*
X174228571Y-47354819D01*
X174228571Y-47354819D02*
X174371428Y-47307200D01*
X174371428Y-47307200D02*
X174466666Y-47211961D01*
X174466666Y-47211961D02*
X174514285Y-47116723D01*
X174514285Y-47116723D02*
X174561904Y-46926247D01*
X174561904Y-46926247D02*
X174561904Y-46783390D01*
X174561904Y-46783390D02*
X174514285Y-46592914D01*
X174514285Y-46592914D02*
X174466666Y-46497676D01*
X174466666Y-46497676D02*
X174371428Y-46402438D01*
X174371428Y-46402438D02*
X174228571Y-46354819D01*
X174228571Y-46354819D02*
X174133333Y-46354819D01*
X174133333Y-46354819D02*
X173990476Y-46402438D01*
X173990476Y-46402438D02*
X173942857Y-46450057D01*
X172990476Y-47354819D02*
X173561904Y-47354819D01*
X173276190Y-47354819D02*
X173276190Y-46354819D01*
X173276190Y-46354819D02*
X173371428Y-46497676D01*
X173371428Y-46497676D02*
X173466666Y-46592914D01*
X173466666Y-46592914D02*
X173561904Y-46640533D01*
X172514285Y-47354819D02*
X172323809Y-47354819D01*
X172323809Y-47354819D02*
X172228571Y-47307200D01*
X172228571Y-47307200D02*
X172180952Y-47259580D01*
X172180952Y-47259580D02*
X172085714Y-47116723D01*
X172085714Y-47116723D02*
X172038095Y-46926247D01*
X172038095Y-46926247D02*
X172038095Y-46545295D01*
X172038095Y-46545295D02*
X172085714Y-46450057D01*
X172085714Y-46450057D02*
X172133333Y-46402438D01*
X172133333Y-46402438D02*
X172228571Y-46354819D01*
X172228571Y-46354819D02*
X172419047Y-46354819D01*
X172419047Y-46354819D02*
X172514285Y-46402438D01*
X172514285Y-46402438D02*
X172561904Y-46450057D01*
X172561904Y-46450057D02*
X172609523Y-46545295D01*
X172609523Y-46545295D02*
X172609523Y-46783390D01*
X172609523Y-46783390D02*
X172561904Y-46878628D01*
X172561904Y-46878628D02*
X172514285Y-46926247D01*
X172514285Y-46926247D02*
X172419047Y-46973866D01*
X172419047Y-46973866D02*
X172228571Y-46973866D01*
X172228571Y-46973866D02*
X172133333Y-46926247D01*
X172133333Y-46926247D02*
X172085714Y-46878628D01*
X172085714Y-46878628D02*
X172038095Y-46783390D01*
X191409580Y-47157142D02*
X191457200Y-47109523D01*
X191457200Y-47109523D02*
X191504819Y-46966666D01*
X191504819Y-46966666D02*
X191504819Y-46871428D01*
X191504819Y-46871428D02*
X191457200Y-46728571D01*
X191457200Y-46728571D02*
X191361961Y-46633333D01*
X191361961Y-46633333D02*
X191266723Y-46585714D01*
X191266723Y-46585714D02*
X191076247Y-46538095D01*
X191076247Y-46538095D02*
X190933390Y-46538095D01*
X190933390Y-46538095D02*
X190742914Y-46585714D01*
X190742914Y-46585714D02*
X190647676Y-46633333D01*
X190647676Y-46633333D02*
X190552438Y-46728571D01*
X190552438Y-46728571D02*
X190504819Y-46871428D01*
X190504819Y-46871428D02*
X190504819Y-46966666D01*
X190504819Y-46966666D02*
X190552438Y-47109523D01*
X190552438Y-47109523D02*
X190600057Y-47157142D01*
X191504819Y-48109523D02*
X191504819Y-47538095D01*
X191504819Y-47823809D02*
X190504819Y-47823809D01*
X190504819Y-47823809D02*
X190647676Y-47728571D01*
X190647676Y-47728571D02*
X190742914Y-47633333D01*
X190742914Y-47633333D02*
X190790533Y-47538095D01*
X190933390Y-48680952D02*
X190885771Y-48585714D01*
X190885771Y-48585714D02*
X190838152Y-48538095D01*
X190838152Y-48538095D02*
X190742914Y-48490476D01*
X190742914Y-48490476D02*
X190695295Y-48490476D01*
X190695295Y-48490476D02*
X190600057Y-48538095D01*
X190600057Y-48538095D02*
X190552438Y-48585714D01*
X190552438Y-48585714D02*
X190504819Y-48680952D01*
X190504819Y-48680952D02*
X190504819Y-48871428D01*
X190504819Y-48871428D02*
X190552438Y-48966666D01*
X190552438Y-48966666D02*
X190600057Y-49014285D01*
X190600057Y-49014285D02*
X190695295Y-49061904D01*
X190695295Y-49061904D02*
X190742914Y-49061904D01*
X190742914Y-49061904D02*
X190838152Y-49014285D01*
X190838152Y-49014285D02*
X190885771Y-48966666D01*
X190885771Y-48966666D02*
X190933390Y-48871428D01*
X190933390Y-48871428D02*
X190933390Y-48680952D01*
X190933390Y-48680952D02*
X190981009Y-48585714D01*
X190981009Y-48585714D02*
X191028628Y-48538095D01*
X191028628Y-48538095D02*
X191123866Y-48490476D01*
X191123866Y-48490476D02*
X191314342Y-48490476D01*
X191314342Y-48490476D02*
X191409580Y-48538095D01*
X191409580Y-48538095D02*
X191457200Y-48585714D01*
X191457200Y-48585714D02*
X191504819Y-48680952D01*
X191504819Y-48680952D02*
X191504819Y-48871428D01*
X191504819Y-48871428D02*
X191457200Y-48966666D01*
X191457200Y-48966666D02*
X191409580Y-49014285D01*
X191409580Y-49014285D02*
X191314342Y-49061904D01*
X191314342Y-49061904D02*
X191123866Y-49061904D01*
X191123866Y-49061904D02*
X191028628Y-49014285D01*
X191028628Y-49014285D02*
X190981009Y-48966666D01*
X190981009Y-48966666D02*
X190933390Y-48871428D01*
X176942857Y-47259580D02*
X176990476Y-47307200D01*
X176990476Y-47307200D02*
X177133333Y-47354819D01*
X177133333Y-47354819D02*
X177228571Y-47354819D01*
X177228571Y-47354819D02*
X177371428Y-47307200D01*
X177371428Y-47307200D02*
X177466666Y-47211961D01*
X177466666Y-47211961D02*
X177514285Y-47116723D01*
X177514285Y-47116723D02*
X177561904Y-46926247D01*
X177561904Y-46926247D02*
X177561904Y-46783390D01*
X177561904Y-46783390D02*
X177514285Y-46592914D01*
X177514285Y-46592914D02*
X177466666Y-46497676D01*
X177466666Y-46497676D02*
X177371428Y-46402438D01*
X177371428Y-46402438D02*
X177228571Y-46354819D01*
X177228571Y-46354819D02*
X177133333Y-46354819D01*
X177133333Y-46354819D02*
X176990476Y-46402438D01*
X176990476Y-46402438D02*
X176942857Y-46450057D01*
X175990476Y-47354819D02*
X176561904Y-47354819D01*
X176276190Y-47354819D02*
X176276190Y-46354819D01*
X176276190Y-46354819D02*
X176371428Y-46497676D01*
X176371428Y-46497676D02*
X176466666Y-46592914D01*
X176466666Y-46592914D02*
X176561904Y-46640533D01*
X175657142Y-46354819D02*
X174990476Y-46354819D01*
X174990476Y-46354819D02*
X175419047Y-47354819D01*
X185804819Y-47657142D02*
X185328628Y-47323809D01*
X185804819Y-47085714D02*
X184804819Y-47085714D01*
X184804819Y-47085714D02*
X184804819Y-47466666D01*
X184804819Y-47466666D02*
X184852438Y-47561904D01*
X184852438Y-47561904D02*
X184900057Y-47609523D01*
X184900057Y-47609523D02*
X184995295Y-47657142D01*
X184995295Y-47657142D02*
X185138152Y-47657142D01*
X185138152Y-47657142D02*
X185233390Y-47609523D01*
X185233390Y-47609523D02*
X185281009Y-47561904D01*
X185281009Y-47561904D02*
X185328628Y-47466666D01*
X185328628Y-47466666D02*
X185328628Y-47085714D01*
X185804819Y-48609523D02*
X185804819Y-48038095D01*
X185804819Y-48323809D02*
X184804819Y-48323809D01*
X184804819Y-48323809D02*
X184947676Y-48228571D01*
X184947676Y-48228571D02*
X185042914Y-48133333D01*
X185042914Y-48133333D02*
X185090533Y-48038095D01*
X184804819Y-49514285D02*
X184804819Y-49038095D01*
X184804819Y-49038095D02*
X185281009Y-48990476D01*
X185281009Y-48990476D02*
X185233390Y-49038095D01*
X185233390Y-49038095D02*
X185185771Y-49133333D01*
X185185771Y-49133333D02*
X185185771Y-49371428D01*
X185185771Y-49371428D02*
X185233390Y-49466666D01*
X185233390Y-49466666D02*
X185281009Y-49514285D01*
X185281009Y-49514285D02*
X185376247Y-49561904D01*
X185376247Y-49561904D02*
X185614342Y-49561904D01*
X185614342Y-49561904D02*
X185709580Y-49514285D01*
X185709580Y-49514285D02*
X185757200Y-49466666D01*
X185757200Y-49466666D02*
X185804819Y-49371428D01*
X185804819Y-49371428D02*
X185804819Y-49133333D01*
X185804819Y-49133333D02*
X185757200Y-49038095D01*
X185757200Y-49038095D02*
X185709580Y-48990476D01*
%TO.C,D15*%
X106250000Y-91510000D02*
X106750000Y-91010000D01*
X106250000Y-95010000D02*
X106750000Y-95510000D01*
X106750000Y-91010000D02*
X109750000Y-91010000D01*
X106750000Y-95510000D02*
X109250000Y-95510000D01*
X109750000Y-91010000D02*
X110250000Y-91510000D01*
X110250000Y-92510000D02*
X110250000Y-91510000D01*
X110750000Y-97010000D02*
X110750000Y-97710000D01*
X110750000Y-97710000D02*
X115250000Y-97710000D01*
X115250000Y-93010000D02*
X110750000Y-93010000D01*
X115250000Y-93610000D02*
X115250000Y-93010000D01*
X115250000Y-97710000D02*
X115250000Y-97210000D01*
X110750000Y-97010000D02*
G75*
G03*
X109250000Y-95510000I-1500000J0D01*
G01*
X110250000Y-92510000D02*
G75*
G03*
X110750000Y-93010000I500000J0D01*
G01*
D12*
X104050000Y-103010000D02*
X104050000Y-102110000D01*
X104950000Y-102110000D01*
X104050000Y-103010000D01*
G36*
X104050000Y-103010000D02*
G01*
X104050000Y-102110000D01*
X104950000Y-102110000D01*
X104050000Y-103010000D01*
G37*
D11*
%TO.C,D14*%
X135100000Y-91510000D02*
X135600000Y-91010000D01*
X135100000Y-95010000D02*
X135600000Y-95510000D01*
X135600000Y-91010000D02*
X138600000Y-91010000D01*
X135600000Y-95510000D02*
X138100000Y-95510000D01*
X138600000Y-91010000D02*
X139100000Y-91510000D01*
X139100000Y-92510000D02*
X139100000Y-91510000D01*
X139600000Y-97010000D02*
X139600000Y-97710000D01*
X139600000Y-97710000D02*
X144100000Y-97710000D01*
X144100000Y-93010000D02*
X139600000Y-93010000D01*
X144100000Y-93610000D02*
X144100000Y-93010000D01*
X144100000Y-97710000D02*
X144100000Y-97210000D01*
X139600000Y-97010000D02*
G75*
G03*
X138100000Y-95510000I-1500000J0D01*
G01*
X139100000Y-92510000D02*
G75*
G03*
X139600000Y-93010000I500000J0D01*
G01*
D12*
X132900000Y-103010000D02*
X132900000Y-102110000D01*
X133800000Y-102110000D01*
X132900000Y-103010000D01*
G36*
X132900000Y-103010000D02*
G01*
X132900000Y-102110000D01*
X133800000Y-102110000D01*
X132900000Y-103010000D01*
G37*
D11*
%TO.C,D16*%
X77040000Y-91510000D02*
X77540000Y-91010000D01*
X77040000Y-95010000D02*
X77540000Y-95510000D01*
X77540000Y-91010000D02*
X80540000Y-91010000D01*
X77540000Y-95510000D02*
X80040000Y-95510000D01*
X80540000Y-91010000D02*
X81040000Y-91510000D01*
X81040000Y-92510000D02*
X81040000Y-91510000D01*
X81540000Y-97010000D02*
X81540000Y-97710000D01*
X81540000Y-97710000D02*
X86040000Y-97710000D01*
X86040000Y-93010000D02*
X81540000Y-93010000D01*
X86040000Y-93610000D02*
X86040000Y-93010000D01*
X86040000Y-97710000D02*
X86040000Y-97210000D01*
X81540000Y-97010000D02*
G75*
G03*
X80040000Y-95510000I-1500000J0D01*
G01*
X81040000Y-92510000D02*
G75*
G03*
X81540000Y-93010000I500000J0D01*
G01*
D12*
X74840000Y-103010000D02*
X74840000Y-102110000D01*
X75740000Y-102110000D01*
X74840000Y-103010000D01*
G36*
X74840000Y-103010000D02*
G01*
X74840000Y-102110000D01*
X75740000Y-102110000D01*
X74840000Y-103010000D01*
G37*
D11*
%TO.C,D6*%
X129540000Y-60050000D02*
X130040000Y-59550000D01*
X129540000Y-63550000D02*
X130040000Y-64050000D01*
X130040000Y-59550000D02*
X133040000Y-59550000D01*
X130040000Y-64050000D02*
X132540000Y-64050000D01*
X133040000Y-59550000D02*
X133540000Y-60050000D01*
X133540000Y-61050000D02*
X133540000Y-60050000D01*
X134040000Y-65550000D02*
X134040000Y-66250000D01*
X134040000Y-66250000D02*
X138540000Y-66250000D01*
X138540000Y-61550000D02*
X134040000Y-61550000D01*
X138540000Y-62150000D02*
X138540000Y-61550000D01*
X138540000Y-66250000D02*
X138540000Y-65750000D01*
X134040000Y-65550000D02*
G75*
G03*
X132540000Y-64050000I-1500000J0D01*
G01*
X133540000Y-61050000D02*
G75*
G03*
X134040000Y-61550000I500000J0D01*
G01*
D12*
X127340000Y-71550000D02*
X127340000Y-70650000D01*
X128240000Y-70650000D01*
X127340000Y-71550000D01*
G36*
X127340000Y-71550000D02*
G01*
X127340000Y-70650000D01*
X128240000Y-70650000D01*
X127340000Y-71550000D01*
G37*
D11*
%TO.C,D5*%
X156100000Y-71580000D02*
X156600000Y-71080000D01*
X156100000Y-75080000D02*
X156600000Y-75580000D01*
X156600000Y-71080000D02*
X159600000Y-71080000D01*
X156600000Y-75580000D02*
X159100000Y-75580000D01*
X159600000Y-71080000D02*
X160100000Y-71580000D01*
X160100000Y-72580000D02*
X160100000Y-71580000D01*
X160600000Y-77080000D02*
X160600000Y-77780000D01*
X160600000Y-77780000D02*
X165100000Y-77780000D01*
X165100000Y-73080000D02*
X160600000Y-73080000D01*
X165100000Y-73680000D02*
X165100000Y-73080000D01*
X165100000Y-77780000D02*
X165100000Y-77280000D01*
X160600000Y-77080000D02*
G75*
G03*
X159100000Y-75580000I-1500000J0D01*
G01*
X160100000Y-72580000D02*
G75*
G03*
X160600000Y-73080000I500000J0D01*
G01*
D12*
X153900000Y-83080000D02*
X153900000Y-82180000D01*
X154800000Y-82180000D01*
X153900000Y-83080000D01*
G36*
X153900000Y-83080000D02*
G01*
X153900000Y-82180000D01*
X154800000Y-82180000D01*
X153900000Y-83080000D01*
G37*
D11*
%TO.C,D1*%
X173540000Y-136090000D02*
X174040000Y-135590000D01*
X173540000Y-139590000D02*
X174040000Y-140090000D01*
X174040000Y-135590000D02*
X177040000Y-135590000D01*
X174040000Y-140090000D02*
X176540000Y-140090000D01*
X177040000Y-135590000D02*
X177540000Y-136090000D01*
X177540000Y-137090000D02*
X177540000Y-136090000D01*
X178040000Y-141590000D02*
X178040000Y-142290000D01*
X178040000Y-142290000D02*
X182540000Y-142290000D01*
X182540000Y-137590000D02*
X178040000Y-137590000D01*
X182540000Y-138190000D02*
X182540000Y-137590000D01*
X182540000Y-142290000D02*
X182540000Y-141790000D01*
X178040000Y-141590000D02*
G75*
G03*
X176540000Y-140090000I-1500000J0D01*
G01*
X177540000Y-137090000D02*
G75*
G03*
X178040000Y-137590000I500000J0D01*
G01*
D12*
X171340000Y-147590000D02*
X171340000Y-146690000D01*
X172240000Y-146690000D01*
X171340000Y-147590000D01*
G36*
X171340000Y-147590000D02*
G01*
X171340000Y-146690000D01*
X172240000Y-146690000D01*
X171340000Y-147590000D01*
G37*
D11*
%TO.C,D4*%
X191040000Y-82990000D02*
X191540000Y-82490000D01*
X191040000Y-86490000D02*
X191540000Y-86990000D01*
X191540000Y-82490000D02*
X194540000Y-82490000D01*
X191540000Y-86990000D02*
X194040000Y-86990000D01*
X194540000Y-82490000D02*
X195040000Y-82990000D01*
X195040000Y-83990000D02*
X195040000Y-82990000D01*
X195540000Y-88490000D02*
X195540000Y-89190000D01*
X195540000Y-89190000D02*
X200040000Y-89190000D01*
X200040000Y-84490000D02*
X195540000Y-84490000D01*
X200040000Y-85090000D02*
X200040000Y-84490000D01*
X200040000Y-89190000D02*
X200040000Y-88690000D01*
X195540000Y-88490000D02*
G75*
G03*
X194040000Y-86990000I-1500000J0D01*
G01*
X195040000Y-83990000D02*
G75*
G03*
X195540000Y-84490000I500000J0D01*
G01*
D12*
X188840000Y-94490000D02*
X188840000Y-93590000D01*
X189740000Y-93590000D01*
X188840000Y-94490000D01*
G36*
X188840000Y-94490000D02*
G01*
X188840000Y-93590000D01*
X189740000Y-93590000D01*
X188840000Y-94490000D01*
G37*
D11*
%TO.C,D2*%
X246735000Y-71520000D02*
X247235000Y-71020000D01*
X246735000Y-75020000D02*
X247235000Y-75520000D01*
X247235000Y-71020000D02*
X250235000Y-71020000D01*
X247235000Y-75520000D02*
X249735000Y-75520000D01*
X250235000Y-71020000D02*
X250735000Y-71520000D01*
X250735000Y-72520000D02*
X250735000Y-71520000D01*
X251235000Y-77020000D02*
X251235000Y-77720000D01*
X251235000Y-77720000D02*
X255735000Y-77720000D01*
X255735000Y-73020000D02*
X251235000Y-73020000D01*
X255735000Y-73620000D02*
X255735000Y-73020000D01*
X255735000Y-77720000D02*
X255735000Y-77220000D01*
X251235000Y-77020000D02*
G75*
G03*
X249735000Y-75520000I-1500000J0D01*
G01*
X250735000Y-72520000D02*
G75*
G03*
X251235000Y-73020000I500000J0D01*
G01*
D12*
X244535000Y-83020000D02*
X244535000Y-82120000D01*
X245435000Y-82120000D01*
X244535000Y-83020000D01*
G36*
X244535000Y-83020000D02*
G01*
X244535000Y-82120000D01*
X245435000Y-82120000D01*
X244535000Y-83020000D01*
G37*
D11*
%TO.C,D13*%
X161710000Y-102620000D02*
X162210000Y-102120000D01*
X161710000Y-106120000D02*
X162210000Y-106620000D01*
X162210000Y-102120000D02*
X165210000Y-102120000D01*
X162210000Y-106620000D02*
X164710000Y-106620000D01*
X165210000Y-102120000D02*
X165710000Y-102620000D01*
X165710000Y-103620000D02*
X165710000Y-102620000D01*
X166210000Y-108120000D02*
X166210000Y-108820000D01*
X166210000Y-108820000D02*
X170710000Y-108820000D01*
X170710000Y-104120000D02*
X166210000Y-104120000D01*
X170710000Y-104720000D02*
X170710000Y-104120000D01*
X170710000Y-108820000D02*
X170710000Y-108320000D01*
X166210000Y-108120000D02*
G75*
G03*
X164710000Y-106620000I-1500000J0D01*
G01*
X165710000Y-103620000D02*
G75*
G03*
X166210000Y-104120000I500000J0D01*
G01*
D12*
X159510000Y-114120000D02*
X159510000Y-113220000D01*
X160410000Y-113220000D01*
X159510000Y-114120000D01*
G36*
X159510000Y-114120000D02*
G01*
X159510000Y-113220000D01*
X160410000Y-113220000D01*
X159510000Y-114120000D01*
G37*
D11*
%TO.C,D3*%
X217640000Y-71640000D02*
X218140000Y-71140000D01*
X217640000Y-75140000D02*
X218140000Y-75640000D01*
X218140000Y-71140000D02*
X221140000Y-71140000D01*
X218140000Y-75640000D02*
X220640000Y-75640000D01*
X221140000Y-71140000D02*
X221640000Y-71640000D01*
X221640000Y-72640000D02*
X221640000Y-71640000D01*
X222140000Y-77140000D02*
X222140000Y-77840000D01*
X222140000Y-77840000D02*
X226640000Y-77840000D01*
X226640000Y-73140000D02*
X222140000Y-73140000D01*
X226640000Y-73740000D02*
X226640000Y-73140000D01*
X226640000Y-77840000D02*
X226640000Y-77340000D01*
X222140000Y-77140000D02*
G75*
G03*
X220640000Y-75640000I-1500000J0D01*
G01*
X221640000Y-72640000D02*
G75*
G03*
X222140000Y-73140000I500000J0D01*
G01*
D12*
X215440000Y-83140000D02*
X215440000Y-82240000D01*
X216340000Y-82240000D01*
X215440000Y-83140000D01*
G36*
X215440000Y-83140000D02*
G01*
X215440000Y-82240000D01*
X216340000Y-82240000D01*
X215440000Y-83140000D01*
G37*
D11*
%TO.C,D7*%
X100570000Y-59930000D02*
X101070000Y-59430000D01*
X100570000Y-63430000D02*
X101070000Y-63930000D01*
X101070000Y-59430000D02*
X104070000Y-59430000D01*
X101070000Y-63930000D02*
X103570000Y-63930000D01*
X104070000Y-59430000D02*
X104570000Y-59930000D01*
X104570000Y-60930000D02*
X104570000Y-59930000D01*
X105070000Y-65430000D02*
X105070000Y-66130000D01*
X105070000Y-66130000D02*
X109570000Y-66130000D01*
X109570000Y-61430000D02*
X105070000Y-61430000D01*
X109570000Y-62030000D02*
X109570000Y-61430000D01*
X109570000Y-66130000D02*
X109570000Y-65630000D01*
X105070000Y-65430000D02*
G75*
G03*
X103570000Y-63930000I-1500000J0D01*
G01*
X104570000Y-60930000D02*
G75*
G03*
X105070000Y-61430000I500000J0D01*
G01*
D12*
X98370000Y-71430000D02*
X98370000Y-70530000D01*
X99270000Y-70530000D01*
X98370000Y-71430000D01*
G36*
X98370000Y-71430000D02*
G01*
X98370000Y-70530000D01*
X99270000Y-70530000D01*
X98370000Y-71430000D01*
G37*
D11*
%TO.C,D12*%
X71600000Y-60170000D02*
X72100000Y-59670000D01*
X71600000Y-63670000D02*
X72100000Y-64170000D01*
X72100000Y-59670000D02*
X75100000Y-59670000D01*
X72100000Y-64170000D02*
X74600000Y-64170000D01*
X75100000Y-59670000D02*
X75600000Y-60170000D01*
X75600000Y-61170000D02*
X75600000Y-60170000D01*
X76100000Y-65670000D02*
X76100000Y-66370000D01*
X76100000Y-66370000D02*
X80600000Y-66370000D01*
X80600000Y-61670000D02*
X76100000Y-61670000D01*
X80600000Y-62270000D02*
X80600000Y-61670000D01*
X80600000Y-66370000D02*
X80600000Y-65870000D01*
X76100000Y-65670000D02*
G75*
G03*
X74600000Y-64170000I-1500000J0D01*
G01*
X75600000Y-61170000D02*
G75*
G03*
X76100000Y-61670000I500000J0D01*
G01*
D12*
X69400000Y-71670000D02*
X69400000Y-70770000D01*
X70300000Y-70770000D01*
X69400000Y-71670000D01*
G36*
X69400000Y-71670000D02*
G01*
X69400000Y-70770000D01*
X70300000Y-70770000D01*
X69400000Y-71670000D01*
G37*
D13*
%TO.C,C1*%
X159907836Y-58960000D02*
X159692164Y-58960000D01*
X159907836Y-58240000D02*
X159692164Y-58240000D01*
%TO.C,C2*%
X179007836Y-79060000D02*
X178792164Y-79060000D01*
X179007836Y-78340000D02*
X178792164Y-78340000D01*
%TO.C,C4*%
X164660000Y-62512164D02*
X164660000Y-62727836D01*
X163940000Y-62512164D02*
X163940000Y-62727836D01*
%TO.C,C5*%
X182560000Y-62692164D02*
X182560000Y-62907836D01*
X181840000Y-62692164D02*
X181840000Y-62907836D01*
%TO.C,C6*%
X173040000Y-64907836D02*
X173040000Y-64692164D01*
X173760000Y-64907836D02*
X173760000Y-64692164D01*
%TO.C,C7*%
X175581644Y-77342164D02*
X175581644Y-77557836D01*
X174861644Y-77342164D02*
X174861644Y-77557836D01*
%TO.C,C8*%
X177540000Y-64957836D02*
X177540000Y-64742164D01*
X178260000Y-64957836D02*
X178260000Y-64742164D01*
%TO.C,C9*%
X176140000Y-64907836D02*
X176140000Y-64692164D01*
X176860000Y-64907836D02*
X176860000Y-64692164D01*
%TO.C,C10*%
X171107836Y-67110000D02*
X170892164Y-67110000D01*
X171107836Y-66390000D02*
X170892164Y-66390000D01*
%TO.C,C15*%
X171107836Y-69160000D02*
X170892164Y-69160000D01*
X171107836Y-68440000D02*
X170892164Y-68440000D01*
%TO.C,C16*%
X171107836Y-68110000D02*
X170892164Y-68110000D01*
X171107836Y-67390000D02*
X170892164Y-67390000D01*
%TO.C,R1*%
X193896359Y-62020000D02*
X194203641Y-62020000D01*
X193896359Y-62780000D02*
X194203641Y-62780000D01*
%TO.C,R2*%
X194253641Y-61680000D02*
X193946359Y-61680000D01*
X194253641Y-60920000D02*
X193946359Y-60920000D01*
%TO.C,R4*%
X174800000Y-64646359D02*
X174800000Y-64953641D01*
X174040000Y-64646359D02*
X174040000Y-64953641D01*
%TO.C,U1*%
X161550000Y-59440000D02*
X160750000Y-59440000D01*
X161550000Y-59440000D02*
X162350000Y-59440000D01*
X161550000Y-62560000D02*
X159750000Y-62560000D01*
X161550000Y-62560000D02*
X162350000Y-62560000D01*
%TO.C,U2*%
X190725000Y-66975000D02*
X190725000Y-66715000D01*
X190725000Y-61785000D02*
X192400000Y-61785000D01*
X190725000Y-61525000D02*
X190725000Y-61785000D01*
X188000000Y-66975000D02*
X190725000Y-66975000D01*
X188000000Y-66975000D02*
X185275000Y-66975000D01*
X188000000Y-61525000D02*
X190725000Y-61525000D01*
X188000000Y-61525000D02*
X185275000Y-61525000D01*
X185275000Y-66975000D02*
X185275000Y-66715000D01*
X185275000Y-61525000D02*
X185275000Y-61785000D01*
%TO.C,U3*%
X180431644Y-75160000D02*
X180431644Y-74510000D01*
X179781644Y-75160000D02*
X180431644Y-75160000D01*
X179781644Y-67940000D02*
X180431644Y-67940000D01*
X173861644Y-75160000D02*
X173211644Y-75160000D01*
X173861644Y-67940000D02*
X173211644Y-67940000D01*
X173211644Y-75160000D02*
X173211644Y-74510000D01*
X173211644Y-67940000D02*
X173211644Y-68590000D01*
%TO.C,Y1*%
X180371644Y-82850000D02*
X176371644Y-82850000D01*
X180371644Y-79550000D02*
X180371644Y-82850000D01*
%TO.C,R3*%
X175880000Y-64646359D02*
X175880000Y-64953641D01*
X175120000Y-64646359D02*
X175120000Y-64953641D01*
%TO.C,C3*%
X176031644Y-80692164D02*
X176031644Y-80907836D01*
X175311644Y-80692164D02*
X175311644Y-80907836D01*
%TO.C,C13*%
X182163808Y-72140000D02*
X182379480Y-72140000D01*
X182163808Y-72860000D02*
X182379480Y-72860000D01*
%TO.C,C12*%
X171107836Y-72660000D02*
X170892164Y-72660000D01*
X171107836Y-71940000D02*
X170892164Y-71940000D01*
%TO.C,R5*%
X176891644Y-78453641D02*
X176891644Y-78146359D01*
X177651644Y-78453641D02*
X177651644Y-78146359D01*
%TO.C,C14*%
X176611644Y-77342164D02*
X176611644Y-77557836D01*
X175891644Y-77342164D02*
X175891644Y-77557836D01*
%TO.C,C11*%
X182163808Y-68540000D02*
X182379480Y-68540000D01*
X182163808Y-69260000D02*
X182379480Y-69260000D01*
%TO.C,R17*%
X183980000Y-48156359D02*
X183980000Y-48463641D01*
X183220000Y-48156359D02*
X183220000Y-48463641D01*
%TO.C,C20*%
X188990000Y-47940580D02*
X188990000Y-47659420D01*
X190010000Y-47940580D02*
X190010000Y-47659420D01*
%TO.C,DS1*%
X191615000Y-54465000D02*
X191615000Y-55065000D01*
X191505000Y-54465000D02*
X191615000Y-54465000D01*
X174390000Y-51925000D02*
X174190000Y-52325000D01*
X174190000Y-52325000D02*
X173990000Y-51925000D01*
X173990000Y-51925000D02*
X174390000Y-51925000D01*
X171075000Y-54465000D02*
X170965000Y-54465000D01*
X170965000Y-54465000D02*
X170965000Y-55065000D01*
%TO.C,R16*%
X182980000Y-48146359D02*
X182980000Y-48453641D01*
X182220000Y-48146359D02*
X182220000Y-48453641D01*
%TO.C,C19*%
X173592164Y-48040000D02*
X173807836Y-48040000D01*
X173592164Y-48760000D02*
X173807836Y-48760000D01*
%TO.C,G\u002A\u002A\u002A*%
G36*
X241285085Y-141357797D02*
G01*
X241263560Y-141379322D01*
X241242034Y-141357797D01*
X241263560Y-141336272D01*
X241285085Y-141357797D01*
G37*
G36*
X241583666Y-133951616D02*
G01*
X241606782Y-133964543D01*
X241714361Y-134069955D01*
X241746393Y-134201128D01*
X241697821Y-134340823D01*
X241606152Y-134424940D01*
X241479456Y-134442495D01*
X241338048Y-134381352D01*
X241227457Y-134280624D01*
X241178884Y-134161230D01*
X241216302Y-134039531D01*
X241303754Y-133945919D01*
X241431455Y-133907532D01*
X241583666Y-133951616D01*
G37*
G36*
X242381388Y-126080658D02*
G01*
X242505748Y-126158792D01*
X242517705Y-126170112D01*
X242602801Y-126285207D01*
X242605312Y-126394820D01*
X242526055Y-126513243D01*
X242413201Y-126593606D01*
X242277531Y-126601291D01*
X242130382Y-126523655D01*
X242053661Y-126436328D01*
X242017620Y-126293431D01*
X242061515Y-126136492D01*
X242129743Y-126073665D01*
X242247089Y-126051832D01*
X242381388Y-126080658D01*
G37*
G36*
X227382067Y-130093292D02*
G01*
X227440435Y-130158157D01*
X227482814Y-130291775D01*
X227455360Y-130434470D01*
X227359252Y-130561994D01*
X227340245Y-130577412D01*
X227199811Y-130641342D01*
X227065095Y-130627513D01*
X226953647Y-130542199D01*
X226883014Y-130391677D01*
X226874319Y-130327173D01*
X226900305Y-130243343D01*
X226984497Y-130144135D01*
X227004677Y-130124549D01*
X227134961Y-130034292D01*
X227256163Y-130024460D01*
X227382067Y-130093292D01*
G37*
G36*
X240253820Y-125456768D02*
G01*
X240343762Y-125538848D01*
X240381017Y-125635237D01*
X240377786Y-125663298D01*
X240339467Y-125772104D01*
X240271796Y-125892611D01*
X240162575Y-126053344D01*
X239994887Y-125967796D01*
X239952647Y-125945314D01*
X239852818Y-125883815D01*
X239800065Y-125838345D01*
X239796479Y-125827592D01*
X239814524Y-125754488D01*
X239870813Y-125651442D01*
X239947829Y-125543685D01*
X240028056Y-125456450D01*
X240093977Y-125414969D01*
X240143922Y-125414117D01*
X240253820Y-125456768D01*
G37*
G36*
X233978117Y-134580753D02*
G01*
X234053580Y-134618355D01*
X234174032Y-134688534D01*
X234320268Y-134780313D01*
X234388369Y-134823488D01*
X234916758Y-135103422D01*
X235488584Y-135317116D01*
X236086695Y-135457991D01*
X236116219Y-135463776D01*
X236210236Y-135495802D01*
X236248136Y-135532583D01*
X236227453Y-135551049D01*
X236138772Y-135561584D01*
X235996315Y-135555983D01*
X235817660Y-135535829D01*
X235620385Y-135502706D01*
X235422069Y-135458196D01*
X235397480Y-135451595D01*
X235215660Y-135392850D01*
X235004892Y-135312490D01*
X234805932Y-135225883D01*
X234679037Y-135162730D01*
X234486510Y-135055172D01*
X234306962Y-134942321D01*
X234150712Y-134832137D01*
X234028081Y-134732582D01*
X233949388Y-134651615D01*
X233924954Y-134597197D01*
X233965098Y-134577289D01*
X233978117Y-134580753D01*
G37*
G36*
X229135062Y-129592699D02*
G01*
X229134005Y-129645959D01*
X229080170Y-129755594D01*
X229065044Y-129787258D01*
X229029438Y-129936353D01*
X229019308Y-130119215D01*
X229034867Y-130298229D01*
X229076326Y-130435782D01*
X229140949Y-130535329D01*
X229286809Y-130686293D01*
X229462437Y-130810660D01*
X229643541Y-130892450D01*
X229805832Y-130915684D01*
X229815239Y-130914963D01*
X229918025Y-130912984D01*
X229948808Y-130933147D01*
X229919661Y-130982543D01*
X229918698Y-130983681D01*
X229831378Y-131029641D01*
X229695926Y-131045351D01*
X229544295Y-131030639D01*
X229408441Y-130985330D01*
X229390742Y-130975848D01*
X229193922Y-130822846D01*
X229033927Y-130613765D01*
X228926324Y-130374140D01*
X228886681Y-130129507D01*
X228889406Y-130092990D01*
X228915326Y-129977479D01*
X228960323Y-129843284D01*
X229014120Y-129715885D01*
X229066438Y-129620761D01*
X229106997Y-129583390D01*
X229135062Y-129592699D01*
G37*
G36*
X241998732Y-117043618D02*
G01*
X242113050Y-117101361D01*
X242249905Y-117178275D01*
X242389611Y-117262663D01*
X242512481Y-117342830D01*
X242598830Y-117407080D01*
X242628971Y-117443717D01*
X242617702Y-117468151D01*
X242568235Y-117561067D01*
X242484258Y-117713327D01*
X242370903Y-117915787D01*
X242233299Y-118159300D01*
X242076576Y-118434721D01*
X241905862Y-118732905D01*
X241194971Y-119970987D01*
X240918279Y-119824063D01*
X240905420Y-119817205D01*
X240768108Y-119740065D01*
X240664390Y-119675010D01*
X240615851Y-119635496D01*
X240626798Y-119600994D01*
X240671302Y-119499154D01*
X240744712Y-119341145D01*
X240841619Y-119137884D01*
X240956613Y-118900289D01*
X241084283Y-118639277D01*
X241219220Y-118365765D01*
X241356014Y-118090671D01*
X241489254Y-117824911D01*
X241613532Y-117579404D01*
X241723436Y-117365066D01*
X241813557Y-117192815D01*
X241878485Y-117073567D01*
X241912811Y-117018241D01*
X241926638Y-117016742D01*
X241998732Y-117043618D01*
G37*
G36*
X233443715Y-123880465D02*
G01*
X233567909Y-123929543D01*
X233607018Y-123950146D01*
X233781984Y-124094444D01*
X233887840Y-124289544D01*
X233923390Y-124533420D01*
X233898133Y-124766735D01*
X233815255Y-124957188D01*
X233675307Y-125084093D01*
X233621538Y-125108261D01*
X233448354Y-125133666D01*
X233269692Y-125101781D01*
X233124045Y-125017272D01*
X233055648Y-124941068D01*
X233048622Y-124893071D01*
X233115572Y-124886815D01*
X233255344Y-124923128D01*
X233266337Y-124926666D01*
X233466065Y-124957651D01*
X233627134Y-124914503D01*
X233745205Y-124798327D01*
X233782851Y-124694631D01*
X233799457Y-124536545D01*
X233787750Y-124376177D01*
X233747550Y-124255260D01*
X233732323Y-124232637D01*
X233602286Y-124113384D01*
X233437636Y-124046905D01*
X233265303Y-124039833D01*
X233112219Y-124098798D01*
X233037522Y-124139124D01*
X232988102Y-124142113D01*
X232986426Y-124140271D01*
X232992121Y-124089705D01*
X233053538Y-124020465D01*
X233150183Y-123950779D01*
X233261564Y-123898876D01*
X233340495Y-123877853D01*
X233443715Y-123880465D01*
G37*
G36*
X238349811Y-125253181D02*
G01*
X238495797Y-125304890D01*
X238603749Y-125384098D01*
X238650314Y-125448745D01*
X238704919Y-125619599D01*
X238680648Y-125806464D01*
X238579468Y-126001376D01*
X238403341Y-126196371D01*
X238398302Y-126200912D01*
X238276983Y-126297164D01*
X238170682Y-126342944D01*
X238042126Y-126354577D01*
X237924486Y-126343396D01*
X237778072Y-126276580D01*
X237694717Y-126151746D01*
X237676853Y-125971448D01*
X237678426Y-125953150D01*
X237701360Y-125836435D01*
X237734499Y-125787534D01*
X237767493Y-125811688D01*
X237789994Y-125914141D01*
X237793387Y-125940426D01*
X237848897Y-126074674D01*
X237952066Y-126150211D01*
X238087669Y-126164819D01*
X238240477Y-126116277D01*
X238395262Y-126002367D01*
X238475127Y-125911723D01*
X238558780Y-125750691D01*
X238568256Y-125600036D01*
X238504100Y-125471762D01*
X238366858Y-125377868D01*
X238331408Y-125363751D01*
X238202831Y-125334148D01*
X238088560Y-125355440D01*
X238075375Y-125360216D01*
X237990548Y-125375440D01*
X237975132Y-125345160D01*
X238035093Y-125278017D01*
X238072061Y-125256193D01*
X238197873Y-125234953D01*
X238349811Y-125253181D01*
G37*
G36*
X236864360Y-124822449D02*
G01*
X237024578Y-124913755D01*
X237057908Y-124947842D01*
X237145524Y-125107977D01*
X237174054Y-125302560D01*
X237147452Y-125513326D01*
X237069670Y-125722015D01*
X236944664Y-125910364D01*
X236776387Y-126060111D01*
X236694968Y-126101040D01*
X236519212Y-126136590D01*
X236340496Y-126121023D01*
X236195193Y-126054680D01*
X236141057Y-126003698D01*
X236054581Y-125878558D01*
X236005484Y-125746039D01*
X236007923Y-125637660D01*
X236027765Y-125606159D01*
X236060971Y-125623590D01*
X236114743Y-125712226D01*
X236191324Y-125815469D01*
X236345584Y-125917446D01*
X236444937Y-125948579D01*
X236538117Y-125946681D01*
X236654118Y-125901082D01*
X236758239Y-125834144D01*
X236891897Y-125684396D01*
X236983592Y-125500221D01*
X237022128Y-125306860D01*
X236996309Y-125129556D01*
X236928488Y-125039762D01*
X236797813Y-124971740D01*
X236633467Y-124943100D01*
X236459997Y-124957733D01*
X236301949Y-125019529D01*
X236221926Y-125062304D01*
X236168942Y-125071048D01*
X236181645Y-125028565D01*
X236262768Y-124940375D01*
X236299941Y-124908953D01*
X236474373Y-124821015D01*
X236671736Y-124791858D01*
X236864360Y-124822449D01*
G37*
G36*
X235052216Y-124455543D02*
G01*
X235214636Y-124539641D01*
X235348619Y-124675307D01*
X235439651Y-124853207D01*
X235473221Y-125064005D01*
X235472355Y-125109255D01*
X235437903Y-125353055D01*
X235359659Y-125569118D01*
X235246496Y-125738567D01*
X235107288Y-125842522D01*
X235051052Y-125861083D01*
X234876633Y-125867566D01*
X234701215Y-125815502D01*
X234560698Y-125713376D01*
X234516377Y-125655890D01*
X234439019Y-125500077D01*
X234402750Y-125337889D01*
X234417129Y-125203291D01*
X234441315Y-125178539D01*
X234473360Y-125222493D01*
X234518724Y-125342882D01*
X234548574Y-125418380D01*
X234656623Y-125579082D01*
X234793282Y-125674000D01*
X234943983Y-125699372D01*
X235094163Y-125651435D01*
X235229254Y-125526426D01*
X235273924Y-125445805D01*
X235322176Y-125278072D01*
X235341269Y-125089514D01*
X235328842Y-124913106D01*
X235282537Y-124781826D01*
X235262039Y-124752890D01*
X235117759Y-124626102D01*
X234940798Y-124565597D01*
X234755266Y-124580577D01*
X234670807Y-124602578D01*
X234586861Y-124608164D01*
X234571195Y-124580236D01*
X234630513Y-124521943D01*
X234700116Y-124479394D01*
X234875872Y-124432349D01*
X235052216Y-124455543D01*
G37*
G36*
X230771728Y-132566806D02*
G01*
X230838727Y-132696000D01*
X230888747Y-132788746D01*
X231091234Y-133065096D01*
X231346331Y-133305951D01*
X231628747Y-133486019D01*
X231720540Y-133529152D01*
X231833879Y-133571261D01*
X231951585Y-133595214D01*
X232100879Y-133605901D01*
X232308983Y-133608211D01*
X232451137Y-133607104D01*
X232619516Y-133599419D01*
X232746432Y-133580212D01*
X232859052Y-133544642D01*
X232984546Y-133487871D01*
X233105230Y-133420773D01*
X233288711Y-133298336D01*
X233449020Y-133170689D01*
X233453824Y-133166379D01*
X233565154Y-133072031D01*
X233649695Y-133010332D01*
X233689480Y-132994452D01*
X233690060Y-132995254D01*
X233670950Y-133038225D01*
X233606768Y-133125028D01*
X233510616Y-133237836D01*
X233399894Y-133351423D01*
X233092883Y-133585198D01*
X232748703Y-133742427D01*
X232661435Y-133763862D01*
X232459757Y-133786654D01*
X232220928Y-133788658D01*
X232091495Y-133779384D01*
X231728403Y-133699541D01*
X231400613Y-133541208D01*
X231106936Y-133303868D01*
X231013289Y-133200298D01*
X230883757Y-133021838D01*
X230781036Y-132838372D01*
X230716696Y-132671647D01*
X230702309Y-132543411D01*
X230708759Y-132515807D01*
X230730731Y-132509344D01*
X230771728Y-132566806D01*
G37*
G36*
X230430615Y-115603705D02*
G01*
X230459401Y-115719832D01*
X230500579Y-115896685D01*
X230551551Y-116122201D01*
X230609719Y-116384317D01*
X230672487Y-116670969D01*
X230737258Y-116970096D01*
X230801433Y-117269634D01*
X230862416Y-117557521D01*
X230917609Y-117821692D01*
X230964415Y-118050086D01*
X231000238Y-118230639D01*
X231022479Y-118351289D01*
X231028541Y-118399972D01*
X230983979Y-118434982D01*
X230877938Y-118480222D01*
X230734512Y-118524506D01*
X230594540Y-118560707D01*
X230481496Y-118588924D01*
X230426711Y-118601261D01*
X230420307Y-118601369D01*
X230410340Y-118595086D01*
X230398001Y-118574292D01*
X230381027Y-118531370D01*
X230357154Y-118458707D01*
X230324119Y-118348688D01*
X230279657Y-118193698D01*
X230221505Y-117986124D01*
X230147400Y-117718350D01*
X230055077Y-117382762D01*
X229942272Y-116971745D01*
X229926331Y-116913452D01*
X229845648Y-116612373D01*
X229775421Y-116340290D01*
X229718237Y-116107979D01*
X229676682Y-115926212D01*
X229653341Y-115805762D01*
X229650800Y-115757405D01*
X229653748Y-115755180D01*
X229713845Y-115731745D01*
X229828353Y-115697092D01*
X229974419Y-115657085D01*
X230129192Y-115617586D01*
X230269820Y-115584459D01*
X230373451Y-115563565D01*
X230417233Y-115560769D01*
X230430615Y-115603705D01*
G37*
G36*
X245700795Y-122865480D02*
G01*
X245778819Y-122977960D01*
X245887935Y-123144309D01*
X246025048Y-123360560D01*
X246034067Y-123375002D01*
X246516870Y-124229025D01*
X246931492Y-125129702D01*
X247275929Y-126068704D01*
X247548177Y-127037703D01*
X247746231Y-128028371D01*
X247868086Y-129032382D01*
X247911739Y-130041407D01*
X247875185Y-131047119D01*
X247776787Y-131933131D01*
X247586078Y-132958980D01*
X247317079Y-133957983D01*
X246972251Y-134926094D01*
X246554056Y-135859264D01*
X246064954Y-136753447D01*
X245507405Y-137604595D01*
X244883872Y-138408660D01*
X244196814Y-139161596D01*
X243448694Y-139859354D01*
X242641970Y-140497888D01*
X241779106Y-141073150D01*
X241619401Y-141169337D01*
X241466472Y-141258539D01*
X241363381Y-141315080D01*
X241316069Y-141335953D01*
X241330476Y-141318154D01*
X241412541Y-141258675D01*
X241687734Y-141065113D01*
X242576550Y-140383032D01*
X243389543Y-139665213D01*
X244130256Y-138907834D01*
X244802236Y-138107071D01*
X245409028Y-137259100D01*
X245954176Y-136360098D01*
X245962267Y-136345542D01*
X246405013Y-135463730D01*
X246782351Y-134536293D01*
X247092071Y-133573967D01*
X247331963Y-132587487D01*
X247499815Y-131587590D01*
X247593419Y-130585010D01*
X247610562Y-129590484D01*
X247549034Y-128614746D01*
X247489429Y-128118053D01*
X247342017Y-127226526D01*
X247143585Y-126370625D01*
X246889200Y-125535015D01*
X246573927Y-124704365D01*
X246192831Y-123863341D01*
X245740978Y-122996611D01*
X245684237Y-122890921D01*
X245650407Y-122817994D01*
X245656959Y-122810836D01*
X245700795Y-122865480D01*
G37*
G36*
X237893345Y-142241265D02*
G01*
X237918941Y-142292072D01*
X237901585Y-142317417D01*
X237818150Y-142373430D01*
X237678006Y-142450409D01*
X237493879Y-142541808D01*
X237278494Y-142641083D01*
X237044577Y-142741693D01*
X236808568Y-142827578D01*
X236593465Y-142876594D01*
X236434167Y-142876124D01*
X236337426Y-142825367D01*
X236307151Y-142775287D01*
X236268409Y-142641800D01*
X236261093Y-142526914D01*
X236429477Y-142526914D01*
X236431791Y-142582438D01*
X236472528Y-142678717D01*
X236473792Y-142680348D01*
X236510532Y-142716132D01*
X236559907Y-142724961D01*
X236644345Y-142705137D01*
X236786271Y-142654962D01*
X236811530Y-142645540D01*
X237005891Y-142568713D01*
X237201288Y-142485047D01*
X237381499Y-142402241D01*
X237530304Y-142327996D01*
X237631483Y-142270013D01*
X237668814Y-142235992D01*
X237659168Y-142186823D01*
X237621046Y-142097014D01*
X237571835Y-142016770D01*
X237531036Y-141982034D01*
X237510699Y-141986529D01*
X237426904Y-142019919D01*
X237311929Y-142075193D01*
X237291737Y-142085376D01*
X237151805Y-142151031D01*
X236972081Y-142230087D01*
X236786271Y-142307641D01*
X236777440Y-142311224D01*
X236585753Y-142397031D01*
X236471779Y-142467691D01*
X236429477Y-142526914D01*
X236261093Y-142526914D01*
X236259117Y-142495886D01*
X236284558Y-142381877D01*
X236335022Y-142331706D01*
X236450058Y-142263139D01*
X236601352Y-142198133D01*
X236651845Y-142179106D01*
X236835440Y-142103143D01*
X237046387Y-142008662D01*
X237248400Y-141911725D01*
X237624426Y-141723536D01*
X237764701Y-141992701D01*
X237768291Y-141999591D01*
X237839313Y-142136366D01*
X237890629Y-142235992D01*
X237893345Y-142241265D01*
G37*
G36*
X224521107Y-123470889D02*
G01*
X224503757Y-123516084D01*
X224454504Y-123621320D01*
X224380248Y-123772241D01*
X224287887Y-123954492D01*
X224254329Y-124020213D01*
X223818566Y-124946948D01*
X223462452Y-125857675D01*
X223183582Y-126761309D01*
X222979550Y-127666767D01*
X222847950Y-128582963D01*
X222786376Y-129518814D01*
X222780441Y-129907201D01*
X222818730Y-130948706D01*
X222937112Y-131960127D01*
X223135883Y-132942168D01*
X223415340Y-133895534D01*
X223775779Y-134820929D01*
X224217497Y-135719057D01*
X224740791Y-136590624D01*
X225345957Y-137436332D01*
X226033293Y-138256888D01*
X226803095Y-139052994D01*
X226830539Y-139079564D01*
X227009943Y-139256114D01*
X227127560Y-139378168D01*
X227182844Y-139445549D01*
X227175245Y-139458079D01*
X227104216Y-139415578D01*
X226969210Y-139317869D01*
X226769677Y-139164774D01*
X226505069Y-138956115D01*
X225819872Y-138359940D01*
X225167529Y-137682887D01*
X224574101Y-136948676D01*
X224042649Y-136162783D01*
X223576235Y-135330687D01*
X223177919Y-134457866D01*
X222850763Y-133549798D01*
X222597828Y-132611960D01*
X222422176Y-131649831D01*
X222415166Y-131595359D01*
X222391992Y-131333543D01*
X222375670Y-131009342D01*
X222366077Y-130641292D01*
X222363088Y-130247929D01*
X222366581Y-129847788D01*
X222376431Y-129459406D01*
X222392514Y-129101319D01*
X222414706Y-128792061D01*
X222442884Y-128550170D01*
X222549305Y-127944213D01*
X222757661Y-127061633D01*
X223024474Y-126227732D01*
X223354645Y-125429691D01*
X223753076Y-124654692D01*
X224224667Y-123889916D01*
X224332366Y-123730321D01*
X224425941Y-123595182D01*
X224491999Y-123503770D01*
X224520611Y-123470170D01*
X224521107Y-123470889D01*
G37*
G36*
X238444218Y-143272073D02*
G01*
X238174906Y-143409501D01*
X238108304Y-143442922D01*
X237921526Y-143533518D01*
X237706147Y-143634962D01*
X237496610Y-143730932D01*
X237436050Y-143757601D01*
X237162881Y-143860583D01*
X236942975Y-143912235D01*
X236781052Y-143911816D01*
X236681832Y-143858588D01*
X236677247Y-143852568D01*
X236636596Y-143763553D01*
X236606194Y-143642359D01*
X236605203Y-143636091D01*
X236604621Y-143619130D01*
X236772884Y-143619130D01*
X236809312Y-143706898D01*
X236842374Y-143756846D01*
X236884651Y-143789324D01*
X236930132Y-143774335D01*
X237045123Y-143728386D01*
X237218275Y-143655907D01*
X237439012Y-143561384D01*
X237696757Y-143449305D01*
X237980932Y-143324159D01*
X238056755Y-143287172D01*
X238149296Y-143228989D01*
X238185424Y-143186158D01*
X238184837Y-143178810D01*
X238161417Y-143103365D01*
X238118510Y-143007392D01*
X238076377Y-142937153D01*
X238073517Y-142936542D01*
X238019041Y-142954878D01*
X237911411Y-143002163D01*
X237770090Y-143069959D01*
X237751705Y-143079015D01*
X237556293Y-143170509D01*
X237330629Y-143269962D01*
X237119915Y-143357391D01*
X236959431Y-143424457D01*
X236837600Y-143489548D01*
X236778866Y-143550560D01*
X236772884Y-143619130D01*
X236604621Y-143619130D01*
X236601424Y-143526043D01*
X236635719Y-143436840D01*
X236719341Y-143357627D01*
X236863546Y-143277549D01*
X237079586Y-143185752D01*
X237088716Y-143182124D01*
X237310700Y-143089181D01*
X237553982Y-142980418D01*
X237767516Y-142878625D01*
X237832248Y-142847164D01*
X237979048Y-142782648D01*
X238090064Y-142743466D01*
X238145175Y-142737156D01*
X238181910Y-142782019D01*
X238243928Y-142883487D01*
X238315784Y-143017648D01*
X238400848Y-143186158D01*
X238444218Y-143272073D01*
G37*
G36*
X243851660Y-122790879D02*
G01*
X243907950Y-122855603D01*
X244000843Y-122971417D01*
X244120892Y-123126424D01*
X244258651Y-123308729D01*
X244700898Y-123940862D01*
X245199170Y-124779419D01*
X245616565Y-125645729D01*
X245953898Y-126542028D01*
X246211986Y-127470552D01*
X246391644Y-128433534D01*
X246493688Y-129433210D01*
X246509624Y-129765455D01*
X246500932Y-130746672D01*
X246410094Y-131714384D01*
X246239382Y-132663964D01*
X245991071Y-133590782D01*
X245667434Y-134490212D01*
X245270744Y-135357626D01*
X244803276Y-136188395D01*
X244267303Y-136977892D01*
X243665098Y-137721489D01*
X242998935Y-138414558D01*
X242271089Y-139052471D01*
X241483831Y-139630600D01*
X241362361Y-139711662D01*
X241180807Y-139830721D01*
X241066149Y-139901706D01*
X241018503Y-139923739D01*
X241037984Y-139895942D01*
X241124706Y-139817437D01*
X241278787Y-139687346D01*
X241500339Y-139504790D01*
X241610622Y-139412310D01*
X241902839Y-139151497D01*
X242221152Y-138849171D01*
X242546943Y-138524159D01*
X242861592Y-138195284D01*
X243146482Y-137881371D01*
X243382995Y-137601245D01*
X243851358Y-136981558D01*
X244396518Y-136144444D01*
X244863448Y-135277148D01*
X245254986Y-134373655D01*
X245573975Y-133427951D01*
X245823253Y-132434022D01*
X245828437Y-132409352D01*
X245998598Y-131396848D01*
X246083433Y-130392976D01*
X246082813Y-129396235D01*
X245996608Y-128405120D01*
X245824690Y-127418130D01*
X245566930Y-126433760D01*
X245223197Y-125450509D01*
X245189724Y-125367069D01*
X245021669Y-124980870D01*
X244817891Y-124553314D01*
X244590348Y-124107297D01*
X244350996Y-123665716D01*
X244111795Y-123251470D01*
X243884702Y-122887456D01*
X243883652Y-122885850D01*
X243842635Y-122811995D01*
X243839875Y-122781356D01*
X243851660Y-122790879D01*
G37*
G36*
X223187814Y-122829223D02*
G01*
X223163558Y-122886444D01*
X223107876Y-122994613D01*
X223029459Y-123136526D01*
X222885330Y-123398288D01*
X222493887Y-124195880D01*
X222143693Y-125041539D01*
X221844398Y-125910583D01*
X221605651Y-126778331D01*
X221445025Y-127553783D01*
X221305745Y-128568976D01*
X221242034Y-129593528D01*
X221252697Y-130620102D01*
X221336540Y-131641361D01*
X221492369Y-132649968D01*
X221718990Y-133638587D01*
X222015208Y-134599880D01*
X222379830Y-135526512D01*
X222811661Y-136411144D01*
X223309506Y-137246441D01*
X223503452Y-137533602D01*
X223913035Y-138087006D01*
X224350971Y-138606941D01*
X224828243Y-139104491D01*
X225355830Y-139590739D01*
X225944713Y-140076768D01*
X226605873Y-140573663D01*
X226652498Y-140610425D01*
X226640383Y-140610503D01*
X226577639Y-140578176D01*
X226475724Y-140520138D01*
X226346098Y-140443078D01*
X226200219Y-140353689D01*
X226049545Y-140258662D01*
X225905536Y-140164689D01*
X225581207Y-139937329D01*
X225019704Y-139494275D01*
X224471190Y-139002265D01*
X223958868Y-138482650D01*
X223505943Y-137956780D01*
X223475127Y-137917864D01*
X222962310Y-137204428D01*
X222496141Y-136429437D01*
X222083032Y-135606850D01*
X221729391Y-134750623D01*
X221441630Y-133874713D01*
X221226160Y-132993078D01*
X221072628Y-132082278D01*
X220968469Y-131026963D01*
X220942835Y-129977411D01*
X220994986Y-128939246D01*
X221124180Y-127918086D01*
X221329677Y-126919554D01*
X221610734Y-125949270D01*
X221966612Y-125012856D01*
X222396569Y-124115933D01*
X222425105Y-124063013D01*
X222525603Y-123882955D01*
X222641129Y-123683108D01*
X222763419Y-123476972D01*
X222884210Y-123278046D01*
X222995240Y-123099827D01*
X223088246Y-122955815D01*
X223154965Y-122859509D01*
X223187133Y-122824407D01*
X223187814Y-122829223D01*
G37*
G36*
X233966441Y-115756339D02*
G01*
X233611271Y-115782200D01*
X233581887Y-115784332D01*
X233388704Y-115798038D01*
X233210972Y-115810182D01*
X233083899Y-115818353D01*
X233046426Y-115820804D01*
X232955853Y-115835618D01*
X232921751Y-115874645D01*
X232920836Y-115957797D01*
X232923138Y-115990161D01*
X232931649Y-116109314D01*
X232944781Y-116292841D01*
X232961529Y-116526714D01*
X232980888Y-116796903D01*
X233001855Y-117089377D01*
X233014038Y-117263686D01*
X233031447Y-117531683D01*
X233044812Y-117762630D01*
X233053505Y-117944327D01*
X233056900Y-118064573D01*
X233054369Y-118111168D01*
X233053801Y-118111657D01*
X233001097Y-118126357D01*
X232887479Y-118145919D01*
X232736570Y-118166251D01*
X232729354Y-118167106D01*
X232578667Y-118181189D01*
X232465028Y-118184997D01*
X232412546Y-118177680D01*
X232401857Y-118136412D01*
X232382071Y-118020025D01*
X232355341Y-117840312D01*
X232323310Y-117608796D01*
X232287619Y-117337004D01*
X232249911Y-117036462D01*
X232215213Y-116755871D01*
X232180981Y-116483677D01*
X232151200Y-116251684D01*
X232127344Y-116071212D01*
X232110885Y-115953579D01*
X232103298Y-115910105D01*
X232062992Y-115912513D01*
X231954043Y-115926658D01*
X231793625Y-115950313D01*
X231598822Y-115981075D01*
X231411956Y-116008909D01*
X231245323Y-116028579D01*
X231127820Y-116036567D01*
X231077265Y-116031161D01*
X231075861Y-116029302D01*
X231054573Y-115970057D01*
X231026990Y-115859300D01*
X230998459Y-115724062D01*
X230974327Y-115591372D01*
X230959943Y-115488261D01*
X230960654Y-115441760D01*
X231009970Y-115425129D01*
X231134676Y-115401722D01*
X231320834Y-115374227D01*
X231555672Y-115343971D01*
X231826418Y-115312281D01*
X232120303Y-115280484D01*
X232424554Y-115249909D01*
X232726401Y-115221881D01*
X233013073Y-115197730D01*
X233271797Y-115178781D01*
X233489804Y-115166362D01*
X233654322Y-115161801D01*
X233966441Y-115161356D01*
X233966441Y-115756339D01*
G37*
G36*
X243337016Y-117818806D02*
G01*
X243583908Y-117982632D01*
X243869951Y-118182114D01*
X244179578Y-118405789D01*
X244497221Y-118642190D01*
X244807314Y-118879853D01*
X245094289Y-119107311D01*
X245342580Y-119313102D01*
X245676177Y-119598058D01*
X244679885Y-120692846D01*
X243683592Y-121787634D01*
X243409407Y-121546912D01*
X243371879Y-121513793D01*
X243252797Y-121403452D01*
X243189014Y-121329633D01*
X243170730Y-121278589D01*
X243188142Y-121236570D01*
X243217757Y-121199084D01*
X243296828Y-121101544D01*
X243406670Y-120967498D01*
X243533074Y-120814342D01*
X243626091Y-120699918D01*
X243728956Y-120567352D01*
X243799131Y-120469376D01*
X243825085Y-120421501D01*
X243804906Y-120389687D01*
X243720306Y-120309798D01*
X243576078Y-120191559D01*
X243379110Y-120040232D01*
X243136288Y-119861076D01*
X242854499Y-119659354D01*
X242540631Y-119440326D01*
X242535550Y-119413827D01*
X242542944Y-119323466D01*
X242562843Y-119193545D01*
X242590372Y-119049033D01*
X242620658Y-118914897D01*
X242648826Y-118816106D01*
X242670001Y-118777628D01*
X242701299Y-118789987D01*
X242797257Y-118846891D01*
X242944195Y-118943495D01*
X243131713Y-119072602D01*
X243349414Y-119227016D01*
X243586900Y-119399541D01*
X243833770Y-119582981D01*
X243840229Y-119587835D01*
X244001355Y-119708050D01*
X244135202Y-119806318D01*
X244227987Y-119872623D01*
X244265925Y-119896950D01*
X244288131Y-119877899D01*
X244352135Y-119808411D01*
X244440425Y-119705522D01*
X244600439Y-119514094D01*
X244029796Y-119087285D01*
X243933632Y-119015718D01*
X243708113Y-118850259D01*
X243487754Y-118691459D01*
X243293685Y-118554467D01*
X243147034Y-118454430D01*
X243087327Y-118414351D01*
X242958170Y-118322384D01*
X242868497Y-118250805D01*
X242834915Y-118212486D01*
X242854426Y-118164487D01*
X242909515Y-118065061D01*
X242987706Y-117937737D01*
X243057662Y-117836186D01*
X243139259Y-117746218D01*
X243192198Y-117729344D01*
X243337016Y-117818806D01*
G37*
G36*
X234659162Y-144285255D02*
G01*
X234547181Y-144382119D01*
X234519128Y-144405214D01*
X234471316Y-144434878D01*
X234409338Y-144455315D01*
X234318806Y-144468234D01*
X234185336Y-144475346D01*
X233994539Y-144478359D01*
X233732030Y-144478983D01*
X233719496Y-144478982D01*
X233455918Y-144477878D01*
X233263856Y-144473773D01*
X233129312Y-144465277D01*
X233038287Y-144451006D01*
X232976785Y-144429570D01*
X232930807Y-144399584D01*
X232832752Y-144320184D01*
X232850163Y-144091426D01*
X233035152Y-144091426D01*
X233038257Y-144212970D01*
X233048874Y-144267450D01*
X233059413Y-144273652D01*
X233142128Y-144292021D01*
X233284939Y-144308066D01*
X233468138Y-144320873D01*
X233672016Y-144329525D01*
X233876863Y-144333108D01*
X234062971Y-144330705D01*
X234210630Y-144321403D01*
X234249956Y-144316039D01*
X234366608Y-144286223D01*
X234435766Y-144247306D01*
X234445540Y-144207285D01*
X234449754Y-144094461D01*
X234445972Y-143930224D01*
X234435644Y-143733693D01*
X234420215Y-143523985D01*
X234401135Y-143320220D01*
X234379850Y-143141515D01*
X234357808Y-143006990D01*
X234336457Y-142935761D01*
X234304145Y-142921502D01*
X234200252Y-142905984D01*
X234044843Y-142894608D01*
X233857555Y-142887565D01*
X233658021Y-142885046D01*
X233465875Y-142887241D01*
X233300753Y-142894342D01*
X233182289Y-142906541D01*
X233130118Y-142924027D01*
X233129222Y-142925583D01*
X233111251Y-142995658D01*
X233092916Y-143128898D01*
X233075341Y-143306698D01*
X233059652Y-143510455D01*
X233046975Y-143721565D01*
X233038433Y-143921423D01*
X233035152Y-144091426D01*
X232850163Y-144091426D01*
X232886023Y-143620276D01*
X232898470Y-143462554D01*
X232917712Y-143239348D01*
X232935613Y-143054556D01*
X232950602Y-142924003D01*
X232961111Y-142863513D01*
X232961727Y-142861933D01*
X232989295Y-142819600D01*
X233041715Y-142788542D01*
X233131234Y-142766792D01*
X233270099Y-142752387D01*
X233470558Y-142743360D01*
X233744860Y-142737747D01*
X233798162Y-142737024D01*
X234037447Y-142735814D01*
X234207506Y-142739983D01*
X234322492Y-142750723D01*
X234396557Y-142769228D01*
X234443852Y-142796692D01*
X234466107Y-142820463D01*
X234494263Y-142875785D01*
X234518515Y-142966184D01*
X234541283Y-143104366D01*
X234564988Y-143303041D01*
X234592048Y-143574916D01*
X234641135Y-144094461D01*
X234659162Y-144285255D01*
G37*
G36*
X235277612Y-115725666D02*
G01*
X235269420Y-115878896D01*
X235262403Y-116081010D01*
X235268520Y-116217583D01*
X235292708Y-116301497D01*
X235339907Y-116345636D01*
X235415053Y-116362883D01*
X235523085Y-116366121D01*
X235619002Y-116371236D01*
X235782293Y-116385962D01*
X235985408Y-116407939D01*
X236204865Y-116434802D01*
X236217557Y-116436443D01*
X236418091Y-116460889D01*
X236584226Y-116478470D01*
X236698996Y-116487564D01*
X236745433Y-116486545D01*
X236746051Y-116485660D01*
X236759677Y-116432775D01*
X236783080Y-116313061D01*
X236813142Y-116143325D01*
X236846744Y-115940376D01*
X236849595Y-115922662D01*
X236883365Y-115721356D01*
X236913789Y-115554271D01*
X236937628Y-115438370D01*
X236951648Y-115390613D01*
X236962242Y-115388532D01*
X237036495Y-115393898D01*
X237161535Y-115410639D01*
X237314686Y-115434859D01*
X237473275Y-115462663D01*
X237614625Y-115490154D01*
X237716064Y-115513438D01*
X237754915Y-115528618D01*
X237750748Y-115550232D01*
X237730740Y-115646078D01*
X237696100Y-115809375D01*
X237648944Y-116030212D01*
X237591390Y-116298680D01*
X237525556Y-116604870D01*
X237453560Y-116938872D01*
X237404060Y-117168602D01*
X237335955Y-117485990D01*
X237275469Y-117769410D01*
X237224726Y-118008826D01*
X237185852Y-118194203D01*
X237160970Y-118315503D01*
X237152204Y-118362693D01*
X237139333Y-118377685D01*
X237073282Y-118390170D01*
X237020727Y-118385602D01*
X236907499Y-118369174D01*
X236768280Y-118345525D01*
X236630852Y-118319679D01*
X236522995Y-118296661D01*
X236472491Y-118281497D01*
X236471885Y-118279786D01*
X236476162Y-118224101D01*
X236492552Y-118102410D01*
X236518727Y-117930898D01*
X236552362Y-117725752D01*
X236557887Y-117692768D01*
X236589643Y-117490075D01*
X236612308Y-117322096D01*
X236623837Y-117205506D01*
X236622181Y-117156983D01*
X236612404Y-117152194D01*
X236534401Y-117134292D01*
X236396093Y-117111347D01*
X236216101Y-117085771D01*
X236013044Y-117059976D01*
X235805544Y-117036373D01*
X235612221Y-117017373D01*
X235451695Y-117005388D01*
X235193390Y-116991017D01*
X235155113Y-117564553D01*
X235116835Y-118138089D01*
X234789180Y-118108216D01*
X234756589Y-118105185D01*
X234604199Y-118089295D01*
X234493455Y-118074937D01*
X234446438Y-118064903D01*
X234444296Y-118040491D01*
X234443068Y-117939677D01*
X234443735Y-117770160D01*
X234446183Y-117542007D01*
X234450295Y-117265286D01*
X234455958Y-116950065D01*
X234463057Y-116606410D01*
X234494764Y-115161356D01*
X235308822Y-115161356D01*
X235277612Y-115725666D01*
G37*
G36*
X229093536Y-115926943D02*
G01*
X229122642Y-116017672D01*
X229172090Y-116174578D01*
X229238860Y-116388006D01*
X229319934Y-116648298D01*
X229412295Y-116945798D01*
X229512922Y-117270848D01*
X229578914Y-117484192D01*
X229675588Y-117796286D01*
X229762518Y-118076405D01*
X229836574Y-118314490D01*
X229894627Y-118500481D01*
X229933545Y-118624319D01*
X229950198Y-118675946D01*
X229950656Y-118681244D01*
X229907726Y-118721630D01*
X229797911Y-118775891D01*
X229635005Y-118836978D01*
X229583376Y-118854185D01*
X229438478Y-118900649D01*
X229335871Y-118930757D01*
X229295110Y-118938660D01*
X229293764Y-118935536D01*
X229271493Y-118876047D01*
X229225635Y-118750679D01*
X229160627Y-118571642D01*
X229080906Y-118351145D01*
X228990906Y-118101398D01*
X228966577Y-118034146D01*
X228877645Y-117794603D01*
X228798316Y-117590435D01*
X228733287Y-117433120D01*
X228687256Y-117334135D01*
X228664921Y-117304958D01*
X228648648Y-117332879D01*
X228607104Y-117440133D01*
X228551002Y-117612388D01*
X228483652Y-117837803D01*
X228408362Y-118104538D01*
X228328443Y-118400751D01*
X228247202Y-118714600D01*
X228167950Y-119034246D01*
X228093996Y-119347845D01*
X228084374Y-119379050D01*
X228035640Y-119450994D01*
X227938657Y-119524995D01*
X227777113Y-119614795D01*
X227754525Y-119626324D01*
X227611431Y-119696240D01*
X227499062Y-119746074D01*
X227440080Y-119765680D01*
X227439754Y-119765671D01*
X227406740Y-119728108D01*
X227339347Y-119624480D01*
X227243328Y-119464589D01*
X227124436Y-119258235D01*
X226988427Y-119015218D01*
X226841053Y-118745339D01*
X226707379Y-118497774D01*
X226556875Y-118219311D01*
X226418249Y-117963105D01*
X226298748Y-117742539D01*
X226205617Y-117570995D01*
X226146104Y-117461856D01*
X226002973Y-117200829D01*
X226348649Y-117016646D01*
X226424815Y-116977221D01*
X226573623Y-116907257D01*
X226687487Y-116863230D01*
X226746400Y-116853355D01*
X226749623Y-116855507D01*
X226788429Y-116911017D01*
X226855683Y-117030619D01*
X226945011Y-117202136D01*
X227050043Y-117413391D01*
X227164407Y-117652207D01*
X227185836Y-117697686D01*
X227296621Y-117930224D01*
X227394561Y-118131637D01*
X227473804Y-118290182D01*
X227528500Y-118394115D01*
X227552797Y-118431694D01*
X227570297Y-118396541D01*
X227603828Y-118293488D01*
X227648054Y-118138810D01*
X227698045Y-117948899D01*
X227709817Y-117903356D01*
X227776082Y-117664951D01*
X227859807Y-117384063D01*
X227951463Y-117092010D01*
X228041520Y-116820111D01*
X228262204Y-116175645D01*
X228671187Y-116038440D01*
X228790257Y-115998884D01*
X228941313Y-115950048D01*
X229046069Y-115917908D01*
X229086922Y-115907990D01*
X229093536Y-115926943D01*
G37*
G36*
X235455663Y-144365349D02*
G01*
X235431316Y-144451031D01*
X235321609Y-144639167D01*
X235148723Y-144809816D01*
X234928499Y-144949187D01*
X234676780Y-145043486D01*
X234668274Y-145045306D01*
X234573124Y-145054666D01*
X234409899Y-145061975D01*
X234193931Y-145066865D01*
X233940549Y-145068964D01*
X233665085Y-145067904D01*
X233607726Y-145067328D01*
X233319557Y-145063619D01*
X233101160Y-145058341D01*
X232938595Y-145050130D01*
X232817921Y-145037626D01*
X232725195Y-145019467D01*
X232646477Y-144994290D01*
X232567825Y-144960736D01*
X232324784Y-144823036D01*
X232156210Y-144661754D01*
X232059834Y-144470123D01*
X232035521Y-144287318D01*
X232196829Y-144287318D01*
X232207901Y-144375163D01*
X232250706Y-144473499D01*
X232377529Y-144625087D01*
X232557968Y-144752815D01*
X232771972Y-144840154D01*
X232816139Y-144851206D01*
X233034202Y-144887555D01*
X233310388Y-144912807D01*
X233622901Y-144925923D01*
X233949946Y-144925862D01*
X234269725Y-144911585D01*
X234569583Y-144874488D01*
X234857349Y-144793035D01*
X235071627Y-144670123D01*
X235214007Y-144504791D01*
X235286075Y-144296077D01*
X235288060Y-144276224D01*
X235283822Y-144158167D01*
X235264231Y-143981230D01*
X235232603Y-143763444D01*
X235192253Y-143522840D01*
X235146499Y-143277451D01*
X235098655Y-143045309D01*
X235052039Y-142844444D01*
X235009966Y-142692890D01*
X234975753Y-142608676D01*
X234961455Y-142588903D01*
X234866240Y-142491648D01*
X234747664Y-142402538D01*
X234705233Y-142377497D01*
X234642078Y-142348636D01*
X234565777Y-142328251D01*
X234461738Y-142314664D01*
X234315372Y-142306200D01*
X234112085Y-142301182D01*
X233837288Y-142297933D01*
X233538227Y-142296947D01*
X233276257Y-142302097D01*
X233075023Y-142315966D01*
X232921245Y-142340778D01*
X232801642Y-142378757D01*
X232702931Y-142432125D01*
X232611834Y-142503107D01*
X232552843Y-142555615D01*
X232506363Y-142604651D01*
X232469610Y-142661879D01*
X232438532Y-142740075D01*
X232409077Y-142852018D01*
X232377192Y-143010485D01*
X232338826Y-143228254D01*
X232289924Y-143518102D01*
X232260991Y-143694644D01*
X232222407Y-143957164D01*
X232201342Y-144151354D01*
X232196829Y-144287318D01*
X232035521Y-144287318D01*
X232029153Y-144239435D01*
X232031666Y-144186249D01*
X232046384Y-144041196D01*
X232071621Y-143844890D01*
X232104319Y-143616853D01*
X232141421Y-143376609D01*
X232179869Y-143143682D01*
X232216606Y-142937596D01*
X232248575Y-142777873D01*
X232272718Y-142684038D01*
X232275382Y-142676716D01*
X232370775Y-142510247D01*
X232517511Y-142352176D01*
X232685985Y-142234692D01*
X232726736Y-142214993D01*
X232799606Y-142187419D01*
X232886524Y-142167516D01*
X233001903Y-142153817D01*
X233160151Y-142144855D01*
X233375679Y-142139163D01*
X233662898Y-142135276D01*
X233902314Y-142134170D01*
X234148178Y-142136123D01*
X234358183Y-142141018D01*
X234515588Y-142148450D01*
X234603650Y-142158015D01*
X234805431Y-142234657D01*
X235001703Y-142389945D01*
X235146765Y-142606272D01*
X235174696Y-142675833D01*
X235226459Y-142847236D01*
X235280123Y-143067914D01*
X235332361Y-143318914D01*
X235379845Y-143581280D01*
X235419245Y-143836061D01*
X235447233Y-144064302D01*
X235460482Y-144247049D01*
X235459294Y-144276224D01*
X235455663Y-144365349D01*
G37*
G36*
X225425568Y-117842668D02*
G01*
X225658234Y-117916920D01*
X225710115Y-117946981D01*
X225778650Y-118002482D01*
X225851615Y-118085056D01*
X225938211Y-118206832D01*
X226047641Y-118379936D01*
X226189109Y-118616496D01*
X226220670Y-118670037D01*
X226374105Y-118931316D01*
X226489905Y-119132578D01*
X226573364Y-119285774D01*
X226629776Y-119402855D01*
X226664437Y-119495771D01*
X226682639Y-119576472D01*
X226689678Y-119656910D01*
X226690848Y-119749035D01*
X226688779Y-119828828D01*
X226663227Y-119999764D01*
X226600540Y-120150343D01*
X226490698Y-120295179D01*
X226323681Y-120448886D01*
X226089468Y-120626075D01*
X226048407Y-120655580D01*
X225863306Y-120791582D01*
X225660929Y-120944168D01*
X225453601Y-121103616D01*
X225253653Y-121260202D01*
X225073411Y-121404203D01*
X224925203Y-121525896D01*
X224821358Y-121615556D01*
X224774203Y-121663462D01*
X224766306Y-121675134D01*
X224731516Y-121705085D01*
X224700871Y-121679571D01*
X224622958Y-121599756D01*
X224508870Y-121477156D01*
X224369059Y-121323559D01*
X224213977Y-121150752D01*
X224054077Y-120970522D01*
X223899811Y-120794657D01*
X223761632Y-120634943D01*
X223649991Y-120503167D01*
X223575342Y-120411118D01*
X223548136Y-120370581D01*
X223574106Y-120335173D01*
X223657134Y-120254750D01*
X223785409Y-120140740D01*
X223946744Y-120003050D01*
X224128954Y-119851583D01*
X224319854Y-119696244D01*
X224507260Y-119546938D01*
X224678985Y-119413569D01*
X224822845Y-119306043D01*
X224926653Y-119234263D01*
X224978226Y-119208136D01*
X224996333Y-119232033D01*
X225025726Y-119320065D01*
X225057537Y-119449819D01*
X225086953Y-119596723D01*
X225109160Y-119736205D01*
X225119346Y-119843696D01*
X225112698Y-119894625D01*
X225107605Y-119898885D01*
X225046337Y-119947009D01*
X224939730Y-120028826D01*
X224807349Y-120129298D01*
X224538257Y-120332527D01*
X224698076Y-120523722D01*
X224768349Y-120606889D01*
X224836228Y-120684826D01*
X224865420Y-120714916D01*
X224897556Y-120693921D01*
X224984924Y-120631363D01*
X225112684Y-120538025D01*
X225266152Y-120424816D01*
X225430644Y-120302645D01*
X225591476Y-120182420D01*
X225733964Y-120075050D01*
X225843423Y-119991442D01*
X225905170Y-119942506D01*
X225972264Y-119874541D01*
X226002034Y-119820820D01*
X225990913Y-119792585D01*
X225940117Y-119701638D01*
X225856929Y-119564681D01*
X225750996Y-119396485D01*
X225631961Y-119211823D01*
X225509470Y-119025466D01*
X225393167Y-118852186D01*
X225292699Y-118706754D01*
X225217709Y-118603944D01*
X225177843Y-118558526D01*
X225118885Y-118547704D01*
X225020757Y-118567176D01*
X224986231Y-118583018D01*
X224863432Y-118655848D01*
X224690609Y-118772278D01*
X224478971Y-118924152D01*
X224239732Y-119103316D01*
X223984102Y-119301615D01*
X223723293Y-119510895D01*
X223266650Y-119883811D01*
X222947689Y-119738762D01*
X222904966Y-119718893D01*
X222768591Y-119647763D01*
X222685354Y-119590997D01*
X222668687Y-119557329D01*
X222759997Y-119475904D01*
X222969372Y-119297532D01*
X223212258Y-119098875D01*
X223476217Y-118889380D01*
X223748810Y-118678496D01*
X224017599Y-118475670D01*
X224270145Y-118290350D01*
X224494010Y-118131985D01*
X224676755Y-118010023D01*
X224805942Y-117933912D01*
X224910756Y-117888868D01*
X225166614Y-117833513D01*
X225425568Y-117842668D01*
G37*
G36*
X238262199Y-115642331D02*
G01*
X238396592Y-115674659D01*
X238593996Y-115729729D01*
X238843851Y-115804364D01*
X239135595Y-115895387D01*
X239458664Y-115999623D01*
X239802497Y-116113894D01*
X239999774Y-116181665D01*
X240312045Y-116297073D01*
X240555925Y-116401537D01*
X240741483Y-116500799D01*
X240878784Y-116600599D01*
X240977897Y-116706681D01*
X241048888Y-116824785D01*
X241099817Y-116948334D01*
X241127767Y-117072742D01*
X241127692Y-117206315D01*
X241096934Y-117362327D01*
X241032834Y-117554053D01*
X240932733Y-117794770D01*
X240793974Y-118097752D01*
X240783232Y-118120591D01*
X240633276Y-118429101D01*
X240505675Y-118667393D01*
X240393470Y-118845396D01*
X240289705Y-118973036D01*
X240187421Y-119060240D01*
X240079661Y-119116936D01*
X239978233Y-119147471D01*
X239845411Y-119160422D01*
X239684452Y-119147201D01*
X239482641Y-119105787D01*
X239227265Y-119034156D01*
X238905609Y-118930290D01*
X238760043Y-118881671D01*
X238499537Y-118795991D01*
X238253637Y-118716643D01*
X238044638Y-118650787D01*
X237894831Y-118605586D01*
X237865193Y-118596956D01*
X237721778Y-118552273D01*
X237620858Y-118515955D01*
X237582712Y-118495176D01*
X237585255Y-118475062D01*
X237604985Y-118381116D01*
X237640842Y-118229445D01*
X237688740Y-118035751D01*
X237744594Y-117815735D01*
X237804319Y-117585099D01*
X237863828Y-117359544D01*
X237919037Y-117154774D01*
X237965860Y-116986488D01*
X238000212Y-116870390D01*
X238018007Y-116822181D01*
X238053809Y-116815737D01*
X238159975Y-116829406D01*
X238319502Y-116863740D01*
X238517177Y-116914130D01*
X238737790Y-116975965D01*
X238966128Y-117044637D01*
X239186979Y-117115535D01*
X239385131Y-117184052D01*
X239545372Y-117245576D01*
X239652491Y-117295499D01*
X239691275Y-117329211D01*
X239691174Y-117330615D01*
X239660029Y-117386717D01*
X239584136Y-117482465D01*
X239479193Y-117597966D01*
X239268039Y-117817457D01*
X238958544Y-117713656D01*
X238934070Y-117705566D01*
X238780902Y-117660362D01*
X238659916Y-117633450D01*
X238595474Y-117630414D01*
X238589202Y-117634447D01*
X238552016Y-117694241D01*
X238509922Y-117798487D01*
X238472860Y-117916390D01*
X238450770Y-118017152D01*
X238453593Y-118069977D01*
X238465375Y-118075679D01*
X238542952Y-118105873D01*
X238680306Y-118156522D01*
X238862950Y-118222322D01*
X239076396Y-118297969D01*
X239165453Y-118329129D01*
X239385548Y-118403574D01*
X239542162Y-118450861D01*
X239647908Y-118473984D01*
X239715398Y-118475942D01*
X239757245Y-118459730D01*
X239761500Y-118455963D01*
X239805368Y-118388808D01*
X239871152Y-118260664D01*
X239951621Y-118088593D01*
X240039546Y-117889659D01*
X240127698Y-117680923D01*
X240208845Y-117479449D01*
X240275759Y-117302299D01*
X240321210Y-117166535D01*
X240337966Y-117089221D01*
X240329069Y-117054186D01*
X240258685Y-116984840D01*
X240111444Y-116907626D01*
X240053042Y-116883462D01*
X239895031Y-116824198D01*
X239685709Y-116750231D01*
X239443992Y-116667798D01*
X239188792Y-116583137D01*
X238939024Y-116502485D01*
X238713600Y-116432081D01*
X238531435Y-116378161D01*
X238411441Y-116346964D01*
X238399288Y-116344326D01*
X238307927Y-116322498D01*
X238269245Y-116309546D01*
X238268540Y-116306063D01*
X238258133Y-116245492D01*
X238238218Y-116126024D01*
X238212286Y-115968560D01*
X238193620Y-115847454D01*
X238180233Y-115720114D01*
X238185645Y-115653899D01*
X238209751Y-115634916D01*
X238262199Y-115642331D01*
G37*
G36*
X239495370Y-143296577D02*
G01*
X239514959Y-143333354D01*
X239491183Y-143350298D01*
X239396498Y-143408898D01*
X239251407Y-143493863D01*
X239072664Y-143595776D01*
X238877021Y-143705223D01*
X238681230Y-143812787D01*
X238502046Y-143909053D01*
X238356221Y-143984605D01*
X238164515Y-144077786D01*
X237927082Y-144187445D01*
X237681457Y-144296187D01*
X237449011Y-144394760D01*
X237251118Y-144473912D01*
X237109153Y-144524392D01*
X237105391Y-144525502D01*
X237005294Y-144542199D01*
X236852549Y-144554809D01*
X236678644Y-144560677D01*
X236601518Y-144560686D01*
X236430734Y-144550837D01*
X236302726Y-144521759D01*
X236186088Y-144467513D01*
X236071663Y-144384518D01*
X235923512Y-144195627D01*
X235828497Y-143949935D01*
X235791630Y-143657730D01*
X235782967Y-143506768D01*
X235743864Y-143315371D01*
X235661890Y-143117304D01*
X235588592Y-142947099D01*
X235548537Y-142778989D01*
X235537797Y-142577692D01*
X235538204Y-142554024D01*
X235688475Y-142554024D01*
X235691220Y-142603896D01*
X235722666Y-142767266D01*
X235779775Y-142945121D01*
X235850632Y-143104131D01*
X235923320Y-143210963D01*
X235935362Y-143223155D01*
X235989716Y-143293299D01*
X236000754Y-143368053D01*
X235975786Y-143485703D01*
X235955272Y-143613531D01*
X235969752Y-143828721D01*
X236034813Y-144034785D01*
X236141493Y-144207174D01*
X236280829Y-144321336D01*
X236439131Y-144379692D01*
X236665972Y-144404008D01*
X236931741Y-144372899D01*
X237244457Y-144285273D01*
X237612142Y-144140037D01*
X237730323Y-144087445D01*
X237996312Y-143964061D01*
X238263751Y-143834005D01*
X238521262Y-143703379D01*
X238757468Y-143578285D01*
X238960991Y-143464827D01*
X239120453Y-143369107D01*
X239224476Y-143297227D01*
X239261684Y-143255290D01*
X239261382Y-143253204D01*
X239233451Y-143198136D01*
X239165242Y-143085136D01*
X239064015Y-142925051D01*
X238937033Y-142728728D01*
X238791554Y-142507016D01*
X238634841Y-142270762D01*
X238474153Y-142030814D01*
X238316751Y-141798019D01*
X238169896Y-141583226D01*
X238040849Y-141397281D01*
X237936870Y-141251033D01*
X237865219Y-141155329D01*
X237833158Y-141121017D01*
X237815164Y-141126248D01*
X237732897Y-141164737D01*
X237604731Y-141232472D01*
X237449495Y-141319702D01*
X237276495Y-141413249D01*
X237049204Y-141526803D01*
X236800695Y-141644017D01*
X236560662Y-141750500D01*
X236518338Y-141768700D01*
X236311363Y-141862078D01*
X236128932Y-141951171D01*
X235989472Y-142026651D01*
X235911410Y-142079188D01*
X235803938Y-142212619D01*
X235720598Y-142387036D01*
X235688475Y-142554024D01*
X235538204Y-142554024D01*
X235539792Y-142461774D01*
X235555388Y-142328387D01*
X235595021Y-142221380D01*
X235668710Y-142104541D01*
X235670686Y-142101743D01*
X235767748Y-141989694D01*
X235900008Y-141884102D01*
X236079472Y-141777836D01*
X236318147Y-141663765D01*
X236628041Y-141534755D01*
X236769629Y-141473121D01*
X236976203Y-141373448D01*
X237202926Y-141256436D01*
X237421155Y-141136468D01*
X237450710Y-141119695D01*
X237629447Y-141022327D01*
X237778770Y-140947700D01*
X237883802Y-140902880D01*
X237929664Y-140894933D01*
X237963964Y-140941538D01*
X238037882Y-141049534D01*
X238143548Y-141207396D01*
X238274369Y-141404976D01*
X238423748Y-141632131D01*
X238585089Y-141878713D01*
X238751796Y-142134579D01*
X238917274Y-142389582D01*
X239074927Y-142633578D01*
X239218159Y-142856421D01*
X239340374Y-143047965D01*
X239434976Y-143198066D01*
X239470058Y-143255290D01*
X239495370Y-143296577D01*
G37*
G36*
X232205327Y-142204807D02*
G01*
X232062774Y-142324955D01*
X231892022Y-142461736D01*
X231704972Y-142605510D01*
X231513523Y-142746636D01*
X231329577Y-142875472D01*
X231169987Y-142986389D01*
X231034846Y-143085724D01*
X230943432Y-143159201D01*
X230909831Y-143196061D01*
X230919014Y-143227892D01*
X230962195Y-143327814D01*
X231033619Y-143477094D01*
X231125350Y-143660224D01*
X231229454Y-143861696D01*
X231337996Y-144066005D01*
X231443041Y-144257641D01*
X231536654Y-144421099D01*
X231576314Y-144488326D01*
X231666501Y-144642293D01*
X231738274Y-144766305D01*
X231778845Y-144838333D01*
X231790547Y-144861562D01*
X231794488Y-144896725D01*
X231748304Y-144903441D01*
X231634824Y-144887582D01*
X231628507Y-144886524D01*
X231500863Y-144861246D01*
X231331880Y-144822975D01*
X231142447Y-144777038D01*
X230953450Y-144728762D01*
X230785778Y-144683472D01*
X230660318Y-144646496D01*
X230597956Y-144623161D01*
X230596724Y-144622293D01*
X230559760Y-144570259D01*
X230497599Y-144460016D01*
X230419760Y-144310714D01*
X230335763Y-144141503D01*
X230255126Y-143971536D01*
X230187371Y-143819962D01*
X230142016Y-143705932D01*
X230095149Y-143571490D01*
X229932066Y-143654478D01*
X229901149Y-143669461D01*
X229764333Y-143728616D01*
X229586320Y-143798981D01*
X229397515Y-143868389D01*
X229026047Y-143999313D01*
X228622600Y-143775483D01*
X228591536Y-143758215D01*
X228315358Y-143600720D01*
X228114695Y-143477721D01*
X227993918Y-143392325D01*
X228312037Y-143392325D01*
X228480849Y-143498833D01*
X228521074Y-143523685D01*
X228681882Y-143617163D01*
X228839962Y-143702372D01*
X228907837Y-143734743D01*
X228993369Y-143762849D01*
X229083401Y-143769479D01*
X229192739Y-143751870D01*
X229336189Y-143707255D01*
X229528559Y-143632870D01*
X229784655Y-143525949D01*
X229905944Y-143475332D01*
X230053474Y-143416272D01*
X230156097Y-143378371D01*
X230196762Y-143368158D01*
X230206345Y-143389947D01*
X230238832Y-143473830D01*
X230284317Y-143596441D01*
X230291922Y-143616799D01*
X230355228Y-143770447D01*
X230439475Y-143958224D01*
X230528590Y-144144094D01*
X230609889Y-144303567D01*
X230672426Y-144406139D01*
X230733006Y-144467555D01*
X230809667Y-144506027D01*
X230920448Y-144539771D01*
X231125338Y-144596369D01*
X231312518Y-144646027D01*
X231429244Y-144674114D01*
X231469492Y-144679100D01*
X231467873Y-144675231D01*
X231438264Y-144617727D01*
X231377101Y-144502551D01*
X231291855Y-144343706D01*
X231189996Y-144155197D01*
X231154368Y-144089045D01*
X231025367Y-143842428D01*
X230910276Y-143611718D01*
X230814578Y-143408842D01*
X230743755Y-143245724D01*
X230703291Y-143134292D01*
X230698667Y-143086471D01*
X230732788Y-143062985D01*
X230825453Y-143000700D01*
X230961236Y-142910035D01*
X231125085Y-142801064D01*
X231248008Y-142718109D01*
X231449983Y-142577098D01*
X231636805Y-142441591D01*
X231779831Y-142332106D01*
X232025593Y-142134676D01*
X231745282Y-142057889D01*
X231464971Y-141981101D01*
X231327316Y-142085469D01*
X231230472Y-142154215D01*
X231086187Y-142247711D01*
X230926811Y-142344515D01*
X230769835Y-142434633D01*
X230632749Y-142508071D01*
X230533043Y-142554836D01*
X230488209Y-142564933D01*
X230486435Y-142562371D01*
X230464647Y-142501940D01*
X230427941Y-142376969D01*
X230380981Y-142203974D01*
X230328435Y-141999467D01*
X230192885Y-141458225D01*
X229963293Y-141332672D01*
X229856916Y-141275675D01*
X229759281Y-141226169D01*
X229714094Y-141207119D01*
X229708228Y-141215431D01*
X229707871Y-141288080D01*
X229722826Y-141423569D01*
X229750493Y-141607341D01*
X229788266Y-141824843D01*
X229833545Y-142061517D01*
X229883726Y-142302808D01*
X229936205Y-142534160D01*
X229988381Y-142741017D01*
X229993347Y-142768420D01*
X229981336Y-142810887D01*
X229930224Y-142852259D01*
X229825903Y-142902227D01*
X229654263Y-142970482D01*
X229531466Y-143015680D01*
X229299342Y-143095306D01*
X229044602Y-143177510D01*
X228803730Y-143250288D01*
X228312037Y-143392325D01*
X227993918Y-143392325D01*
X227987210Y-143387582D01*
X227930567Y-143328668D01*
X227942427Y-143299342D01*
X227979571Y-143288540D01*
X228090493Y-143258827D01*
X228249962Y-143217478D01*
X228437171Y-143169936D01*
X228440586Y-143169075D01*
X228605072Y-143124667D01*
X228803966Y-143066622D01*
X229020549Y-143000346D01*
X229238099Y-142931243D01*
X229439898Y-142864719D01*
X229609226Y-142806178D01*
X229729362Y-142761027D01*
X229783587Y-142734670D01*
X229784139Y-142733473D01*
X229779427Y-142679891D01*
X229759680Y-142560479D01*
X229727815Y-142391661D01*
X229686753Y-142189860D01*
X229671200Y-142113771D01*
X229629785Y-141893015D01*
X229590442Y-141660028D01*
X229555423Y-141430959D01*
X229526982Y-141221963D01*
X229507370Y-141049189D01*
X229498840Y-140928791D01*
X229503645Y-140876920D01*
X229538769Y-140888677D01*
X229627932Y-140935559D01*
X229750183Y-141007285D01*
X229853470Y-141069702D01*
X230032606Y-141175987D01*
X230188729Y-141266543D01*
X230226091Y-141288615D01*
X230351127Y-141384643D01*
X230393221Y-141467640D01*
X230393535Y-141478446D01*
X230406464Y-141575569D01*
X230434429Y-141716214D01*
X230472032Y-141879071D01*
X230513873Y-142042832D01*
X230554552Y-142186186D01*
X230588669Y-142287826D01*
X230610827Y-142326441D01*
X230645636Y-142310611D01*
X230739919Y-142255698D01*
X230876518Y-142170761D01*
X231039503Y-142065494D01*
X231436903Y-141804548D01*
X231889169Y-141913105D01*
X232039611Y-141950022D01*
X232200263Y-141991574D01*
X232313164Y-142023357D01*
X232360261Y-142040487D01*
X232358237Y-142052972D01*
X232307781Y-142110932D01*
X232281867Y-142134676D01*
X232205327Y-142204807D01*
G37*
G36*
X244404191Y-126395262D02*
G01*
X244694224Y-127316926D01*
X244908441Y-128277524D01*
X244933051Y-128419713D01*
X244957825Y-128583982D01*
X244976504Y-128745852D01*
X244989921Y-128920071D01*
X244998909Y-129121389D01*
X245004298Y-129364554D01*
X245006922Y-129664316D01*
X245007611Y-130035424D01*
X245007193Y-130336896D01*
X245005033Y-130650054D01*
X245000277Y-130903598D01*
X244992093Y-131112277D01*
X244979650Y-131290841D01*
X244962115Y-131454037D01*
X244938656Y-131616615D01*
X244908441Y-131793325D01*
X244719547Y-132660126D01*
X244437884Y-133586161D01*
X244081426Y-134469860D01*
X243650440Y-135310708D01*
X243145194Y-136108187D01*
X242565955Y-136861782D01*
X241912992Y-137570975D01*
X241641811Y-137831932D01*
X240915294Y-138449728D01*
X240144037Y-138994390D01*
X239330093Y-139464924D01*
X238475513Y-139860335D01*
X237582349Y-140179630D01*
X236652652Y-140421815D01*
X235688475Y-140585897D01*
X235525963Y-140602231D01*
X235231503Y-140619296D01*
X234885439Y-140628743D01*
X234507418Y-140630871D01*
X234117086Y-140625981D01*
X233734091Y-140614371D01*
X233378079Y-140596342D01*
X233068697Y-140572194D01*
X232825593Y-140542225D01*
X231987889Y-140375448D01*
X231063115Y-140112046D01*
X230176972Y-139771968D01*
X229330562Y-139355766D01*
X228524989Y-138863989D01*
X227761354Y-138297188D01*
X227040761Y-137655911D01*
X226707358Y-137318802D01*
X226077300Y-136594790D01*
X225523205Y-135830402D01*
X225044909Y-135025314D01*
X224642251Y-134179205D01*
X224315069Y-133291752D01*
X224063200Y-132362633D01*
X223886483Y-131391526D01*
X223868379Y-131226074D01*
X223850073Y-130949891D01*
X223837644Y-130622484D01*
X223836669Y-130569053D01*
X225959929Y-130569053D01*
X225973832Y-130713200D01*
X226030783Y-130911640D01*
X226120220Y-131082139D01*
X226229699Y-131195783D01*
X226291016Y-131220868D01*
X226426969Y-131264734D01*
X226626548Y-131323919D01*
X226879622Y-131395556D01*
X227176057Y-131476779D01*
X227505719Y-131564721D01*
X227858476Y-131656515D01*
X227864008Y-131657938D01*
X228266482Y-131761872D01*
X228593809Y-131847753D01*
X228854319Y-131918170D01*
X229056344Y-131975714D01*
X229208215Y-132022976D01*
X229318262Y-132062547D01*
X229394816Y-132097018D01*
X229446209Y-132128979D01*
X229480770Y-132161020D01*
X229511889Y-132199594D01*
X229598083Y-132317615D01*
X229715225Y-132486221D01*
X229853770Y-132691093D01*
X230004176Y-132917912D01*
X230156897Y-133152359D01*
X230302390Y-133380115D01*
X230431112Y-133586862D01*
X230618318Y-133846797D01*
X230872065Y-134096251D01*
X231124450Y-134297458D01*
X231100236Y-134512712D01*
X231090671Y-134595957D01*
X231020670Y-135135579D01*
X230930317Y-135738410D01*
X230822383Y-136387666D01*
X230699634Y-137066567D01*
X230564840Y-137758329D01*
X230519902Y-137991959D01*
X230482990Y-138222720D01*
X230469690Y-138375394D01*
X230479689Y-138452550D01*
X230511719Y-138494822D01*
X230625601Y-138590433D01*
X230797430Y-138701949D01*
X231011942Y-138821569D01*
X231253873Y-138941496D01*
X231507962Y-139053928D01*
X231758946Y-139151068D01*
X231991561Y-139225116D01*
X231996258Y-139226400D01*
X232209818Y-139280075D01*
X232454976Y-139334879D01*
X232679594Y-139379140D01*
X232882002Y-139407404D01*
X233171026Y-139433356D01*
X233500546Y-139452196D01*
X233846449Y-139463192D01*
X234184626Y-139465613D01*
X234490965Y-139458724D01*
X234741356Y-139441793D01*
X234765365Y-139439270D01*
X235063847Y-139402529D01*
X235380307Y-139354978D01*
X235701831Y-139299397D01*
X236015503Y-139238564D01*
X236308409Y-139175257D01*
X236567633Y-139112254D01*
X236780261Y-139052334D01*
X236933377Y-138998276D01*
X237014067Y-138952858D01*
X237037187Y-138922689D01*
X237052821Y-138861425D01*
X237047458Y-138760088D01*
X237021558Y-138596849D01*
X237019693Y-138585785D01*
X237004425Y-138446923D01*
X236990057Y-138231873D01*
X236976945Y-137949488D01*
X236965447Y-137608624D01*
X236955917Y-137218135D01*
X236948713Y-136786876D01*
X236928725Y-135272566D01*
X237057061Y-135206201D01*
X237092699Y-135185596D01*
X237241587Y-135064388D01*
X237397882Y-134892349D01*
X237542320Y-134692583D01*
X237655641Y-134488194D01*
X237768266Y-134242830D01*
X238418116Y-134412653D01*
X238612976Y-134463636D01*
X238891758Y-134536692D01*
X239217522Y-134622144D01*
X239571169Y-134714982D01*
X239933596Y-134810193D01*
X240285704Y-134902763D01*
X240344657Y-134918211D01*
X240662328Y-134999493D01*
X240959448Y-135072381D01*
X241223511Y-135134028D01*
X241442013Y-135181587D01*
X241602450Y-135212211D01*
X241692317Y-135223051D01*
X241743026Y-135220799D01*
X241930352Y-135165741D01*
X242097977Y-135033706D01*
X242252015Y-134820294D01*
X242263414Y-134799778D01*
X242279841Y-134764396D01*
X242295609Y-134719593D01*
X242311295Y-134660279D01*
X242327478Y-134581369D01*
X242344735Y-134477774D01*
X242363645Y-134344409D01*
X242384786Y-134176186D01*
X242408735Y-133968018D01*
X242436071Y-133714818D01*
X242467371Y-133411499D01*
X242503213Y-133052974D01*
X242544176Y-132634156D01*
X242590837Y-132149958D01*
X242643774Y-131595293D01*
X242703566Y-130965073D01*
X242770790Y-130254212D01*
X242790486Y-130045735D01*
X242855246Y-129359721D01*
X242912360Y-128752993D01*
X242962201Y-128220536D01*
X243005140Y-127757333D01*
X243041550Y-127358368D01*
X243071802Y-127018624D01*
X243096271Y-126733085D01*
X243115327Y-126496735D01*
X243129343Y-126304558D01*
X243138692Y-126151538D01*
X243143746Y-126032657D01*
X243144877Y-125942900D01*
X243142458Y-125877250D01*
X243136860Y-125830691D01*
X243128457Y-125798207D01*
X243117620Y-125774782D01*
X243104722Y-125755399D01*
X243079812Y-125730849D01*
X243006601Y-125685177D01*
X242887022Y-125628408D01*
X242716535Y-125558930D01*
X242490598Y-125475132D01*
X242204671Y-125375402D01*
X241854213Y-125258128D01*
X241434685Y-125121700D01*
X240941546Y-124964506D01*
X240370254Y-124784935D01*
X239735254Y-124586409D01*
X239735254Y-124398756D01*
X239716146Y-124183945D01*
X239642045Y-123905078D01*
X239522866Y-123649494D01*
X239370109Y-123447165D01*
X239329534Y-123408006D01*
X239185677Y-123298065D01*
X239031244Y-123235516D01*
X238842508Y-123213566D01*
X238595743Y-123225420D01*
X238327458Y-123250473D01*
X238258640Y-123002949D01*
X238140545Y-122724659D01*
X237956115Y-122492000D01*
X237715999Y-122316391D01*
X237429584Y-122204668D01*
X237106256Y-122163665D01*
X236925229Y-122169907D01*
X236783648Y-122199369D01*
X236655586Y-122259946D01*
X236602926Y-122288471D01*
X236514586Y-122322053D01*
X236473248Y-122315845D01*
X236464059Y-122291977D01*
X236389460Y-122161991D01*
X236275768Y-122011516D01*
X236145470Y-121868208D01*
X236021054Y-121759723D01*
X235821730Y-121642946D01*
X235578308Y-121541995D01*
X235330782Y-121472591D01*
X235114059Y-121446780D01*
X234931792Y-121464288D01*
X234668617Y-121540393D01*
X234438354Y-121663207D01*
X234313243Y-121752293D01*
X234216997Y-121547540D01*
X234080211Y-121324450D01*
X233876066Y-121107853D01*
X233642132Y-120950268D01*
X233494431Y-120897829D01*
X233252500Y-120862095D01*
X232985640Y-120864474D01*
X232723302Y-120904189D01*
X232494935Y-120980465D01*
X232480212Y-120987464D01*
X232247623Y-121137417D01*
X232077036Y-121335224D01*
X231966193Y-121585892D01*
X231912830Y-121894431D01*
X231914688Y-122265849D01*
X231919672Y-122331429D01*
X231935857Y-122502768D01*
X231953058Y-122637504D01*
X231968300Y-122710959D01*
X231974763Y-122739053D01*
X231943883Y-122777783D01*
X231853334Y-122770778D01*
X231712778Y-122717780D01*
X231659629Y-122695387D01*
X231516513Y-122643154D01*
X231316446Y-122575807D01*
X231071013Y-122496773D01*
X230791801Y-122409480D01*
X230490395Y-122317355D01*
X230178380Y-122223825D01*
X229867343Y-122132319D01*
X229568870Y-122046263D01*
X229294545Y-121969086D01*
X229055954Y-121904216D01*
X228864683Y-121855078D01*
X228732318Y-121825103D01*
X228670445Y-121817715D01*
X228549885Y-121853089D01*
X228420685Y-121923109D01*
X228295411Y-122037050D01*
X228152511Y-122211289D01*
X228148104Y-122217121D01*
X228020696Y-122404764D01*
X227937623Y-122581899D01*
X227878137Y-122792475D01*
X227864439Y-122850259D01*
X227828625Y-122996156D01*
X227774471Y-123213851D01*
X227703663Y-123496656D01*
X227617888Y-123837881D01*
X227518833Y-124230839D01*
X227408184Y-124668841D01*
X227287627Y-125145200D01*
X227158850Y-125653226D01*
X227023537Y-126186231D01*
X226883377Y-126737528D01*
X226873746Y-126775388D01*
X226714162Y-127405240D01*
X226566930Y-127991062D01*
X226433102Y-128528491D01*
X226313729Y-129013165D01*
X226209863Y-129440722D01*
X226122554Y-129806798D01*
X226052855Y-130107032D01*
X226001817Y-130337060D01*
X225970491Y-130492522D01*
X225959929Y-130569053D01*
X223836669Y-130569053D01*
X223831092Y-130263441D01*
X223830416Y-129892352D01*
X223835618Y-129528806D01*
X223846696Y-129192393D01*
X223863651Y-128902702D01*
X223886483Y-128679322D01*
X223965909Y-128185622D01*
X224179659Y-127237030D01*
X224468173Y-126330965D01*
X224831904Y-125466525D01*
X225271306Y-124642812D01*
X225786834Y-123858924D01*
X226378941Y-123113961D01*
X227048079Y-122407024D01*
X227324374Y-122146381D01*
X227903299Y-121653670D01*
X228504392Y-121216520D01*
X229148706Y-120820268D01*
X229857290Y-120450253D01*
X230587427Y-120131819D01*
X231461288Y-119835328D01*
X232355094Y-119618189D01*
X233262648Y-119479978D01*
X234177748Y-119420270D01*
X235094194Y-119438638D01*
X236005787Y-119534658D01*
X236906326Y-119707905D01*
X237789613Y-119957954D01*
X238649446Y-120284378D01*
X239479626Y-120686754D01*
X240273952Y-121164656D01*
X240385332Y-121239755D01*
X241161337Y-121820217D01*
X241872711Y-122456779D01*
X242517856Y-123146989D01*
X243095174Y-123888395D01*
X243603068Y-124678544D01*
X244039940Y-125514984D01*
X244217008Y-125942900D01*
X244404191Y-126395262D01*
G37*
G36*
X232007701Y-123030206D02*
G01*
X232144591Y-123057531D01*
X232208457Y-123049781D01*
X232222599Y-123004365D01*
X232216489Y-122877837D01*
X232182748Y-122681237D01*
X232153912Y-122525468D01*
X232135779Y-122347786D01*
X232264718Y-122347786D01*
X232276109Y-122642764D01*
X232318043Y-122971390D01*
X232390168Y-123319492D01*
X232418275Y-123435833D01*
X232481563Y-123710842D01*
X232543344Y-123993996D01*
X232593513Y-124239563D01*
X232625107Y-124394832D01*
X232627569Y-124404846D01*
X232703581Y-124713971D01*
X232787173Y-124958356D01*
X232878955Y-125136019D01*
X232981999Y-125254993D01*
X233118254Y-125330713D01*
X233311480Y-125367241D01*
X233514060Y-125348959D01*
X233621952Y-125304800D01*
X234150813Y-125304800D01*
X234151827Y-125379863D01*
X234152848Y-125455492D01*
X234178608Y-125570209D01*
X234234476Y-125684890D01*
X234257467Y-125721546D01*
X234357610Y-125843801D01*
X234409973Y-125887254D01*
X234461769Y-125930237D01*
X234491090Y-125946303D01*
X234700885Y-126014594D01*
X234928275Y-126023908D01*
X235150040Y-125978544D01*
X235342959Y-125882803D01*
X235483812Y-125740984D01*
X235508333Y-125696648D01*
X235554337Y-125582366D01*
X235839835Y-125582366D01*
X235853944Y-125674654D01*
X235884737Y-125788475D01*
X235969260Y-125993399D01*
X236015341Y-126056798D01*
X236096613Y-126168613D01*
X236187923Y-126249597D01*
X236292493Y-126299218D01*
X236430179Y-126311526D01*
X236518964Y-126302563D01*
X236714469Y-126237762D01*
X236911751Y-126123161D01*
X237081396Y-125974005D01*
X237097910Y-125948844D01*
X237410509Y-125948844D01*
X237429201Y-126074973D01*
X237504847Y-126257449D01*
X237620199Y-126421388D01*
X237755317Y-126533008D01*
X237756915Y-126533864D01*
X237912885Y-126597657D01*
X238054847Y-126601632D01*
X238221855Y-126546957D01*
X238364829Y-126471148D01*
X238607292Y-126278609D01*
X238825488Y-126025064D01*
X239006678Y-125726477D01*
X239138123Y-125398812D01*
X239158128Y-125330043D01*
X239198866Y-125144854D01*
X239214724Y-124957335D01*
X239210106Y-124726356D01*
X239198251Y-124575237D01*
X239139327Y-124269119D01*
X239037949Y-124035595D01*
X238895329Y-123875755D01*
X238712679Y-123790685D01*
X238491212Y-123781473D01*
X238232140Y-123849206D01*
X238042076Y-123922204D01*
X237726292Y-124868582D01*
X237678653Y-125012883D01*
X237592671Y-125281688D01*
X237518909Y-125523220D01*
X237461324Y-125723946D01*
X237423872Y-125870331D01*
X237410509Y-125948844D01*
X237097910Y-125948844D01*
X237101929Y-125942721D01*
X237154573Y-125829859D01*
X237223738Y-125655913D01*
X237304889Y-125434819D01*
X237393486Y-125180514D01*
X237484993Y-124906933D01*
X237574871Y-124628012D01*
X237658583Y-124357687D01*
X237731592Y-124109895D01*
X237789359Y-123898571D01*
X237827346Y-123737652D01*
X237841017Y-123641072D01*
X237816787Y-123456010D01*
X237730384Y-123222013D01*
X237715032Y-123191795D01*
X237633340Y-123060560D01*
X237534393Y-122969065D01*
X237385490Y-122885389D01*
X237225511Y-122816980D01*
X237084373Y-122787202D01*
X236922698Y-122789727D01*
X236834273Y-122799861D01*
X236685293Y-122837199D01*
X236563270Y-122905389D01*
X236553013Y-122916411D01*
X236462572Y-123013595D01*
X236377566Y-123170979D01*
X236302619Y-123386705D01*
X236232100Y-123669934D01*
X236160375Y-124029831D01*
X236137810Y-124149620D01*
X236081812Y-124432375D01*
X236023445Y-124710455D01*
X235968407Y-124957139D01*
X235922397Y-125145710D01*
X235912278Y-125184269D01*
X235867535Y-125362216D01*
X235843876Y-125486568D01*
X235839835Y-125582366D01*
X235554337Y-125582366D01*
X235569019Y-125545892D01*
X235638026Y-125331261D01*
X235712162Y-125067248D01*
X235788231Y-124768345D01*
X235863037Y-124449043D01*
X235933388Y-124123834D01*
X235996087Y-123807211D01*
X236047941Y-123513665D01*
X236085754Y-123257689D01*
X236106331Y-123053773D01*
X236106479Y-122916411D01*
X236093169Y-122839808D01*
X235999400Y-122616741D01*
X235832566Y-122415075D01*
X235602373Y-122247689D01*
X235505515Y-122195799D01*
X235376087Y-122143936D01*
X235239947Y-122119921D01*
X235057611Y-122114068D01*
X235047814Y-122114074D01*
X234882126Y-122118206D01*
X234770141Y-122135884D01*
X234681051Y-122175709D01*
X234584051Y-122246282D01*
X234485380Y-122329220D01*
X234409730Y-122409133D01*
X234354966Y-122498214D01*
X234318177Y-122609273D01*
X234296453Y-122755121D01*
X234286886Y-122948570D01*
X234286564Y-123202430D01*
X234292578Y-123529513D01*
X234296004Y-123711661D01*
X234297638Y-123798528D01*
X234299228Y-124060913D01*
X234295153Y-124264736D01*
X234284751Y-124425072D01*
X234267361Y-124556999D01*
X234242321Y-124675594D01*
X234213774Y-124806835D01*
X234176623Y-125031387D01*
X234154631Y-125235255D01*
X234150813Y-125304800D01*
X233621952Y-125304800D01*
X233694786Y-125274990D01*
X233708249Y-125266113D01*
X233835896Y-125148662D01*
X233935472Y-124984533D01*
X234008869Y-124766246D01*
X234057984Y-124486323D01*
X234084711Y-124137288D01*
X234090946Y-123711661D01*
X234087993Y-123472493D01*
X234074224Y-123044411D01*
X234048608Y-122689186D01*
X234009400Y-122398265D01*
X233954855Y-122163097D01*
X233883226Y-121975129D01*
X233792770Y-121825809D01*
X233681739Y-121706583D01*
X233628243Y-121663993D01*
X233415562Y-121555759D01*
X233177186Y-121508364D01*
X232932500Y-121519316D01*
X232700890Y-121586120D01*
X232501739Y-121706283D01*
X232354433Y-121877313D01*
X232334967Y-121915459D01*
X232284220Y-122100627D01*
X232264718Y-122347786D01*
X232135779Y-122347786D01*
X232116001Y-122153989D01*
X232130229Y-121832128D01*
X232195926Y-121566680D01*
X232312424Y-121364440D01*
X232380669Y-121297971D01*
X232567330Y-121185615D01*
X232798322Y-121106761D01*
X233048362Y-121066538D01*
X233292167Y-121070079D01*
X233504454Y-121122514D01*
X233536834Y-121137632D01*
X233671785Y-121222102D01*
X233796091Y-121326104D01*
X233857584Y-121396699D01*
X233957888Y-121543400D01*
X234047928Y-121707430D01*
X234112956Y-121860796D01*
X234138224Y-121975504D01*
X234154497Y-122045947D01*
X234217235Y-122073566D01*
X234322258Y-122033593D01*
X234464405Y-121926799D01*
X234547931Y-121857502D01*
X234751977Y-121732125D01*
X234964460Y-121673925D01*
X235213546Y-121673374D01*
X235216330Y-121673630D01*
X235509552Y-121736268D01*
X235779173Y-121860722D01*
X236009929Y-122035457D01*
X236186553Y-122248938D01*
X236293780Y-122489630D01*
X236312151Y-122544349D01*
X236378653Y-122636565D01*
X236463031Y-122649916D01*
X236554983Y-122580805D01*
X236642805Y-122509051D01*
X236784639Y-122433384D01*
X236939178Y-122375415D01*
X237069051Y-122351793D01*
X237195543Y-122363366D01*
X237413270Y-122422386D01*
X237626760Y-122517991D01*
X237797151Y-122635063D01*
X237835236Y-122672434D01*
X237970115Y-122859812D01*
X238064067Y-123079718D01*
X238099982Y-123294873D01*
X238102939Y-123367932D01*
X238126492Y-123455894D01*
X238186277Y-123495805D01*
X238297299Y-123494179D01*
X238474563Y-123457531D01*
X238678709Y-123420429D01*
X238896758Y-123423734D01*
X239079753Y-123488203D01*
X239245452Y-123617520D01*
X239263725Y-123641072D01*
X239332515Y-123729738D01*
X239434187Y-123944435D01*
X239505642Y-124206905D01*
X239539759Y-124495892D01*
X239544154Y-124561953D01*
X239569141Y-124701901D01*
X239610544Y-124768314D01*
X239611958Y-124769026D01*
X239675253Y-124792504D01*
X239806271Y-124836040D01*
X239991158Y-124895197D01*
X240216058Y-124965538D01*
X240467119Y-125042625D01*
X240618698Y-125088905D01*
X241077507Y-125230902D01*
X241499871Y-125364512D01*
X241879184Y-125487501D01*
X242208841Y-125597635D01*
X242482237Y-125692682D01*
X242692765Y-125770406D01*
X242833823Y-125828574D01*
X242898802Y-125864953D01*
X242936617Y-125910251D01*
X242964068Y-125970405D01*
X242961204Y-126009474D01*
X242951771Y-126117797D01*
X242950808Y-126128850D01*
X242933459Y-126320740D01*
X242909834Y-126577993D01*
X242880611Y-126893459D01*
X242846466Y-127259987D01*
X242808077Y-127670427D01*
X242766121Y-128117629D01*
X242721274Y-128594442D01*
X242674215Y-129093716D01*
X242625620Y-129608300D01*
X242576166Y-130131045D01*
X242526531Y-130654799D01*
X242477391Y-131172413D01*
X242429424Y-131676736D01*
X242383307Y-132160617D01*
X242339716Y-132616907D01*
X242299330Y-133038455D01*
X242262825Y-133418110D01*
X242230879Y-133748723D01*
X242204168Y-134023142D01*
X242183370Y-134234218D01*
X242169161Y-134374800D01*
X242162220Y-134437737D01*
X242160187Y-134450662D01*
X242107623Y-134615215D01*
X242015390Y-134783108D01*
X241902523Y-134925121D01*
X241788059Y-135012035D01*
X241759314Y-135021507D01*
X241682060Y-135025758D01*
X241564727Y-135009484D01*
X241393475Y-134970370D01*
X241154461Y-134906101D01*
X241135558Y-134900838D01*
X240987778Y-134860527D01*
X240781222Y-134805134D01*
X240526814Y-134737514D01*
X240235478Y-134660518D01*
X239918140Y-134577000D01*
X239585724Y-134489812D01*
X239249153Y-134401808D01*
X238919354Y-134315840D01*
X238607249Y-134234761D01*
X238323764Y-134161425D01*
X238079823Y-134098683D01*
X237886350Y-134049388D01*
X237754270Y-134016395D01*
X237694508Y-134002554D01*
X237679792Y-134012220D01*
X237678696Y-134012940D01*
X237627883Y-134083057D01*
X237556452Y-134205051D01*
X237474569Y-134362297D01*
X237408250Y-134489509D01*
X237256714Y-134723484D01*
X237077344Y-134916610D01*
X236843837Y-135099637D01*
X236743221Y-135169951D01*
X236728844Y-136360759D01*
X236726670Y-136848605D01*
X236732634Y-137332145D01*
X236746719Y-137768547D01*
X236768491Y-138148131D01*
X236797519Y-138461214D01*
X236804917Y-138510099D01*
X236833369Y-138698115D01*
X236859622Y-138829378D01*
X236306336Y-138961142D01*
X235971887Y-139035242D01*
X235524456Y-139120764D01*
X235079585Y-139192410D01*
X234676780Y-139243337D01*
X234655065Y-139245411D01*
X234464765Y-139254984D01*
X234215150Y-139257221D01*
X233926990Y-139252946D01*
X233621058Y-139242978D01*
X233318126Y-139228140D01*
X233038966Y-139209252D01*
X232804349Y-139187135D01*
X232635047Y-139162612D01*
X232296941Y-139084215D01*
X231929099Y-138974969D01*
X231571892Y-138846453D01*
X231244032Y-138706053D01*
X230964233Y-138561155D01*
X230751208Y-138419142D01*
X230657162Y-138344238D01*
X230727947Y-137995395D01*
X230901187Y-137995395D01*
X230924661Y-138089150D01*
X230981802Y-138161061D01*
X231077578Y-138225152D01*
X231216960Y-138295451D01*
X231404915Y-138385983D01*
X231566783Y-138461973D01*
X231947977Y-138610537D01*
X232358328Y-138726575D01*
X232825593Y-138818539D01*
X232953107Y-138834539D01*
X233181331Y-138852098D01*
X233458188Y-138865273D01*
X233762405Y-138873703D01*
X234072712Y-138877023D01*
X234367838Y-138874871D01*
X234626510Y-138866884D01*
X234827458Y-138852699D01*
X234903606Y-138842889D01*
X235076375Y-138815805D01*
X235297238Y-138777797D01*
X235544275Y-138732960D01*
X235795566Y-138685389D01*
X236029191Y-138639178D01*
X236223230Y-138598421D01*
X236355763Y-138567214D01*
X236571017Y-138510099D01*
X236560944Y-138319541D01*
X236558769Y-138263541D01*
X236554668Y-138120347D01*
X236549516Y-137911030D01*
X236543573Y-137647149D01*
X236537094Y-137340266D01*
X236530339Y-137001939D01*
X236523566Y-136643729D01*
X236496261Y-135158475D01*
X236124656Y-135152776D01*
X235893410Y-135139059D01*
X235582159Y-135076772D01*
X235288648Y-134956051D01*
X234985017Y-134767479D01*
X234876928Y-134691302D01*
X234672689Y-134553986D01*
X234506130Y-134458385D01*
X234356129Y-134396955D01*
X234201562Y-134362154D01*
X234021306Y-134346439D01*
X233794238Y-134342267D01*
X233586936Y-134343978D01*
X233296633Y-134351267D01*
X232993774Y-134363012D01*
X232717966Y-134377902D01*
X232559788Y-134386903D01*
X232264211Y-134393985D01*
X232017798Y-134382345D01*
X231796254Y-134350240D01*
X231575285Y-134295928D01*
X231559550Y-134291907D01*
X231524821Y-134293446D01*
X231499494Y-134324614D01*
X231479117Y-134399426D01*
X231459233Y-134531898D01*
X231435388Y-134736043D01*
X231434485Y-134744103D01*
X231387407Y-135112587D01*
X231320710Y-135557600D01*
X231235528Y-136072283D01*
X231132993Y-136649777D01*
X231014242Y-137283223D01*
X230983077Y-137442804D01*
X230935364Y-137686248D01*
X230906411Y-137865770D01*
X230901187Y-137995395D01*
X230727947Y-137995395D01*
X230802878Y-137626117D01*
X230870130Y-137286689D01*
X230951759Y-136852685D01*
X231028215Y-136422461D01*
X231098204Y-136004979D01*
X231160432Y-135609202D01*
X231213607Y-135244092D01*
X231256435Y-134918613D01*
X231287622Y-134641727D01*
X231305876Y-134422396D01*
X231309902Y-134269585D01*
X231298408Y-134192254D01*
X231268241Y-134153902D01*
X231181413Y-134071504D01*
X231066526Y-133978798D01*
X230936109Y-133872515D01*
X230773945Y-133705251D01*
X230621006Y-133497958D01*
X230460158Y-133229462D01*
X230445372Y-133203371D01*
X230349992Y-133045512D01*
X230222411Y-132845608D01*
X230077505Y-132626616D01*
X229930150Y-132411496D01*
X229867329Y-132321591D01*
X229746624Y-132148827D01*
X229649091Y-132009203D01*
X229583447Y-131915199D01*
X229558408Y-131879291D01*
X229547259Y-131875797D01*
X229467417Y-131854010D01*
X229318949Y-131814569D01*
X229111620Y-131760017D01*
X228855196Y-131692895D01*
X228559444Y-131615745D01*
X228234128Y-131531111D01*
X227889016Y-131441534D01*
X227533873Y-131349557D01*
X227178465Y-131257722D01*
X226832558Y-131168572D01*
X226505918Y-131084649D01*
X226444574Y-131063969D01*
X226298750Y-130958195D01*
X226206621Y-130792053D01*
X226174398Y-130575089D01*
X226180974Y-130525566D01*
X226207515Y-130392558D01*
X226211165Y-130376054D01*
X226538816Y-130376054D01*
X226539042Y-130432013D01*
X226546248Y-130464922D01*
X226636405Y-130654031D01*
X226798821Y-130801586D01*
X227028218Y-130902513D01*
X227035549Y-130904639D01*
X227192410Y-130948655D01*
X227396031Y-131003746D01*
X227633412Y-131066603D01*
X227891553Y-131133919D01*
X228157453Y-131202385D01*
X228418113Y-131268693D01*
X228660532Y-131329535D01*
X228871710Y-131381602D01*
X229038647Y-131421587D01*
X229148343Y-131446181D01*
X229187797Y-131452076D01*
X229187685Y-131451509D01*
X229158426Y-131410317D01*
X229084797Y-131317525D01*
X228977461Y-131186345D01*
X228847082Y-131029985D01*
X228768520Y-130936297D01*
X228625445Y-130762068D01*
X228526908Y-130632087D01*
X228464693Y-130531835D01*
X228430585Y-130446795D01*
X228416368Y-130362447D01*
X228414596Y-130293993D01*
X228631043Y-130293993D01*
X228679920Y-130437996D01*
X228779542Y-130600528D01*
X228930650Y-130797572D01*
X229133983Y-131045110D01*
X229394756Y-131366055D01*
X229711137Y-131770204D01*
X230001008Y-132157185D01*
X230256156Y-132515701D01*
X230468365Y-132834453D01*
X230629422Y-133102140D01*
X230647231Y-133133842D01*
X230827924Y-133419688D01*
X231012840Y-133638878D01*
X231218487Y-133808119D01*
X231461374Y-133944120D01*
X231592241Y-134002016D01*
X231712484Y-134042874D01*
X231839856Y-134067708D01*
X232000679Y-134081554D01*
X232221276Y-134089445D01*
X232537805Y-134086983D01*
X232840394Y-134053911D01*
X233487233Y-134053911D01*
X233490779Y-134071774D01*
X233547420Y-134084401D01*
X233668104Y-134095306D01*
X233863778Y-134108004D01*
X233900295Y-134110431D01*
X234217580Y-134149250D01*
X234486725Y-134223667D01*
X234739357Y-134345230D01*
X235007103Y-134525489D01*
X235034874Y-134546057D01*
X235301642Y-134722192D01*
X235550597Y-134841209D01*
X235808984Y-134916391D01*
X235907537Y-134935177D01*
X236246263Y-134960945D01*
X236539485Y-134914888D01*
X236791265Y-134795273D01*
X237005665Y-134600366D01*
X237186744Y-134328434D01*
X237215962Y-134272815D01*
X237290141Y-134115073D01*
X237318143Y-134012220D01*
X237301712Y-133951504D01*
X237242593Y-133920173D01*
X237160476Y-133933484D01*
X237066598Y-134026163D01*
X237002599Y-134100276D01*
X236953636Y-134128165D01*
X236948669Y-134090809D01*
X236999134Y-133993710D01*
X237002188Y-133989020D01*
X237047925Y-133908811D01*
X237058779Y-133868761D01*
X237043947Y-133862948D01*
X236958967Y-133834023D01*
X236807351Y-133784017D01*
X236598950Y-133716132D01*
X236343612Y-133633570D01*
X236051188Y-133539534D01*
X235731526Y-133437225D01*
X235557910Y-133381648D01*
X235246226Y-133281160D01*
X234964268Y-133189350D01*
X234722508Y-133109679D01*
X234531418Y-133045610D01*
X234401470Y-133000606D01*
X234343136Y-132978130D01*
X234283570Y-132962666D01*
X234267376Y-133015181D01*
X234267369Y-133016206D01*
X234234631Y-133167314D01*
X234148489Y-133351064D01*
X234023321Y-133547314D01*
X233873508Y-133735922D01*
X233713427Y-133896745D01*
X233557458Y-134009641D01*
X233525836Y-134027295D01*
X233487233Y-134053911D01*
X232840394Y-134053911D01*
X232878455Y-134049751D01*
X233166642Y-133970345D01*
X233417163Y-133844380D01*
X233644813Y-133667469D01*
X233772953Y-133536990D01*
X233940137Y-133296587D01*
X234041576Y-133024509D01*
X234086457Y-132700643D01*
X234088914Y-132509208D01*
X234059782Y-132269366D01*
X234274561Y-132269366D01*
X234284838Y-132326985D01*
X234299534Y-132326318D01*
X234307449Y-132270481D01*
X234300555Y-132228164D01*
X234281439Y-132244471D01*
X234274561Y-132269366D01*
X234059782Y-132269366D01*
X234046951Y-132163733D01*
X233959493Y-131885745D01*
X234190893Y-131885745D01*
X234196045Y-131936837D01*
X234208994Y-131943572D01*
X234224746Y-131908136D01*
X234221639Y-131885345D01*
X234196045Y-131879435D01*
X234190893Y-131885745D01*
X233959493Y-131885745D01*
X233940199Y-131824419D01*
X233928029Y-131800509D01*
X234138644Y-131800509D01*
X234160170Y-131822034D01*
X234181695Y-131800509D01*
X234160170Y-131778983D01*
X234138644Y-131800509D01*
X233928029Y-131800509D01*
X233861853Y-131670491D01*
X234104791Y-131670491D01*
X234109944Y-131721582D01*
X234122893Y-131728317D01*
X234138644Y-131692882D01*
X234135537Y-131670091D01*
X234109944Y-131664181D01*
X234104791Y-131670491D01*
X233861853Y-131670491D01*
X233818470Y-131585255D01*
X234052543Y-131585255D01*
X234074068Y-131606780D01*
X234095593Y-131585255D01*
X234074068Y-131563729D01*
X234052543Y-131585255D01*
X233818470Y-131585255D01*
X233774646Y-131499153D01*
X234009492Y-131499153D01*
X234031017Y-131520678D01*
X234052543Y-131499153D01*
X234031017Y-131477628D01*
X234009492Y-131499153D01*
X233774646Y-131499153D01*
X233763855Y-131477952D01*
X233690088Y-131370000D01*
X233923390Y-131370000D01*
X233944915Y-131391526D01*
X233966441Y-131370000D01*
X233944915Y-131348475D01*
X233923390Y-131370000D01*
X233690088Y-131370000D01*
X233513117Y-131111017D01*
X233359109Y-130926144D01*
X233022751Y-130603930D01*
X232628673Y-130310050D01*
X232194902Y-130057238D01*
X231739467Y-129858228D01*
X231701059Y-129843907D01*
X231553731Y-129782683D01*
X231445860Y-129727895D01*
X231398553Y-129689961D01*
X231396410Y-129678421D01*
X231408655Y-129622252D01*
X231653744Y-129622252D01*
X231724870Y-129681282D01*
X231874522Y-129770500D01*
X232102553Y-129889142D01*
X232241843Y-129959885D01*
X232730785Y-130234729D01*
X233141637Y-130513169D01*
X233480745Y-130799856D01*
X233754457Y-131099440D01*
X233771927Y-131121492D01*
X233852642Y-131217178D01*
X233905192Y-131253315D01*
X233939105Y-131223409D01*
X233963909Y-131120966D01*
X233989133Y-130939492D01*
X233994002Y-130901289D01*
X234016971Y-130741956D01*
X234047711Y-130646441D01*
X234104171Y-130596865D01*
X234204300Y-130575348D01*
X234366045Y-130564009D01*
X234432913Y-130560639D01*
X234523661Y-130560217D01*
X234618643Y-130567184D01*
X234729044Y-130583997D01*
X234866045Y-130613112D01*
X235040831Y-130656984D01*
X235264585Y-130718071D01*
X235548489Y-130798828D01*
X235903729Y-130901711D01*
X236041738Y-130941919D01*
X236389920Y-131044679D01*
X236666237Y-131129638D01*
X236878941Y-131200704D01*
X237036282Y-131261785D01*
X237146513Y-131316790D01*
X237217884Y-131369627D01*
X237258647Y-131424203D01*
X237277054Y-131484428D01*
X237281356Y-131554209D01*
X237276409Y-131631432D01*
X237259206Y-131774446D01*
X237233934Y-131936621D01*
X237225674Y-131983673D01*
X237199965Y-132110298D01*
X237173485Y-132173935D01*
X237134804Y-132191932D01*
X237072493Y-132181633D01*
X236993230Y-132161793D01*
X236950991Y-132149313D01*
X236950877Y-132149195D01*
X236954864Y-132105724D01*
X236971652Y-132000554D01*
X236997713Y-131855843D01*
X237021077Y-131705398D01*
X237030662Y-131584902D01*
X237024069Y-131522325D01*
X237023185Y-131521288D01*
X236970843Y-131497363D01*
X236849957Y-131454495D01*
X236673083Y-131396410D01*
X236452779Y-131326839D01*
X236201603Y-131249508D01*
X235932113Y-131168147D01*
X235656865Y-131086484D01*
X235388419Y-131008247D01*
X235139331Y-130937166D01*
X234922158Y-130876967D01*
X234749459Y-130831380D01*
X234633791Y-130804133D01*
X234587712Y-130798955D01*
X234585522Y-130802692D01*
X234564152Y-130865704D01*
X234527181Y-130992570D01*
X234479155Y-131167276D01*
X234425622Y-131370000D01*
X234424616Y-131373810D01*
X234415998Y-131407036D01*
X234392004Y-131499153D01*
X234369577Y-131585255D01*
X234360149Y-131621453D01*
X234341402Y-131692882D01*
X234313155Y-131800509D01*
X234310413Y-131810958D01*
X234284636Y-131908136D01*
X234271923Y-131956065D01*
X234249814Y-132037289D01*
X234237854Y-132100500D01*
X234256411Y-132091658D01*
X234283422Y-132081476D01*
X234352801Y-132084963D01*
X234470498Y-132105155D01*
X234643366Y-132143585D01*
X234878257Y-132201787D01*
X235140715Y-132270481D01*
X235182024Y-132281293D01*
X235561520Y-132383637D01*
X235683854Y-132416962D01*
X235995294Y-132501908D01*
X236278053Y-132579185D01*
X236521251Y-132645807D01*
X236714005Y-132698792D01*
X236845436Y-132735155D01*
X236904661Y-132751914D01*
X236936741Y-132767205D01*
X236976624Y-132835651D01*
X236956330Y-132924194D01*
X236878631Y-133005791D01*
X236872111Y-133010003D01*
X236820082Y-133036198D01*
X236758275Y-133046097D01*
X236668315Y-133038301D01*
X236531830Y-133011409D01*
X236330448Y-132964021D01*
X236187625Y-132931388D01*
X236014381Y-132897488D01*
X235882949Y-132878510D01*
X235814067Y-132877910D01*
X235807465Y-132879273D01*
X235726293Y-132868824D01*
X235595864Y-132830310D01*
X235441097Y-132770881D01*
X235368500Y-132741731D01*
X235111770Y-132662527D01*
X234876624Y-132623907D01*
X234651232Y-132588319D01*
X234463200Y-132511883D01*
X234310848Y-132417724D01*
X234310848Y-132509208D01*
X234310848Y-132612063D01*
X234314050Y-132700480D01*
X234336383Y-132790412D01*
X234386187Y-132828951D01*
X234415263Y-132836845D01*
X234523110Y-132865381D01*
X234703647Y-132912838D01*
X234950668Y-132977595D01*
X235257966Y-133058028D01*
X235619334Y-133152515D01*
X236028566Y-133259434D01*
X236479456Y-133377162D01*
X236965797Y-133504076D01*
X237481382Y-133638553D01*
X238020004Y-133778971D01*
X238412743Y-133881274D01*
X238933568Y-134016752D01*
X239426152Y-134144669D01*
X239884376Y-134263447D01*
X240302121Y-134371508D01*
X240673271Y-134467274D01*
X240991705Y-134549166D01*
X241251307Y-134615607D01*
X241445958Y-134665018D01*
X241569539Y-134695822D01*
X241615933Y-134706441D01*
X241640521Y-134702426D01*
X241732560Y-134651042D01*
X241830391Y-134560490D01*
X241904575Y-134456285D01*
X241911261Y-134442596D01*
X241922158Y-134415685D01*
X241932938Y-134379973D01*
X241944110Y-134330654D01*
X241956180Y-134262918D01*
X241969656Y-134171958D01*
X241985046Y-134052965D01*
X242002857Y-133901132D01*
X242023597Y-133711651D01*
X242047773Y-133479713D01*
X242075893Y-133200511D01*
X242108465Y-132869236D01*
X242145996Y-132481081D01*
X242188993Y-132031237D01*
X242237964Y-131514896D01*
X242293418Y-130927251D01*
X242355860Y-130263493D01*
X242425800Y-129518814D01*
X242745078Y-126117797D01*
X242616812Y-126006216D01*
X242563745Y-125971397D01*
X242454551Y-125919310D01*
X242290451Y-125853428D01*
X242067448Y-125772392D01*
X241781544Y-125674842D01*
X241428743Y-125559419D01*
X241005048Y-125424764D01*
X240506460Y-125269518D01*
X239928983Y-125092322D01*
X239455424Y-124947843D01*
X239454155Y-124957335D01*
X239441369Y-125052982D01*
X239450217Y-125138665D01*
X239516708Y-125253276D01*
X239525291Y-125262485D01*
X239583757Y-125338245D01*
X239598506Y-125409597D01*
X239567797Y-125501621D01*
X239489887Y-125639402D01*
X239422601Y-125740648D01*
X239360418Y-125798668D01*
X239306921Y-125796971D01*
X239302164Y-125794693D01*
X239251727Y-125797975D01*
X239191032Y-125858133D01*
X239108358Y-125986343D01*
X238976545Y-126210548D01*
X239046062Y-126632107D01*
X239048122Y-126644519D01*
X239094319Y-126880004D01*
X239140772Y-127033010D01*
X239188520Y-127107002D01*
X239235977Y-127127367D01*
X239359615Y-127152778D01*
X239528442Y-127172374D01*
X239720698Y-127185266D01*
X239914620Y-127190563D01*
X240088449Y-127187377D01*
X240220423Y-127174816D01*
X240288782Y-127151991D01*
X240304239Y-127133151D01*
X240320756Y-127082741D01*
X240321507Y-126997755D01*
X240305985Y-126861600D01*
X240273685Y-126657688D01*
X240251897Y-126522960D01*
X240228658Y-126363303D01*
X240215646Y-126251672D01*
X240215242Y-126206448D01*
X240245939Y-126197796D01*
X240342021Y-126181434D01*
X240477882Y-126163140D01*
X240588481Y-126152877D01*
X240693670Y-126158359D01*
X240722904Y-126191287D01*
X240680181Y-126253447D01*
X240676743Y-126258134D01*
X240666079Y-126331320D01*
X240672698Y-126464263D01*
X240693026Y-126636500D01*
X240723493Y-126827570D01*
X240760525Y-127017010D01*
X240800550Y-127184359D01*
X240839994Y-127309153D01*
X240875287Y-127370932D01*
X240913943Y-127386414D01*
X241030710Y-127408123D01*
X241196870Y-127426094D01*
X241390115Y-127439277D01*
X241588137Y-127446626D01*
X241768627Y-127447091D01*
X241909276Y-127439627D01*
X241987776Y-127423184D01*
X242016617Y-127409472D01*
X242046729Y-127412761D01*
X242052508Y-127466958D01*
X242039239Y-127589107D01*
X242026472Y-127687447D01*
X242025633Y-127693913D01*
X242002834Y-127843309D01*
X241975755Y-127931683D01*
X241933119Y-127975020D01*
X241863653Y-127989300D01*
X241756081Y-127990509D01*
X241568350Y-128010251D01*
X241421656Y-128077933D01*
X241374863Y-128111118D01*
X241307706Y-128141378D01*
X241231735Y-128135865D01*
X241111280Y-128096741D01*
X241092404Y-128090117D01*
X240961657Y-128055502D01*
X240834964Y-128051618D01*
X240669385Y-128076498D01*
X240579086Y-128091127D01*
X240348930Y-128092629D01*
X240169680Y-128029993D01*
X240034403Y-127901308D01*
X240030598Y-127895996D01*
X239943731Y-127799952D01*
X239872148Y-127782532D01*
X239804489Y-127840741D01*
X239791873Y-127855971D01*
X239744060Y-127882569D01*
X239661449Y-127883252D01*
X239519912Y-127859622D01*
X239356952Y-127839728D01*
X239129650Y-127832454D01*
X238884808Y-127841218D01*
X238856957Y-127843197D01*
X238679741Y-127857272D01*
X238569037Y-127872531D01*
X238507592Y-127894810D01*
X238478156Y-127929946D01*
X238463476Y-127983778D01*
X238441791Y-128087907D01*
X238406785Y-128213116D01*
X238362663Y-128282408D01*
X238294618Y-128314222D01*
X238187842Y-128326997D01*
X238144983Y-128331369D01*
X238008114Y-128360405D01*
X237909994Y-128402336D01*
X237891554Y-128413951D01*
X237748833Y-128457359D01*
X237584198Y-128454441D01*
X237441282Y-128404954D01*
X237412425Y-128389411D01*
X237332450Y-128368597D01*
X237216323Y-128369244D01*
X237040217Y-128390492D01*
X237032758Y-128391571D01*
X236872897Y-128409987D01*
X236742834Y-128416767D01*
X236670095Y-128410429D01*
X236648796Y-128379069D01*
X236616349Y-128275264D01*
X236580872Y-128116142D01*
X236544827Y-127918943D01*
X236510677Y-127700909D01*
X236480885Y-127479280D01*
X236457915Y-127271295D01*
X236444228Y-127094197D01*
X236442288Y-126965225D01*
X236454557Y-126901619D01*
X236460003Y-126893703D01*
X236491785Y-126808283D01*
X236514220Y-126688221D01*
X236518784Y-126645521D01*
X236518000Y-126562623D01*
X236478606Y-126531457D01*
X236379406Y-126526619D01*
X236370189Y-126526462D01*
X236224367Y-126499560D01*
X236146851Y-126466565D01*
X236786280Y-126466565D01*
X236821119Y-126478808D01*
X236931205Y-126482420D01*
X236989102Y-126483267D01*
X237075165Y-126493028D01*
X237104705Y-126524667D01*
X237098534Y-126591788D01*
X237095958Y-126609425D01*
X237095654Y-126730866D01*
X237111763Y-126899832D01*
X237140237Y-127094113D01*
X237177030Y-127291497D01*
X237218093Y-127469774D01*
X237259380Y-127606732D01*
X237296845Y-127680160D01*
X237321217Y-127699927D01*
X237386015Y-127727512D01*
X237490584Y-127746503D01*
X237650360Y-127759221D01*
X237880784Y-127767990D01*
X238070062Y-127771462D01*
X238258776Y-127768076D01*
X238373980Y-127754898D01*
X238422665Y-127731457D01*
X238429924Y-127687447D01*
X238429046Y-127571521D01*
X238418158Y-127406072D01*
X238398190Y-127210876D01*
X238378818Y-127055570D01*
X238354876Y-126899318D01*
X238331905Y-126806788D01*
X238306345Y-126765017D01*
X238274636Y-126761043D01*
X238252707Y-126767425D01*
X238078852Y-126807954D01*
X237944733Y-126812903D01*
X237816151Y-126783983D01*
X237671807Y-126715216D01*
X237503575Y-126588896D01*
X237364081Y-126437647D01*
X237280164Y-126286389D01*
X237231119Y-126137779D01*
X237073271Y-126260995D01*
X237031617Y-126292928D01*
X236916358Y-126376302D01*
X236829322Y-126432661D01*
X236815898Y-126440424D01*
X236786280Y-126466565D01*
X236146851Y-126466565D01*
X236085655Y-126440517D01*
X236036973Y-126411205D01*
X235951206Y-126365409D01*
X235912663Y-126361424D01*
X235903729Y-126394825D01*
X235892897Y-126450118D01*
X235861344Y-126546554D01*
X235818959Y-126658035D01*
X235656852Y-126551571D01*
X235646605Y-126545069D01*
X235517185Y-126480145D01*
X235342497Y-126411564D01*
X235157309Y-126353138D01*
X235028917Y-126321043D01*
X234823086Y-126292106D01*
X234673772Y-126316107D01*
X234568466Y-126400492D01*
X234494657Y-126552708D01*
X234439838Y-126780198D01*
X234427656Y-126854899D01*
X234405663Y-127049908D01*
X234396949Y-127225723D01*
X234410128Y-127368571D01*
X234467150Y-127503891D01*
X234578922Y-127606240D01*
X234755813Y-127684468D01*
X235008197Y-127747429D01*
X235155642Y-127776183D01*
X235321625Y-127803907D01*
X235434920Y-127811029D01*
X235514533Y-127795916D01*
X235579470Y-127756938D01*
X235648736Y-127692465D01*
X235696874Y-127646432D01*
X235745243Y-127613101D01*
X235766538Y-127628992D01*
X235761333Y-127702414D01*
X235730199Y-127841675D01*
X235673710Y-128055085D01*
X235579906Y-128399492D01*
X235413561Y-128394105D01*
X235290766Y-128404434D01*
X235169033Y-128466900D01*
X235168853Y-128467080D01*
X235127745Y-128502463D01*
X235082378Y-128516196D01*
X235013994Y-128505304D01*
X234903833Y-128466809D01*
X234733137Y-128397736D01*
X234530758Y-128323140D01*
X234336619Y-128269456D01*
X234191075Y-128249602D01*
X234016898Y-128237321D01*
X233845662Y-128180993D01*
X233720760Y-128068407D01*
X233624129Y-127888043D01*
X233577862Y-127777167D01*
X233535344Y-127682502D01*
X233514623Y-127646102D01*
X233514399Y-127646123D01*
X233472837Y-127667778D01*
X233378249Y-127722346D01*
X233250555Y-127798344D01*
X233182738Y-127837194D01*
X232954935Y-127946395D01*
X232713957Y-128036264D01*
X232488002Y-128097215D01*
X232305269Y-128119661D01*
X232239102Y-128122863D01*
X232167224Y-128153124D01*
X232131773Y-128231909D01*
X232120861Y-128299675D01*
X232137615Y-128351272D01*
X232196687Y-128393227D01*
X232311938Y-128435210D01*
X232497225Y-128486892D01*
X232501478Y-128488022D01*
X232644845Y-128526917D01*
X232749821Y-128556850D01*
X232793947Y-128571422D01*
X232794096Y-128571566D01*
X232790000Y-128614746D01*
X232789804Y-128616814D01*
X232768382Y-128726634D01*
X232764603Y-128743899D01*
X232734221Y-128882713D01*
X232691713Y-129066736D01*
X232655551Y-129217458D01*
X232645251Y-129260387D01*
X232602371Y-129432712D01*
X232599226Y-129445353D01*
X232558031Y-129603319D01*
X232526059Y-129715971D01*
X232507701Y-129764993D01*
X232481026Y-129768706D01*
X232385213Y-129755192D01*
X232238816Y-129722527D01*
X232060652Y-129674518D01*
X231913019Y-129633922D01*
X231747669Y-129597807D01*
X231661294Y-129594172D01*
X231653744Y-129622252D01*
X231408655Y-129622252D01*
X231413769Y-129598793D01*
X231463585Y-129492747D01*
X231494193Y-129432712D01*
X231684746Y-129432712D01*
X231706271Y-129454238D01*
X231727797Y-129432712D01*
X231706271Y-129411187D01*
X231684746Y-129432712D01*
X231494193Y-129432712D01*
X231508570Y-129404512D01*
X231587421Y-129217721D01*
X231587518Y-129217458D01*
X231770848Y-129217458D01*
X231792373Y-129238983D01*
X231813899Y-129217458D01*
X231792373Y-129195933D01*
X231770848Y-129217458D01*
X231587518Y-129217458D01*
X231673668Y-128984383D01*
X231753913Y-128743899D01*
X231943051Y-128743899D01*
X231964577Y-128765424D01*
X231986102Y-128743899D01*
X231964577Y-128722373D01*
X231943051Y-128743899D01*
X231753913Y-128743899D01*
X231759646Y-128726718D01*
X231793286Y-128614746D01*
X231986102Y-128614746D01*
X232007627Y-128636272D01*
X232029153Y-128614746D01*
X232007627Y-128593221D01*
X231986102Y-128614746D01*
X231793286Y-128614746D01*
X231837690Y-128466946D01*
X231900133Y-128227289D01*
X231923538Y-128131036D01*
X231989097Y-127896532D01*
X232052816Y-127716381D01*
X232110731Y-127600798D01*
X232158883Y-127560000D01*
X232182168Y-127560237D01*
X232197377Y-127572600D01*
X232189818Y-127620503D01*
X232159590Y-127727724D01*
X232117824Y-127873354D01*
X232385607Y-127845425D01*
X232496176Y-127829381D01*
X232822921Y-127733051D01*
X233140480Y-127572944D01*
X233433474Y-127361396D01*
X233686525Y-127110739D01*
X233884256Y-126833310D01*
X234011289Y-126541443D01*
X234018049Y-126517344D01*
X234042462Y-126322102D01*
X233997314Y-126175730D01*
X233883206Y-126076703D01*
X235473221Y-126076703D01*
X235474134Y-126078884D01*
X235521995Y-126091233D01*
X235620159Y-126096272D01*
X235637284Y-126096248D01*
X235724655Y-126089807D01*
X235746619Y-126056798D01*
X235721470Y-125975392D01*
X235675843Y-125854512D01*
X235574532Y-125955823D01*
X235566866Y-125963545D01*
X235500477Y-126036127D01*
X235473221Y-126076703D01*
X233883206Y-126076703D01*
X233881853Y-126075529D01*
X233821175Y-126045864D01*
X233723175Y-126012883D01*
X233691575Y-126032934D01*
X233727220Y-126105851D01*
X233780385Y-126222367D01*
X233785353Y-126233254D01*
X233772785Y-126375877D01*
X233677858Y-126529331D01*
X233548385Y-126650038D01*
X233354962Y-126747969D01*
X233149999Y-126779081D01*
X232950920Y-126744205D01*
X232775149Y-126644174D01*
X232640109Y-126479818D01*
X232604110Y-126419386D01*
X232555560Y-126374006D01*
X232481451Y-126363304D01*
X232352034Y-126376625D01*
X232246920Y-126388561D01*
X232064887Y-126406161D01*
X231846912Y-126425093D01*
X231620170Y-126442896D01*
X231615539Y-126443238D01*
X231415765Y-126458057D01*
X231250881Y-126470376D01*
X231137882Y-126478919D01*
X231093759Y-126482411D01*
X231108013Y-126500236D01*
X231170090Y-126562171D01*
X231265962Y-126652929D01*
X231290736Y-126677053D01*
X231383622Y-126782244D01*
X231478546Y-126907345D01*
X231564324Y-127034941D01*
X231629772Y-127147619D01*
X231663706Y-127227966D01*
X231654941Y-127258568D01*
X231632463Y-127243929D01*
X231572834Y-127174023D01*
X231498504Y-127065909D01*
X231373556Y-126897558D01*
X231192144Y-126729088D01*
X231000412Y-126622775D01*
X230810962Y-126585100D01*
X230636394Y-126622542D01*
X230508670Y-126683031D01*
X230741538Y-126815308D01*
X230789430Y-126843793D01*
X230911977Y-126926497D01*
X231024811Y-127014091D01*
X231112586Y-127093208D01*
X231159961Y-127150481D01*
X231151590Y-127172543D01*
X231128300Y-127163025D01*
X231051205Y-127112687D01*
X230947089Y-127033558D01*
X230915283Y-127008503D01*
X230802490Y-126935731D01*
X230688557Y-126902171D01*
X230531345Y-126893643D01*
X230515268Y-126893585D01*
X230382576Y-126896726D01*
X230303339Y-126917880D01*
X230247681Y-126972978D01*
X230185728Y-127077951D01*
X230170480Y-127106994D01*
X230109538Y-127237541D01*
X230030198Y-127421574D01*
X229941032Y-127638853D01*
X229850612Y-127869140D01*
X229844229Y-127885776D01*
X229727891Y-128180580D01*
X229622103Y-128426139D01*
X229514506Y-128646139D01*
X229392740Y-128864268D01*
X229244447Y-129104213D01*
X229057267Y-129389661D01*
X228928172Y-129583601D01*
X228781476Y-129813322D01*
X228682562Y-129997639D01*
X228632171Y-130152535D01*
X228631043Y-130293993D01*
X228414596Y-130293993D01*
X228413827Y-130264271D01*
X228417006Y-130194631D01*
X228440233Y-130064650D01*
X228491361Y-129921426D01*
X228576744Y-129751369D01*
X228702736Y-129540886D01*
X228875691Y-129276388D01*
X228893410Y-129249943D01*
X229078523Y-128968470D01*
X229224955Y-128731808D01*
X229344457Y-128517592D01*
X229448783Y-128303455D01*
X229549686Y-128067032D01*
X229658919Y-127785959D01*
X229760185Y-127523332D01*
X229886378Y-127217247D01*
X229992915Y-126987823D01*
X230081583Y-126831300D01*
X230154169Y-126743920D01*
X230184759Y-126716210D01*
X230198789Y-126671360D01*
X230150855Y-126606709D01*
X230141954Y-126597007D01*
X230066937Y-126535561D01*
X230018887Y-126553012D01*
X229984891Y-126652958D01*
X229960587Y-126740242D01*
X229911471Y-126819001D01*
X229830556Y-126850560D01*
X229701995Y-126839506D01*
X229509940Y-126790427D01*
X229490008Y-126784739D01*
X229320816Y-126744293D01*
X229176121Y-126722303D01*
X229084475Y-126723275D01*
X229064799Y-126726726D01*
X228937822Y-126714492D01*
X228777167Y-126659639D01*
X228708679Y-126632059D01*
X228562476Y-126587441D01*
X228447678Y-126569831D01*
X228393181Y-126564557D01*
X228256094Y-126531596D01*
X228108744Y-126478428D01*
X228060155Y-126456978D01*
X227955984Y-126400227D01*
X227920034Y-126357828D01*
X232724561Y-126357828D01*
X232758988Y-126432962D01*
X232839503Y-126515967D01*
X232949001Y-126585745D01*
X232966742Y-126594035D01*
X233118675Y-126646503D01*
X233250635Y-126642158D01*
X233403720Y-126580527D01*
X233501201Y-126519460D01*
X233611946Y-126416159D01*
X233679714Y-126310082D01*
X233687740Y-126222367D01*
X233660108Y-126166571D01*
X233595950Y-126109747D01*
X233495741Y-126093515D01*
X233345633Y-126116781D01*
X233131775Y-126178451D01*
X233050932Y-126204844D01*
X232896889Y-126257584D01*
X232785136Y-126299243D01*
X232735632Y-126322561D01*
X232724561Y-126357828D01*
X227920034Y-126357828D01*
X227907919Y-126343540D01*
X227896271Y-126267362D01*
X227906358Y-126203609D01*
X227936793Y-126065465D01*
X227985047Y-125864249D01*
X228048570Y-125610157D01*
X228053808Y-125589767D01*
X228687279Y-125589767D01*
X228698017Y-125675788D01*
X228729098Y-125764078D01*
X228765404Y-125838263D01*
X228831010Y-125919510D01*
X228929524Y-125983697D01*
X229078290Y-126041201D01*
X229294656Y-126102398D01*
X229422061Y-126133918D01*
X229664801Y-126177816D01*
X229846298Y-126175933D01*
X229978481Y-126121242D01*
X230073281Y-126006717D01*
X230142628Y-125825330D01*
X230184025Y-125636023D01*
X230695138Y-125636023D01*
X230700414Y-125804845D01*
X230742519Y-125929722D01*
X230822472Y-126024031D01*
X230869253Y-126057425D01*
X231012239Y-126128805D01*
X231168998Y-126178536D01*
X231276399Y-126196844D01*
X231472546Y-126217419D01*
X231663663Y-126225424D01*
X231765161Y-126223173D01*
X231905156Y-126202687D01*
X232004448Y-126149731D01*
X232075265Y-126050995D01*
X232078152Y-126042645D01*
X232638947Y-126042645D01*
X232664327Y-126081651D01*
X232730860Y-126082719D01*
X232851912Y-126048995D01*
X233040848Y-125983627D01*
X233064221Y-125975413D01*
X233321754Y-125890055D01*
X233518359Y-125837940D01*
X233670150Y-125816714D01*
X233793241Y-125824020D01*
X233903746Y-125857504D01*
X233941125Y-125872393D01*
X234037332Y-125902925D01*
X234085308Y-125905653D01*
X234085646Y-125887254D01*
X234057556Y-125811042D01*
X234001777Y-125700597D01*
X233984099Y-125669291D01*
X233917864Y-125571406D01*
X233855102Y-125530002D01*
X233771130Y-125526445D01*
X233692734Y-125533614D01*
X233542053Y-125547763D01*
X233375659Y-125563675D01*
X233309984Y-125569399D01*
X233165914Y-125572078D01*
X233058781Y-125550253D01*
X232953452Y-125498501D01*
X232916255Y-125476821D01*
X232826733Y-125427253D01*
X232783421Y-125407458D01*
X232774592Y-125414133D01*
X232745279Y-125480155D01*
X232710537Y-125597630D01*
X232676878Y-125742767D01*
X232650816Y-125891780D01*
X232641356Y-125962553D01*
X232638947Y-126042645D01*
X232078152Y-126042645D01*
X232129832Y-125893169D01*
X232180378Y-125662944D01*
X232189140Y-125616923D01*
X232223792Y-125379863D01*
X232220121Y-125203503D01*
X232168750Y-125073235D01*
X232060299Y-124974452D01*
X231885391Y-124892547D01*
X231634648Y-124812911D01*
X231427647Y-124757712D01*
X231265661Y-124728148D01*
X231146615Y-124729631D01*
X231051018Y-124762580D01*
X230959376Y-124827414D01*
X230946713Y-124838374D01*
X230869413Y-124928026D01*
X230812188Y-125051211D01*
X230783705Y-125155741D01*
X230762344Y-125234132D01*
X230725674Y-125409876D01*
X230695138Y-125636023D01*
X230184025Y-125636023D01*
X230198450Y-125570056D01*
X230231548Y-125378662D01*
X230248537Y-125246939D01*
X230248958Y-125155741D01*
X230232889Y-125082958D01*
X230200406Y-125006482D01*
X230182541Y-124971932D01*
X230110291Y-124877954D01*
X230001997Y-124800895D01*
X229841259Y-124731072D01*
X229611679Y-124658798D01*
X229489284Y-124627241D01*
X229249919Y-124593309D01*
X229068211Y-124615672D01*
X228937663Y-124695839D01*
X228851774Y-124835320D01*
X228849148Y-124842311D01*
X228816140Y-124950047D01*
X228775422Y-125107515D01*
X228735193Y-125283221D01*
X228728209Y-125316142D01*
X228697229Y-125478918D01*
X228687279Y-125589767D01*
X228053808Y-125589767D01*
X228124812Y-125313379D01*
X228211224Y-124984110D01*
X228305254Y-124632543D01*
X228392992Y-124303217D01*
X228480382Y-123965942D01*
X228557678Y-123657960D01*
X228622296Y-123390004D01*
X228671652Y-123172810D01*
X228703160Y-123017115D01*
X228714238Y-122933652D01*
X228722824Y-122830303D01*
X228780310Y-122669409D01*
X228882576Y-122562091D01*
X229018718Y-122523051D01*
X229077533Y-122531298D01*
X229189929Y-122581675D01*
X229280041Y-122658627D01*
X229316949Y-122739693D01*
X229339069Y-122776265D01*
X229413814Y-122820861D01*
X229510678Y-122857590D01*
X229400731Y-122908639D01*
X229317760Y-122960671D01*
X229241001Y-123039401D01*
X229227752Y-123064645D01*
X229185014Y-123182669D01*
X229139932Y-123346544D01*
X229099307Y-123527091D01*
X229069944Y-123695136D01*
X229058644Y-123821501D01*
X229060537Y-123857689D01*
X229108927Y-123990648D01*
X229226697Y-124102809D01*
X229419262Y-124198099D01*
X229692039Y-124280441D01*
X229761867Y-124297474D01*
X229950694Y-124341178D01*
X230081469Y-124364578D01*
X230173594Y-124369132D01*
X230246472Y-124356293D01*
X230319504Y-124327518D01*
X230392481Y-124281717D01*
X230464326Y-124196671D01*
X230527566Y-124065185D01*
X230562416Y-123955529D01*
X231075118Y-123955529D01*
X231089821Y-124120011D01*
X231157448Y-124244372D01*
X231286165Y-124340989D01*
X231484138Y-124422240D01*
X231759534Y-124500502D01*
X231956809Y-124548778D01*
X232107856Y-124578095D01*
X232211467Y-124584468D01*
X232285849Y-124568878D01*
X232349205Y-124532308D01*
X232349933Y-124531775D01*
X232380614Y-124504429D01*
X232397670Y-124467062D01*
X232400180Y-124404846D01*
X232387222Y-124302958D01*
X232357876Y-124146571D01*
X232311221Y-123920859D01*
X232304182Y-123887472D01*
X232258045Y-123677442D01*
X232215376Y-123497026D01*
X232180661Y-123364493D01*
X232158384Y-123298113D01*
X232145246Y-123281843D01*
X232060711Y-123227917D01*
X231928198Y-123170938D01*
X231774939Y-123120318D01*
X231628166Y-123085468D01*
X231515109Y-123075799D01*
X231439308Y-123091030D01*
X231318128Y-123173559D01*
X231220905Y-123330682D01*
X231143893Y-123567359D01*
X231105172Y-123738548D01*
X231075118Y-123955529D01*
X230562416Y-123955529D01*
X230588258Y-123874218D01*
X230652461Y-123610726D01*
X230684823Y-123477098D01*
X230734621Y-123304722D01*
X230781879Y-123175040D01*
X230819632Y-123108960D01*
X230839090Y-123094734D01*
X230941575Y-123047983D01*
X231073009Y-123011456D01*
X231122493Y-123000378D01*
X231150866Y-122987763D01*
X231148883Y-122971009D01*
X231109104Y-122947158D01*
X231024088Y-122913253D01*
X230886395Y-122866338D01*
X230688583Y-122803455D01*
X230423211Y-122721647D01*
X230082840Y-122617957D01*
X230030722Y-122602138D01*
X229728200Y-122511265D01*
X229452073Y-122429876D01*
X229213517Y-122361153D01*
X229023707Y-122308277D01*
X228893819Y-122274428D01*
X228835028Y-122262787D01*
X228832144Y-122262934D01*
X228749213Y-122293893D01*
X228653205Y-122361611D01*
X228624740Y-122391839D01*
X228594377Y-122437111D01*
X228561576Y-122502184D01*
X228524633Y-122592846D01*
X228481844Y-122714883D01*
X228431505Y-122874082D01*
X228371912Y-123076229D01*
X228301361Y-123327111D01*
X228218149Y-123632515D01*
X228120570Y-123998228D01*
X228006921Y-124430036D01*
X227875498Y-124933726D01*
X227724597Y-125515085D01*
X227575465Y-126091470D01*
X227387986Y-126819134D01*
X227221531Y-127469317D01*
X227075306Y-128045301D01*
X226948520Y-128550369D01*
X226840382Y-128987807D01*
X226750100Y-129360897D01*
X226676882Y-129672922D01*
X226619936Y-129927167D01*
X226578471Y-130126915D01*
X226551695Y-130275450D01*
X226538816Y-130376054D01*
X226211165Y-130376054D01*
X226253151Y-130186221D01*
X226316524Y-129912164D01*
X226396280Y-129575998D01*
X226491061Y-129183333D01*
X226599511Y-128739780D01*
X226720275Y-128250948D01*
X226851995Y-127722447D01*
X226993316Y-127159889D01*
X227142882Y-126568882D01*
X227155581Y-126518873D01*
X227296620Y-125962698D01*
X227431309Y-125430181D01*
X227558155Y-124927300D01*
X227675666Y-124460032D01*
X227782350Y-124034355D01*
X227876714Y-123656246D01*
X227957267Y-123331683D01*
X228022517Y-123066642D01*
X228070972Y-122867102D01*
X228101138Y-122739040D01*
X228111526Y-122688434D01*
X228113892Y-122675511D01*
X228152303Y-122595890D01*
X228227966Y-122475767D01*
X228328223Y-122335743D01*
X228404036Y-122236902D01*
X228491261Y-122133854D01*
X228559840Y-122077628D01*
X228628855Y-122054186D01*
X228717393Y-122049492D01*
X228776751Y-122057820D01*
X228916346Y-122089822D01*
X229119052Y-122142926D01*
X229374465Y-122214037D01*
X229672181Y-122300061D01*
X230001797Y-122397901D01*
X230352910Y-122504463D01*
X230715117Y-122616652D01*
X231078015Y-122731371D01*
X231431199Y-122845526D01*
X231764268Y-122956021D01*
X231802905Y-122968885D01*
X231865953Y-122987763D01*
X232007701Y-123030206D01*
G37*
%TO.C,C18*%
X188410000Y-47659420D02*
X188410000Y-47940580D01*
X187390000Y-47659420D02*
X187390000Y-47940580D01*
%TO.C,C17*%
X175592164Y-48040000D02*
X175807836Y-48040000D01*
X175592164Y-48760000D02*
X175807836Y-48760000D01*
%TO.C,R15*%
X186880000Y-48146359D02*
X186880000Y-48453641D01*
X186120000Y-48146359D02*
X186120000Y-48453641D01*
%TD*%
%LPC*%
D14*
%TO.C,USB1*%
X164830000Y-44950000D03*
X159050000Y-44950000D03*
D15*
X166260000Y-45480000D03*
D16*
X166260000Y-41300000D03*
D15*
X157620000Y-45480000D03*
D16*
X157620000Y-41300000D03*
%TD*%
D17*
%TO.C,SW19*%
X140500000Y-45150000D03*
%TD*%
D18*
%TO.C,D15*%
X102750000Y-99210000D03*
D19*
X103250000Y-104360000D03*
D20*
X108250000Y-93260000D03*
D21*
X108250000Y-99210000D03*
D20*
X113250000Y-95460000D03*
D18*
X113750000Y-99210000D03*
D22*
X110850000Y-104760000D03*
X110850000Y-103260000D03*
X105650000Y-103260000D03*
X105650000Y-104760000D03*
D23*
X104975000Y-93260000D03*
X116525000Y-95460000D03*
%TD*%
D18*
%TO.C,D14*%
X131600000Y-99210000D03*
D19*
X132100000Y-104360000D03*
D20*
X137100000Y-93260000D03*
D21*
X137100000Y-99210000D03*
D20*
X142100000Y-95460000D03*
D18*
X142600000Y-99210000D03*
D22*
X139700000Y-104760000D03*
X139700000Y-103260000D03*
X134500000Y-103260000D03*
X134500000Y-104760000D03*
D23*
X133825000Y-93260000D03*
X145375000Y-95460000D03*
%TD*%
D18*
%TO.C,D16*%
X73540000Y-99210000D03*
D19*
X74040000Y-104360000D03*
D20*
X79040000Y-93260000D03*
D21*
X79040000Y-99210000D03*
D20*
X84040000Y-95460000D03*
D18*
X84540000Y-99210000D03*
D22*
X81640000Y-104760000D03*
X81640000Y-103260000D03*
X76440000Y-103260000D03*
X76440000Y-104760000D03*
D23*
X75765000Y-93260000D03*
X87315000Y-95460000D03*
%TD*%
D18*
%TO.C,D6*%
X126040000Y-67750000D03*
D19*
X126540000Y-72900000D03*
D20*
X131540000Y-61800000D03*
D21*
X131540000Y-67750000D03*
D20*
X136540000Y-64000000D03*
D18*
X137040000Y-67750000D03*
D22*
X134140000Y-73300000D03*
X134140000Y-71800000D03*
X128940000Y-71800000D03*
X128940000Y-73300000D03*
D23*
X128265000Y-61800000D03*
X139815000Y-64000000D03*
%TD*%
D18*
%TO.C,D5*%
X152600000Y-79280000D03*
D19*
X153100000Y-84430000D03*
D20*
X158100000Y-73330000D03*
D21*
X158100000Y-79280000D03*
D20*
X163100000Y-75530000D03*
D18*
X163600000Y-79280000D03*
D22*
X160700000Y-84830000D03*
X160700000Y-83330000D03*
X155500000Y-83330000D03*
X155500000Y-84830000D03*
D23*
X154825000Y-73330000D03*
X166375000Y-75530000D03*
%TD*%
D18*
%TO.C,D1*%
X170040000Y-143790000D03*
D19*
X170540000Y-148940000D03*
D20*
X175540000Y-137840000D03*
D21*
X175540000Y-143790000D03*
D20*
X180540000Y-140040000D03*
D18*
X181040000Y-143790000D03*
D22*
X178140000Y-149340000D03*
X178140000Y-147840000D03*
X172940000Y-147840000D03*
X172940000Y-149340000D03*
D23*
X172265000Y-137840000D03*
X183815000Y-140040000D03*
%TD*%
D18*
%TO.C,D4*%
X187540000Y-90690000D03*
D19*
X188040000Y-95840000D03*
D20*
X193040000Y-84740000D03*
D21*
X193040000Y-90690000D03*
D20*
X198040000Y-86940000D03*
D18*
X198540000Y-90690000D03*
D22*
X195640000Y-96240000D03*
X195640000Y-94740000D03*
X190440000Y-94740000D03*
X190440000Y-96240000D03*
D23*
X189765000Y-84740000D03*
X201315000Y-86940000D03*
%TD*%
D18*
%TO.C,D2*%
X243235000Y-79220000D03*
D19*
X243735000Y-84370000D03*
D20*
X248735000Y-73270000D03*
D21*
X248735000Y-79220000D03*
D20*
X253735000Y-75470000D03*
D18*
X254235000Y-79220000D03*
D22*
X251335000Y-84770000D03*
X251335000Y-83270000D03*
X246135000Y-83270000D03*
X246135000Y-84770000D03*
D23*
X245460000Y-73270000D03*
X257010000Y-75470000D03*
%TD*%
D18*
%TO.C,D13*%
X158210000Y-110320000D03*
D19*
X158710000Y-115470000D03*
D20*
X163710000Y-104370000D03*
D21*
X163710000Y-110320000D03*
D20*
X168710000Y-106570000D03*
D18*
X169210000Y-110320000D03*
D22*
X166310000Y-115870000D03*
X166310000Y-114370000D03*
X161110000Y-114370000D03*
X161110000Y-115870000D03*
D23*
X160435000Y-104370000D03*
X171985000Y-106570000D03*
%TD*%
D18*
%TO.C,D3*%
X214140000Y-79340000D03*
D19*
X214640000Y-84490000D03*
D20*
X219640000Y-73390000D03*
D21*
X219640000Y-79340000D03*
D20*
X224640000Y-75590000D03*
D18*
X225140000Y-79340000D03*
D22*
X222240000Y-84890000D03*
X222240000Y-83390000D03*
X217040000Y-83390000D03*
X217040000Y-84890000D03*
D23*
X216365000Y-73390000D03*
X227915000Y-75590000D03*
%TD*%
D18*
%TO.C,D7*%
X97070000Y-67630000D03*
D19*
X97570000Y-72780000D03*
D20*
X102570000Y-61680000D03*
D21*
X102570000Y-67630000D03*
D20*
X107570000Y-63880000D03*
D18*
X108070000Y-67630000D03*
D22*
X105170000Y-73180000D03*
X105170000Y-71680000D03*
X99970000Y-71680000D03*
X99970000Y-73180000D03*
D23*
X99295000Y-61680000D03*
X110845000Y-63880000D03*
%TD*%
D18*
%TO.C,D12*%
X68100000Y-67870000D03*
D19*
X68600000Y-73020000D03*
D20*
X73600000Y-61920000D03*
D21*
X73600000Y-67870000D03*
D20*
X78600000Y-64120000D03*
D18*
X79100000Y-67870000D03*
D22*
X76200000Y-73420000D03*
X76200000Y-71920000D03*
X71000000Y-71920000D03*
X71000000Y-73420000D03*
D23*
X70325000Y-61920000D03*
X81875000Y-64120000D03*
%TD*%
D24*
%TO.C,C1*%
X160280000Y-58600000D03*
X159320000Y-58600000D03*
%TD*%
%TO.C,C2*%
X179380000Y-78700000D03*
X178420000Y-78700000D03*
%TD*%
D25*
%TO.C,C4*%
X164300000Y-62140000D03*
X164300000Y-63100000D03*
%TD*%
%TO.C,C5*%
X182200000Y-62320000D03*
X182200000Y-63280000D03*
%TD*%
D26*
%TO.C,C6*%
X173400000Y-65280000D03*
X173400000Y-64320000D03*
%TD*%
D25*
%TO.C,C7*%
X175221644Y-76970000D03*
X175221644Y-77930000D03*
%TD*%
D26*
%TO.C,C8*%
X177900000Y-65330000D03*
X177900000Y-64370000D03*
%TD*%
%TO.C,C9*%
X176500000Y-65280000D03*
X176500000Y-64320000D03*
%TD*%
D24*
%TO.C,C10*%
X171480000Y-66750000D03*
X170520000Y-66750000D03*
%TD*%
%TO.C,C15*%
X171480000Y-68800000D03*
X170520000Y-68800000D03*
%TD*%
%TO.C,C16*%
X171480000Y-67750000D03*
X170520000Y-67750000D03*
%TD*%
D27*
%TO.C,R1*%
X193540000Y-62400000D03*
X194560000Y-62400000D03*
%TD*%
D28*
%TO.C,R2*%
X194610000Y-61300000D03*
X193590000Y-61300000D03*
%TD*%
D29*
%TO.C,R4*%
X174420000Y-64290000D03*
X174420000Y-65310000D03*
%TD*%
D30*
%TO.C,U1*%
X160412500Y-61950000D03*
X160412500Y-61000000D03*
X160412500Y-60050000D03*
X162687500Y-60050000D03*
X162687500Y-61950000D03*
%TD*%
D31*
%TO.C,U2*%
X191600000Y-62345000D03*
X191600000Y-63615000D03*
X191600000Y-64885000D03*
X191600000Y-66155000D03*
X184400000Y-66155000D03*
X184400000Y-64885000D03*
X184400000Y-63615000D03*
X184400000Y-62345000D03*
%TD*%
D32*
%TO.C,U3*%
X180259144Y-68950000D03*
X180259144Y-69350000D03*
X180259144Y-69750000D03*
X180259144Y-70150000D03*
X180259144Y-70550000D03*
X180259144Y-70950000D03*
X180259144Y-71350000D03*
X180259144Y-71750000D03*
X180259144Y-72150000D03*
X180259144Y-72550000D03*
X180259144Y-72950000D03*
X180259144Y-73350000D03*
X180259144Y-73750000D03*
X180259144Y-74150000D03*
D33*
X179421644Y-74987500D03*
X179021644Y-74987500D03*
X178621644Y-74987500D03*
X178221644Y-74987500D03*
X177821644Y-74987500D03*
X177421644Y-74987500D03*
X177021644Y-74987500D03*
X176621644Y-74987500D03*
X176221644Y-74987500D03*
X175821644Y-74987500D03*
X175421644Y-74987500D03*
X175021644Y-74987500D03*
X174621644Y-74987500D03*
X174221644Y-74987500D03*
D32*
X173384144Y-74150000D03*
X173384144Y-73750000D03*
X173384144Y-73350000D03*
X173384144Y-72950000D03*
X173384144Y-72550000D03*
X173384144Y-72150000D03*
X173384144Y-71750000D03*
X173384144Y-71350000D03*
X173384144Y-70950000D03*
X173384144Y-70550000D03*
X173384144Y-70150000D03*
X173384144Y-69750000D03*
X173384144Y-69350000D03*
X173384144Y-68950000D03*
D33*
X174221644Y-68112500D03*
X174621644Y-68112500D03*
X175021644Y-68112500D03*
X175421644Y-68112500D03*
X175821644Y-68112500D03*
X176221644Y-68112500D03*
X176621644Y-68112500D03*
X177021644Y-68112500D03*
X177421644Y-68112500D03*
X177821644Y-68112500D03*
X178221644Y-68112500D03*
X178621644Y-68112500D03*
X179021644Y-68112500D03*
X179421644Y-68112500D03*
D34*
X176821644Y-71550000D03*
%TD*%
D35*
%TO.C,Y1*%
X179471644Y-82050000D03*
X177271644Y-82050000D03*
X177271644Y-80350000D03*
X179471644Y-80350000D03*
%TD*%
D29*
%TO.C,R3*%
X175500000Y-64290000D03*
X175500000Y-65310000D03*
%TD*%
D25*
%TO.C,C3*%
X175671644Y-80320000D03*
X175671644Y-81280000D03*
%TD*%
D36*
%TO.C,C13*%
X181791644Y-72500000D03*
X182751644Y-72500000D03*
%TD*%
D24*
%TO.C,C12*%
X171480000Y-72300000D03*
X170520000Y-72300000D03*
%TD*%
D37*
%TO.C,R5*%
X177271644Y-78810000D03*
X177271644Y-77790000D03*
%TD*%
D25*
%TO.C,C14*%
X176251644Y-76970000D03*
X176251644Y-77930000D03*
%TD*%
D36*
%TO.C,C11*%
X181791644Y-68900000D03*
X182751644Y-68900000D03*
%TD*%
D29*
%TO.C,R17*%
X183600000Y-47800000D03*
X183600000Y-48820000D03*
%TD*%
D38*
%TO.C,H1*%
X259880000Y-51320000D03*
%TD*%
D39*
%TO.C,C20*%
X189500000Y-48575000D03*
X189500000Y-47025000D03*
%TD*%
D40*
%TO.C,DS1*%
X174040000Y-51075000D03*
X174540000Y-51075000D03*
X175040000Y-51075000D03*
X175540000Y-51075000D03*
X176040000Y-51075000D03*
X176540000Y-51075000D03*
X177040000Y-51075000D03*
X177540000Y-51075000D03*
X178040000Y-51075000D03*
X178540000Y-51075000D03*
X179040000Y-51075000D03*
X179540000Y-51075000D03*
X180040000Y-51075000D03*
X180540000Y-51075000D03*
X181040000Y-51075000D03*
X181540000Y-51075000D03*
X182040000Y-51075000D03*
X182540000Y-51075000D03*
X183040000Y-51075000D03*
X183540000Y-51075000D03*
X184040000Y-51075000D03*
X184540000Y-51075000D03*
X185040000Y-51075000D03*
X185540000Y-51075000D03*
X186040000Y-51075000D03*
X186540000Y-51075000D03*
X187040000Y-51075000D03*
X187540000Y-51075000D03*
X188040000Y-51075000D03*
X188540000Y-51075000D03*
D41*
X190210000Y-52775000D03*
X172370000Y-52775000D03*
%TD*%
D29*
%TO.C,R16*%
X182600000Y-47790000D03*
X182600000Y-48810000D03*
%TD*%
D38*
%TO.C,H6*%
X156860000Y-157310000D03*
%TD*%
D36*
%TO.C,C19*%
X173220000Y-48400000D03*
X174180000Y-48400000D03*
%TD*%
D38*
%TO.C,H7*%
X63850000Y-157320000D03*
%TD*%
%TO.C,H5*%
X63870000Y-51320000D03*
%TD*%
D42*
%TO.C,C18*%
X187900000Y-47025000D03*
X187900000Y-48575000D03*
%TD*%
D36*
%TO.C,C17*%
X175220000Y-48400000D03*
X176180000Y-48400000D03*
%TD*%
D38*
%TO.C,H2*%
X173370000Y-92320000D03*
%TD*%
D29*
%TO.C,R15*%
X186500000Y-47790000D03*
X186500000Y-48810000D03*
%TD*%
D38*
%TO.C,H3*%
X259860000Y-157330000D03*
%TD*%
%TO.C,H4*%
X150280000Y-51320000D03*
%TD*%
%LPD*%
M02*
