%TF.GenerationSoftware,KiCad,Pcbnew,7.0.9*%
%TF.CreationDate,2024-03-26T15:37:35+08:00*%
%TF.ProjectId,Flatbox-LED-Mirrored,466c6174-626f-4782-9d4c-45442d4d6972,rev?*%
%TF.SameCoordinates,Original*%
%TF.FileFunction,Profile,NP*%
%FSLAX46Y46*%
G04 Gerber Fmt 4.6, Leading zero omitted, Abs format (unit mm)*
G04 Created by KiCad (PCBNEW 7.0.9) date 2024-03-26 15:37:35*
%MOMM*%
%LPD*%
G01*
G04 APERTURE LIST*
%TA.AperFunction,Profile*%
%ADD10C,0.050000*%
%TD*%
%TA.AperFunction,Profile*%
%ADD11C,0.100000*%
%TD*%
G04 APERTURE END LIST*
D10*
X156460000Y-43170000D02*
X156460000Y-39670000D01*
X168460000Y-44170000D02*
X261960000Y-44170000D01*
X56960000Y-159170000D02*
X56960000Y-49170000D01*
X261960000Y-164170000D02*
X61960000Y-164170000D01*
X266960000Y-49170000D02*
X266960000Y-159170000D01*
X61960000Y-44170000D02*
X155460000Y-44170000D01*
X156460000Y-39670000D02*
X167460000Y-39670000D01*
X190940000Y-59950000D02*
X190940000Y-57950000D01*
X167460000Y-39670000D02*
X167460000Y-43170000D01*
X172390000Y-57950000D02*
X190940000Y-57950000D01*
X190940000Y-59950000D02*
X172390000Y-59950000D01*
X167460000Y-43170000D02*
G75*
G03*
X168460000Y-44170000I1000000J0D01*
G01*
X56960000Y-159170000D02*
G75*
G03*
X61960000Y-164170000I5000000J0D01*
G01*
X61960000Y-44170000D02*
G75*
G03*
X56960000Y-49170000I0J-5000000D01*
G01*
X266960000Y-49170000D02*
G75*
G03*
X261960000Y-44170000I-5000000J0D01*
G01*
X155460000Y-44170000D02*
G75*
G03*
X156460000Y-43170000I0J1000000D01*
G01*
X261960000Y-164170000D02*
G75*
G03*
X266960000Y-159170000I0J5000000D01*
G01*
X172390000Y-59950000D02*
X172390000Y-57950000D01*
D11*
%TO.C,D15*%
X106550001Y-104712842D02*
X106550001Y-103307158D01*
X107455548Y-102510000D02*
X109044452Y-102510000D01*
X109044452Y-105509999D02*
X107455547Y-105509999D01*
X109949999Y-103307158D02*
X109949999Y-104712842D01*
X106550001Y-103307158D02*
G75*
G03*
X106500516Y-103090280I-500028J-7D01*
G01*
X107203289Y-102441701D02*
G75*
G03*
X106500516Y-103090281I-252256J-431703D01*
G01*
X106500516Y-104929720D02*
G75*
G03*
X106550001Y-104712843I-450505J216876D01*
G01*
X106500516Y-104929720D02*
G75*
G03*
X107203289Y-105578298I450510J-216883D01*
G01*
X107455547Y-105510000D02*
G75*
G03*
X107203289Y-105578299I-36J-499866D01*
G01*
X107203289Y-102441701D02*
G75*
G03*
X107455548Y-102510000I252325J431946D01*
G01*
X109296709Y-105578302D02*
G75*
G03*
X109044453Y-105510000I-252209J-431498D01*
G01*
X109044452Y-102509999D02*
G75*
G03*
X109296710Y-102441701I-2J500009D01*
G01*
X109999482Y-103090279D02*
G75*
G03*
X109296711Y-102441703I-450502J216889D01*
G01*
X109999479Y-103090278D02*
G75*
G03*
X109949999Y-103307157I450321J-216822D01*
G01*
X109296711Y-105578299D02*
G75*
G03*
X109999484Y-104929720I252264J431694D01*
G01*
X109949999Y-104712842D02*
G75*
G03*
X109999484Y-104929720I499301J-158D01*
G01*
%TO.C,D14*%
X135400001Y-104712842D02*
X135400001Y-103307158D01*
X136305548Y-102510000D02*
X137894452Y-102510000D01*
X137894452Y-105509999D02*
X136305547Y-105509999D01*
X138799999Y-103307158D02*
X138799999Y-104712842D01*
X135400001Y-103307158D02*
G75*
G03*
X135350516Y-103090280I-500028J-7D01*
G01*
X136053289Y-102441701D02*
G75*
G03*
X135350516Y-103090281I-252256J-431703D01*
G01*
X135350516Y-104929720D02*
G75*
G03*
X135400001Y-104712843I-450505J216876D01*
G01*
X135350516Y-104929720D02*
G75*
G03*
X136053289Y-105578298I450510J-216883D01*
G01*
X136305547Y-105510000D02*
G75*
G03*
X136053289Y-105578299I-36J-499866D01*
G01*
X136053289Y-102441701D02*
G75*
G03*
X136305548Y-102510000I252325J431946D01*
G01*
X138146709Y-105578302D02*
G75*
G03*
X137894453Y-105510000I-252209J-431498D01*
G01*
X137894452Y-102509999D02*
G75*
G03*
X138146710Y-102441701I-2J500009D01*
G01*
X138849482Y-103090279D02*
G75*
G03*
X138146711Y-102441703I-450502J216889D01*
G01*
X138849479Y-103090278D02*
G75*
G03*
X138799999Y-103307157I450321J-216822D01*
G01*
X138146711Y-105578299D02*
G75*
G03*
X138849484Y-104929720I252264J431694D01*
G01*
X138799999Y-104712842D02*
G75*
G03*
X138849484Y-104929720I499301J-158D01*
G01*
%TO.C,D16*%
X77340001Y-104712842D02*
X77340001Y-103307158D01*
X78245548Y-102510000D02*
X79834452Y-102510000D01*
X79834452Y-105509999D02*
X78245547Y-105509999D01*
X80739999Y-103307158D02*
X80739999Y-104712842D01*
X77340001Y-103307158D02*
G75*
G03*
X77290516Y-103090280I-500028J-7D01*
G01*
X77993289Y-102441701D02*
G75*
G03*
X77290516Y-103090281I-252256J-431703D01*
G01*
X77290516Y-104929720D02*
G75*
G03*
X77340001Y-104712843I-450505J216876D01*
G01*
X77290516Y-104929720D02*
G75*
G03*
X77993289Y-105578298I450510J-216883D01*
G01*
X78245547Y-105510000D02*
G75*
G03*
X77993289Y-105578299I-36J-499866D01*
G01*
X77993289Y-102441701D02*
G75*
G03*
X78245548Y-102510000I252325J431946D01*
G01*
X80086709Y-105578302D02*
G75*
G03*
X79834453Y-105510000I-252209J-431498D01*
G01*
X79834452Y-102509999D02*
G75*
G03*
X80086710Y-102441701I-2J500009D01*
G01*
X80789482Y-103090279D02*
G75*
G03*
X80086711Y-102441703I-450502J216889D01*
G01*
X80789479Y-103090278D02*
G75*
G03*
X80739999Y-103307157I450321J-216822D01*
G01*
X80086711Y-105578299D02*
G75*
G03*
X80789484Y-104929720I252264J431694D01*
G01*
X80739999Y-104712842D02*
G75*
G03*
X80789484Y-104929720I499301J-158D01*
G01*
%TO.C,D6*%
X129840001Y-73252842D02*
X129840001Y-71847158D01*
X130745548Y-71050000D02*
X132334452Y-71050000D01*
X132334452Y-74049999D02*
X130745547Y-74049999D01*
X133239999Y-71847158D02*
X133239999Y-73252842D01*
X129840001Y-71847158D02*
G75*
G03*
X129790516Y-71630280I-500028J-7D01*
G01*
X130493289Y-70981701D02*
G75*
G03*
X129790516Y-71630281I-252256J-431703D01*
G01*
X129790516Y-73469720D02*
G75*
G03*
X129840001Y-73252843I-450505J216876D01*
G01*
X129790516Y-73469720D02*
G75*
G03*
X130493289Y-74118298I450510J-216883D01*
G01*
X130745547Y-74050000D02*
G75*
G03*
X130493289Y-74118299I-36J-499866D01*
G01*
X130493289Y-70981701D02*
G75*
G03*
X130745548Y-71050000I252325J431946D01*
G01*
X132586709Y-74118302D02*
G75*
G03*
X132334453Y-74050000I-252209J-431498D01*
G01*
X132334452Y-71049999D02*
G75*
G03*
X132586710Y-70981701I-2J500009D01*
G01*
X133289482Y-71630279D02*
G75*
G03*
X132586711Y-70981703I-450502J216889D01*
G01*
X133289479Y-71630278D02*
G75*
G03*
X133239999Y-71847157I450321J-216822D01*
G01*
X132586711Y-74118299D02*
G75*
G03*
X133289484Y-73469720I252264J431694D01*
G01*
X133239999Y-73252842D02*
G75*
G03*
X133289484Y-73469720I499301J-158D01*
G01*
%TO.C,D5*%
X156400001Y-84782842D02*
X156400001Y-83377158D01*
X157305548Y-82580000D02*
X158894452Y-82580000D01*
X158894452Y-85579999D02*
X157305547Y-85579999D01*
X159799999Y-83377158D02*
X159799999Y-84782842D01*
X156400001Y-83377158D02*
G75*
G03*
X156350516Y-83160280I-500028J-7D01*
G01*
X157053289Y-82511701D02*
G75*
G03*
X156350516Y-83160281I-252256J-431703D01*
G01*
X156350516Y-84999720D02*
G75*
G03*
X156400001Y-84782843I-450505J216876D01*
G01*
X156350516Y-84999720D02*
G75*
G03*
X157053289Y-85648298I450510J-216883D01*
G01*
X157305547Y-85580000D02*
G75*
G03*
X157053289Y-85648299I-36J-499866D01*
G01*
X157053289Y-82511701D02*
G75*
G03*
X157305548Y-82580000I252325J431946D01*
G01*
X159146709Y-85648302D02*
G75*
G03*
X158894453Y-85580000I-252209J-431498D01*
G01*
X158894452Y-82579999D02*
G75*
G03*
X159146710Y-82511701I-2J500009D01*
G01*
X159849482Y-83160279D02*
G75*
G03*
X159146711Y-82511703I-450502J216889D01*
G01*
X159849479Y-83160278D02*
G75*
G03*
X159799999Y-83377157I450321J-216822D01*
G01*
X159146711Y-85648299D02*
G75*
G03*
X159849484Y-84999720I252264J431694D01*
G01*
X159799999Y-84782842D02*
G75*
G03*
X159849484Y-84999720I499301J-158D01*
G01*
%TO.C,D1*%
X173840001Y-149292842D02*
X173840001Y-147887158D01*
X174745548Y-147090000D02*
X176334452Y-147090000D01*
X176334452Y-150089999D02*
X174745547Y-150089999D01*
X177239999Y-147887158D02*
X177239999Y-149292842D01*
X173840001Y-147887158D02*
G75*
G03*
X173790516Y-147670280I-500028J-7D01*
G01*
X174493289Y-147021701D02*
G75*
G03*
X173790516Y-147670281I-252256J-431703D01*
G01*
X173790516Y-149509720D02*
G75*
G03*
X173840001Y-149292843I-450505J216876D01*
G01*
X173790516Y-149509720D02*
G75*
G03*
X174493289Y-150158298I450510J-216883D01*
G01*
X174745547Y-150090000D02*
G75*
G03*
X174493289Y-150158299I-36J-499866D01*
G01*
X174493289Y-147021701D02*
G75*
G03*
X174745548Y-147090000I252325J431946D01*
G01*
X176586709Y-150158302D02*
G75*
G03*
X176334453Y-150090000I-252209J-431498D01*
G01*
X176334452Y-147089999D02*
G75*
G03*
X176586710Y-147021701I-2J500009D01*
G01*
X177289482Y-147670279D02*
G75*
G03*
X176586711Y-147021703I-450502J216889D01*
G01*
X177289479Y-147670278D02*
G75*
G03*
X177239999Y-147887157I450321J-216822D01*
G01*
X176586711Y-150158299D02*
G75*
G03*
X177289484Y-149509720I252264J431694D01*
G01*
X177239999Y-149292842D02*
G75*
G03*
X177289484Y-149509720I499301J-158D01*
G01*
%TO.C,D4*%
X191340001Y-96192842D02*
X191340001Y-94787158D01*
X192245548Y-93990000D02*
X193834452Y-93990000D01*
X193834452Y-96989999D02*
X192245547Y-96989999D01*
X194739999Y-94787158D02*
X194739999Y-96192842D01*
X191340001Y-94787158D02*
G75*
G03*
X191290516Y-94570280I-500028J-7D01*
G01*
X191993289Y-93921701D02*
G75*
G03*
X191290516Y-94570281I-252256J-431703D01*
G01*
X191290516Y-96409720D02*
G75*
G03*
X191340001Y-96192843I-450505J216876D01*
G01*
X191290516Y-96409720D02*
G75*
G03*
X191993289Y-97058298I450510J-216883D01*
G01*
X192245547Y-96990000D02*
G75*
G03*
X191993289Y-97058299I-36J-499866D01*
G01*
X191993289Y-93921701D02*
G75*
G03*
X192245548Y-93990000I252325J431946D01*
G01*
X194086709Y-97058302D02*
G75*
G03*
X193834453Y-96990000I-252209J-431498D01*
G01*
X193834452Y-93989999D02*
G75*
G03*
X194086710Y-93921701I-2J500009D01*
G01*
X194789482Y-94570279D02*
G75*
G03*
X194086711Y-93921703I-450502J216889D01*
G01*
X194789479Y-94570278D02*
G75*
G03*
X194739999Y-94787157I450321J-216822D01*
G01*
X194086711Y-97058299D02*
G75*
G03*
X194789484Y-96409720I252264J431694D01*
G01*
X194739999Y-96192842D02*
G75*
G03*
X194789484Y-96409720I499301J-158D01*
G01*
%TO.C,D2*%
X247035001Y-84722842D02*
X247035001Y-83317158D01*
X247940548Y-82520000D02*
X249529452Y-82520000D01*
X249529452Y-85519999D02*
X247940547Y-85519999D01*
X250434999Y-83317158D02*
X250434999Y-84722842D01*
X247035001Y-83317158D02*
G75*
G03*
X246985516Y-83100280I-500028J-7D01*
G01*
X247688289Y-82451701D02*
G75*
G03*
X246985516Y-83100281I-252256J-431703D01*
G01*
X246985516Y-84939720D02*
G75*
G03*
X247035001Y-84722843I-450505J216876D01*
G01*
X246985516Y-84939720D02*
G75*
G03*
X247688289Y-85588298I450510J-216883D01*
G01*
X247940547Y-85520000D02*
G75*
G03*
X247688289Y-85588299I-36J-499866D01*
G01*
X247688289Y-82451701D02*
G75*
G03*
X247940548Y-82520000I252325J431946D01*
G01*
X249781709Y-85588302D02*
G75*
G03*
X249529453Y-85520000I-252209J-431498D01*
G01*
X249529452Y-82519999D02*
G75*
G03*
X249781710Y-82451701I-2J500009D01*
G01*
X250484482Y-83100279D02*
G75*
G03*
X249781711Y-82451703I-450502J216889D01*
G01*
X250484479Y-83100278D02*
G75*
G03*
X250434999Y-83317157I450321J-216822D01*
G01*
X249781711Y-85588299D02*
G75*
G03*
X250484484Y-84939720I252264J431694D01*
G01*
X250434999Y-84722842D02*
G75*
G03*
X250484484Y-84939720I499301J-158D01*
G01*
%TO.C,D13*%
X162010001Y-115822842D02*
X162010001Y-114417158D01*
X162915548Y-113620000D02*
X164504452Y-113620000D01*
X164504452Y-116619999D02*
X162915547Y-116619999D01*
X165409999Y-114417158D02*
X165409999Y-115822842D01*
X162010001Y-114417158D02*
G75*
G03*
X161960516Y-114200280I-500028J-7D01*
G01*
X162663289Y-113551701D02*
G75*
G03*
X161960516Y-114200281I-252256J-431703D01*
G01*
X161960516Y-116039720D02*
G75*
G03*
X162010001Y-115822843I-450505J216876D01*
G01*
X161960516Y-116039720D02*
G75*
G03*
X162663289Y-116688298I450510J-216883D01*
G01*
X162915547Y-116620000D02*
G75*
G03*
X162663289Y-116688299I-36J-499866D01*
G01*
X162663289Y-113551701D02*
G75*
G03*
X162915548Y-113620000I252325J431946D01*
G01*
X164756709Y-116688302D02*
G75*
G03*
X164504453Y-116620000I-252209J-431498D01*
G01*
X164504452Y-113619999D02*
G75*
G03*
X164756710Y-113551701I-2J500009D01*
G01*
X165459482Y-114200279D02*
G75*
G03*
X164756711Y-113551703I-450502J216889D01*
G01*
X165459479Y-114200278D02*
G75*
G03*
X165409999Y-114417157I450321J-216822D01*
G01*
X164756711Y-116688299D02*
G75*
G03*
X165459484Y-116039720I252264J431694D01*
G01*
X165409999Y-115822842D02*
G75*
G03*
X165459484Y-116039720I499301J-158D01*
G01*
%TO.C,D3*%
X217940001Y-84842842D02*
X217940001Y-83437158D01*
X218845548Y-82640000D02*
X220434452Y-82640000D01*
X220434452Y-85639999D02*
X218845547Y-85639999D01*
X221339999Y-83437158D02*
X221339999Y-84842842D01*
X217940001Y-83437158D02*
G75*
G03*
X217890516Y-83220280I-500028J-7D01*
G01*
X218593289Y-82571701D02*
G75*
G03*
X217890516Y-83220281I-252256J-431703D01*
G01*
X217890516Y-85059720D02*
G75*
G03*
X217940001Y-84842843I-450505J216876D01*
G01*
X217890516Y-85059720D02*
G75*
G03*
X218593289Y-85708298I450510J-216883D01*
G01*
X218845547Y-85640000D02*
G75*
G03*
X218593289Y-85708299I-36J-499866D01*
G01*
X218593289Y-82571701D02*
G75*
G03*
X218845548Y-82640000I252325J431946D01*
G01*
X220686709Y-85708302D02*
G75*
G03*
X220434453Y-85640000I-252209J-431498D01*
G01*
X220434452Y-82639999D02*
G75*
G03*
X220686710Y-82571701I-2J500009D01*
G01*
X221389482Y-83220279D02*
G75*
G03*
X220686711Y-82571703I-450502J216889D01*
G01*
X221389479Y-83220278D02*
G75*
G03*
X221339999Y-83437157I450321J-216822D01*
G01*
X220686711Y-85708299D02*
G75*
G03*
X221389484Y-85059720I252264J431694D01*
G01*
X221339999Y-84842842D02*
G75*
G03*
X221389484Y-85059720I499301J-158D01*
G01*
%TO.C,D7*%
X100870001Y-73132842D02*
X100870001Y-71727158D01*
X101775548Y-70930000D02*
X103364452Y-70930000D01*
X103364452Y-73929999D02*
X101775547Y-73929999D01*
X104269999Y-71727158D02*
X104269999Y-73132842D01*
X100870001Y-71727158D02*
G75*
G03*
X100820516Y-71510280I-500028J-7D01*
G01*
X101523289Y-70861701D02*
G75*
G03*
X100820516Y-71510281I-252256J-431703D01*
G01*
X100820516Y-73349720D02*
G75*
G03*
X100870001Y-73132843I-450505J216876D01*
G01*
X100820516Y-73349720D02*
G75*
G03*
X101523289Y-73998298I450510J-216883D01*
G01*
X101775547Y-73930000D02*
G75*
G03*
X101523289Y-73998299I-36J-499866D01*
G01*
X101523289Y-70861701D02*
G75*
G03*
X101775548Y-70930000I252325J431946D01*
G01*
X103616709Y-73998302D02*
G75*
G03*
X103364453Y-73930000I-252209J-431498D01*
G01*
X103364452Y-70929999D02*
G75*
G03*
X103616710Y-70861701I-2J500009D01*
G01*
X104319482Y-71510279D02*
G75*
G03*
X103616711Y-70861703I-450502J216889D01*
G01*
X104319479Y-71510278D02*
G75*
G03*
X104269999Y-71727157I450321J-216822D01*
G01*
X103616711Y-73998299D02*
G75*
G03*
X104319484Y-73349720I252264J431694D01*
G01*
X104269999Y-73132842D02*
G75*
G03*
X104319484Y-73349720I499301J-158D01*
G01*
%TO.C,D12*%
X71900001Y-73372842D02*
X71900001Y-71967158D01*
X72805548Y-71170000D02*
X74394452Y-71170000D01*
X74394452Y-74169999D02*
X72805547Y-74169999D01*
X75299999Y-71967158D02*
X75299999Y-73372842D01*
X71900001Y-71967158D02*
G75*
G03*
X71850516Y-71750280I-500028J-7D01*
G01*
X72553289Y-71101701D02*
G75*
G03*
X71850516Y-71750281I-252256J-431703D01*
G01*
X71850516Y-73589720D02*
G75*
G03*
X71900001Y-73372843I-450505J216876D01*
G01*
X71850516Y-73589720D02*
G75*
G03*
X72553289Y-74238298I450510J-216883D01*
G01*
X72805547Y-74170000D02*
G75*
G03*
X72553289Y-74238299I-36J-499866D01*
G01*
X72553289Y-71101701D02*
G75*
G03*
X72805548Y-71170000I252325J431946D01*
G01*
X74646709Y-74238302D02*
G75*
G03*
X74394453Y-74170000I-252209J-431498D01*
G01*
X74394452Y-71169999D02*
G75*
G03*
X74646710Y-71101701I-2J500009D01*
G01*
X75349482Y-71750279D02*
G75*
G03*
X74646711Y-71101703I-450502J216889D01*
G01*
X75349479Y-71750278D02*
G75*
G03*
X75299999Y-71967157I450321J-216822D01*
G01*
X74646711Y-74238299D02*
G75*
G03*
X75349484Y-73589720I252264J431694D01*
G01*
X75299999Y-73372842D02*
G75*
G03*
X75349484Y-73589720I499301J-158D01*
G01*
%TD*%
M02*
