%TF.GenerationSoftware,KiCad,Pcbnew,7.0.9*%
%TF.CreationDate,2024-03-26T15:37:35+08:00*%
%TF.ProjectId,Flatbox-LED-Mirrored,466c6174-626f-4782-9d4c-45442d4d6972,rev?*%
%TF.SameCoordinates,Original*%
%TF.FileFunction,Paste,Top*%
%TF.FilePolarity,Positive*%
%FSLAX46Y46*%
G04 Gerber Fmt 4.6, Leading zero omitted, Abs format (unit mm)*
G04 Created by KiCad (PCBNEW 7.0.9) date 2024-03-26 15:37:35*
%MOMM*%
%LPD*%
G01*
G04 APERTURE LIST*
G04 Aperture macros list*
%AMRoundRect*
0 Rectangle with rounded corners*
0 $1 Rounding radius*
0 $2 $3 $4 $5 $6 $7 $8 $9 X,Y pos of 4 corners*
0 Add a 4 corners polygon primitive as box body*
4,1,4,$2,$3,$4,$5,$6,$7,$8,$9,$2,$3,0*
0 Add four circle primitives for the rounded corners*
1,1,$1+$1,$2,$3*
1,1,$1+$1,$4,$5*
1,1,$1+$1,$6,$7*
1,1,$1+$1,$8,$9*
0 Add four rect primitives between the rounded corners*
20,1,$1+$1,$2,$3,$4,$5,0*
20,1,$1+$1,$4,$5,$6,$7,0*
20,1,$1+$1,$6,$7,$8,$9,0*
20,1,$1+$1,$8,$9,$2,$3,0*%
G04 Aperture macros list end*
%ADD10R,1.300000X1.550000*%
%ADD11RoundRect,0.135000X-0.185000X0.135000X-0.185000X-0.135000X0.185000X-0.135000X0.185000X0.135000X0*%
%ADD12R,0.600000X1.450000*%
%ADD13R,0.300000X1.450000*%
%ADD14R,0.900000X2.100000*%
G04 APERTURE END LIST*
D10*
%TO.C,SW4*%
X216690000Y-57975000D03*
X216690000Y-50025000D03*
X221190000Y-57975000D03*
X221190000Y-50025000D03*
%TD*%
%TO.C,SW2*%
X236690000Y-57975000D03*
X236690000Y-50025000D03*
X241190000Y-57975000D03*
X241190000Y-50025000D03*
%TD*%
%TO.C,SW5*%
X206690000Y-57975000D03*
X206690000Y-50025000D03*
X211190000Y-57975000D03*
X211190000Y-50025000D03*
%TD*%
%TO.C,SW3*%
X226690000Y-57975000D03*
X226690000Y-50025000D03*
X231190000Y-57975000D03*
X231190000Y-50025000D03*
%TD*%
%TO.C,SW6*%
X196690000Y-57975000D03*
X196690000Y-50025000D03*
X201190000Y-57975000D03*
X201190000Y-50025000D03*
%TD*%
D11*
%TO.C,R7*%
X163300000Y-48490000D03*
X163300000Y-49510000D03*
%TD*%
D12*
%TO.C,USB1*%
X165190000Y-46395000D03*
X164390000Y-46395000D03*
D13*
X163690000Y-46395000D03*
X163190000Y-46395000D03*
X162690000Y-46395000D03*
X162190000Y-46395000D03*
X161690000Y-46395000D03*
X161190000Y-46395000D03*
X160690000Y-46395000D03*
X160190000Y-46395000D03*
D12*
X159490000Y-46395000D03*
X158690000Y-46395000D03*
%TD*%
D11*
%TO.C,R6*%
X160200000Y-48590000D03*
X160200000Y-49610000D03*
%TD*%
D14*
%TO.C,SW19*%
X139000000Y-47700000D03*
X142000000Y-47700000D03*
%TD*%
D10*
%TO.C,SW1*%
X246690000Y-57975000D03*
X246690000Y-50025000D03*
X251190000Y-57975000D03*
X251190000Y-50025000D03*
%TD*%
M02*
